<svg width="66" height="67" viewBox="0 0 66 67" fill="none" xmlns="http://www.w3.org/2000/svg">
<path d="M66 34.4144C66 52.2273 53.7769 67 35.5515 67C17.3261 67 0 52.2273 0 34.4144C0 16.6015 17.3261 0 35.5515 0C53.7769 0 66 16.6015 66 34.4144Z" fill="#618B16"/>
<path d="M24.1651 33.3935C26.0181 35.4401 27.8222 37.4326 29.7312 39.5409C31.2953 37.8455 32.7759 36.2483 34.2483 34.6432C37.2548 31.3657 40.2409 28.0683 43.269 24.8122C44.3653 23.6333 45.9016 23.7692 46.6698 25.0159C47.2012 25.8782 47.0916 26.9804 46.3382 27.8343C45.0001 29.3507 43.6494 30.8555 42.2866 32.3483C38.7655 36.2053 35.2438 40.0618 31.7038 43.9004C30.3242 45.3964 29.2193 45.357 27.8332 43.8367C25.4949 41.2721 23.1563 38.7077 20.8228 36.1385C19.4505 34.6276 19.8456 32.651 21.63 32.2048C22.7059 31.9357 23.4678 32.5422 24.1651 33.3935Z" fill="white"/>
</svg>
