<svg width="22" height="22" viewBox="0 0 22 22" fill="none" xmlns="http://www.w3.org/2000/svg">
<path fill-rule="evenodd" clip-rule="evenodd" d="M12.493 18.7659L11.9961 19.6054C11.5532 20.3537 10.4467 20.3537 10.0038 19.6054L9.50692 18.7659C9.12148 18.1147 8.92876 17.7891 8.61921 17.6091C8.30965 17.429 7.91991 17.4223 7.14043 17.4089C5.98968 17.389 5.26796 17.3185 4.66268 17.0678C3.53964 16.6026 2.64738 15.7104 2.1822 14.5873C1.83331 13.7451 1.83331 12.6773 1.83331 10.5417V9.62504C1.83331 6.6244 1.83331 5.12407 2.50871 4.02192C2.88663 3.40521 3.40515 2.8867 4.02186 2.50877C5.12401 1.83337 6.62434 1.83337 9.62498 1.83337H12.375C15.3756 1.83337 16.8759 1.83337 17.9781 2.50877C18.5948 2.8867 19.1133 3.40521 19.4912 4.02192C20.1666 5.12407 20.1666 6.6244 20.1666 9.62504V10.5417C20.1666 12.6773 20.1666 13.7451 19.8178 14.5873C19.3526 15.7104 18.4603 16.6026 17.3373 17.0678C16.732 17.3185 16.0103 17.389 14.8595 17.4089C14.08 17.4223 13.6903 17.429 13.3807 17.6091C13.0712 17.7891 12.8784 18.1147 12.493 18.7659ZM7.33331 10.7709C6.95362 10.7709 6.64581 11.0787 6.64581 11.4584C6.64581 11.8381 6.95362 12.1459 7.33331 12.1459H12.375C12.7547 12.1459 13.0625 11.8381 13.0625 11.4584C13.0625 11.0787 12.7547 10.7709 12.375 10.7709H7.33331ZM6.64581 8.25004C6.64581 7.87034 6.95362 7.56254 7.33331 7.56254H14.6666C15.0463 7.56254 15.3541 7.87034 15.3541 8.25004C15.3541 8.62974 15.0463 8.93754 14.6666 8.93754H7.33331C6.95362 8.93754 6.64581 8.62974 6.64581 8.25004Z" fill="white"/>
</svg>
