<svg width="23" height="19" viewBox="0 0 23 19" fill="none" xmlns="http://www.w3.org/2000/svg">
<path fill-rule="evenodd" clip-rule="evenodd" d="M1.34731 1.39124C0 2.78249 0 5.02166 0 9.5C0 13.9783 0 16.2175 1.34731 17.6088C2.69462 19 4.86308 19 9.2 19H13.8C18.1369 19 20.3054 19 21.6527 17.6088C23 16.2175 23 13.9783 23 9.5C23 5.02166 23 2.78249 21.6527 1.39124C20.3054 0 18.1369 0 13.8 0H9.2C4.86308 0 2.69462 0 1.34731 1.39124ZM19.0626 4.17984C19.3675 4.55771 19.3181 5.1193 18.9522 5.4342L16.4262 7.6078C15.4069 8.48496 14.5807 9.1959 13.8515 9.68017C13.092 10.1846 12.3522 10.5033 11.5 10.5033C10.6478 10.5033 9.90802 10.1846 9.14845 9.68017C8.41928 9.19591 7.59312 8.48496 6.57381 7.60781L4.04784 5.4342C3.6819 5.1193 3.63246 4.55771 3.93741 4.17984C4.24236 3.80196 4.78622 3.75091 5.15216 4.0658L7.63489 6.20221C8.70779 7.12545 9.45269 7.76437 10.0816 8.18203C10.6903 8.58633 11.1032 8.72204 11.5 8.72204C11.8968 8.72204 12.3097 8.58633 12.9184 8.18203C13.5473 7.76437 14.2922 7.12545 15.3651 6.20221L17.8478 4.0658C18.2138 3.75091 18.7576 3.80196 19.0626 4.17984Z" fill="white"/>
</svg>
