<svg width="162" height="59" viewBox="0 0 162 59" fill="none" xmlns="http://www.w3.org/2000/svg">
<path d="M26.6248 0.994578C26.6248 0.994578 1.70912 26.0487 1.15544 26.6024C0.601759 27.156 1.29386 28.5402 2.40122 28.5402H5.30805V56.5012C5.30805 57.9408 6.00016 58.5775 6.55384 58.5775H48.2184C49.8794 58.5775 50.2947 57.4701 50.2947 56.9164V28.5402H52.9247C54.3643 28.5402 54.3564 26.6499 54.1705 26.4639C53.9846 26.278 46.8342 19.2661 46.8342 19.2661C46.8803 16.2208 46.9449 9.90885 46.8342 9.02296C46.7235 8.13707 46.0498 7.9156 45.7268 7.9156H41.7126C41.0482 7.9156 40.7898 8.377 40.7437 8.6077V13.0372L28.7011 0.994578C27.8152 0.108687 26.9478 0.625457 26.6248 0.994578Z" fill="#00395B"/>
<path d="M11.8139 23.4187C12.9212 22.0345 22.7491 12.2989 27.5938 7.63879C31.5618 11.5607 38.3906 18.1694 43.0969 23.4187C46.944 27.7098 47.2495 33.2466 47.2495 36.7071C47.2495 40.1676 45.8653 44.4586 42.5432 48.196C39.2211 51.9333 33.9611 54.7017 26.7633 54.7017C19.5654 54.7017 14.8844 50.7897 12.6444 48.196C10.0144 45.1507 8.6863 42.2439 7.93808 36.7071C7.00281 29.7861 10.4466 25.1278 11.8139 23.4187Z" fill="white"/>
<path d="M13.6081 24.285C14.5945 23.0555 23.3489 14.4081 27.6644 10.2687C31.199 13.7523 37.2818 19.6224 41.4741 24.285C44.901 28.0965 45.1731 33.0145 45.1731 36.0882C45.1731 39.162 43.9401 42.9734 40.9809 46.2931C38.0216 49.6127 33.3362 52.0717 26.9246 52.0717C20.513 52.0717 16.3433 48.5969 14.3479 46.2931C12.0052 43.5882 10.8222 41.0062 10.1557 36.0882C9.32261 29.9407 12.3903 25.803 13.6081 24.285Z" fill="#0077AC"/>
<path d="M32.7154 47.9191C29.6701 50.1338 24.041 51.4719 21.5033 51.9333C20.8112 50.5952 19.6485 46.6179 20.5344 41.4133C21.6418 34.9076 28.3671 31.2762 30.3622 30.4781C32.4386 29.6476 38.0677 27.6174 40.8822 26.4639C41.5743 40.7212 37.0016 44.8019 32.7154 47.9191Z" fill="white"/>
<path d="M32.2598 46.8765C29.6701 48.8881 24.4318 50.1429 22.1954 50.5491C21.5854 49.371 20.866 45.7309 21.6467 41.1486C22.6227 35.4207 28.5496 32.2235 30.308 31.5208C32.1378 30.7896 37.5712 29.0022 40.0516 27.9866C40.6616 40.5392 35.947 44.0124 32.2598 46.8765Z" fill="#618B16"/>
<path d="M26.0711 41.8286C24.8253 43.4896 22.5183 48.1498 21.5032 50.2722C21.6417 50.4107 22.2507 50.7429 22.4722 50.9643C22.749 50.1338 24.9637 45.0123 28.2858 40.9981C29.67 39.1986 32.0232 37.1223 34.93 34.4923C30.7774 36.707 27.3169 40.1675 26.0711 41.8286Z" fill="white"/>
<path d="M69.9198 25.3142C69.9198 24.9495 69.8637 24.6224 69.7517 24.3328C69.6396 24.0324 69.4323 23.7536 69.1298 23.4961C68.8272 23.2387 68.3902 22.9813 67.8187 22.7239C67.2585 22.4557 66.5189 22.1768 65.6 21.8872C64.5243 21.544 63.4878 21.1579 62.4905 20.7288C61.4932 20.2891 60.6024 19.7796 59.818 19.2004C59.0336 18.6104 58.4117 17.924 57.9523 17.141C57.4929 16.3473 57.2632 15.4248 57.2632 14.3737C57.2632 13.3655 57.4985 12.4591 57.9691 11.6547C58.4398 10.8395 59.0953 10.1477 59.9357 9.57918C60.7873 8.99998 61.7846 8.56022 62.9275 8.25989C64.0705 7.94884 65.3199 7.79331 66.6758 7.79331C68.4686 7.79331 70.0486 8.09364 71.4157 8.69429C72.794 9.28422 73.8697 10.1262 74.6429 11.2203C75.4272 12.3036 75.8194 13.5853 75.8194 15.0655H69.9534C69.9534 14.4756 69.8245 13.9554 69.5668 13.5049C69.3203 13.0544 68.9449 12.7004 68.4406 12.443C67.9364 12.1856 67.3033 12.0569 66.5413 12.0569C65.8017 12.0569 65.1798 12.1641 64.6756 12.3787C64.1714 12.5932 63.7904 12.8828 63.5326 13.2475C63.2749 13.6014 63.1461 13.9929 63.1461 14.422C63.1461 14.7759 63.2469 15.0977 63.4486 15.3873C63.6615 15.6662 63.9584 15.929 64.3394 16.1757C64.7316 16.4224 65.2023 16.6583 65.7513 16.8836C66.3116 17.1088 66.9391 17.3287 67.6338 17.5432C68.9337 17.9401 70.0878 18.3852 71.0963 18.8786C72.116 19.3613 72.9732 19.9137 73.668 20.5358C74.3739 21.1471 74.9062 21.8443 75.2648 22.6273C75.6345 23.4103 75.8194 24.2952 75.8194 25.282C75.8194 26.3331 75.6065 27.2663 75.1807 28.0815C74.7549 28.8967 74.1442 29.5885 73.3486 30.157C72.553 30.7147 71.6006 31.1384 70.4912 31.428C69.3819 31.7176 68.1437 31.8624 66.7766 31.8624C65.5216 31.8624 64.2834 31.7122 63.062 31.4119C61.8518 31.1008 60.7537 30.6289 59.7676 29.9961C58.7815 29.3525 57.9915 28.532 57.3976 27.5345C56.815 26.5262 56.5236 25.3303 56.5236 23.9466H62.4401C62.4401 24.6331 62.5354 25.2123 62.7258 25.6842C62.9163 26.1562 63.1965 26.5369 63.5663 26.8265C63.936 27.1054 64.3899 27.3092 64.9277 27.4379C65.4656 27.5559 66.0819 27.6149 66.7766 27.6149C67.5274 27.6149 68.1325 27.513 68.5919 27.3092C69.0513 27.0947 69.3875 26.8158 69.6004 26.4726C69.8133 26.1186 69.9198 25.7325 69.9198 25.3142Z" fill="white"/>
<path d="M98.8803 19.0234V28.6446C98.4657 29.0844 97.827 29.5563 96.9641 30.0604C96.1125 30.5538 95.0368 30.9775 93.737 31.3314C92.4371 31.6854 90.9076 31.8624 89.1483 31.8624C87.5235 31.8624 86.05 31.6157 84.7278 31.1223C83.4055 30.6182 82.2682 29.8834 81.3157 28.9181C80.3745 27.942 79.6461 26.7515 79.1306 25.3464C78.6264 23.9305 78.3743 22.3109 78.3743 20.4875V19.1843C78.3743 17.3609 78.632 15.7413 79.1475 14.3254C79.6629 12.9096 80.3857 11.719 81.3157 10.7537C82.257 9.77761 83.3607 9.03752 84.6269 8.5334C85.9044 8.02928 87.305 7.77722 88.829 7.77722C91.0813 7.77722 92.9134 8.12045 94.3253 8.80691C95.7371 9.48265 96.8073 10.4212 97.5356 11.6225C98.264 12.8131 98.7066 14.1914 98.8635 15.7573H93.1991C93.0871 14.9851 92.8741 14.3308 92.5604 13.7945C92.2579 13.2475 91.8208 12.8345 91.2494 12.5556C90.6779 12.266 89.9383 12.1212 89.0307 12.1212C88.3247 12.1212 87.6804 12.266 87.0977 12.5556C86.5263 12.8452 86.0388 13.285 85.6354 13.8749C85.232 14.4541 84.9183 15.1835 84.6942 16.063C84.4813 16.9426 84.3748 17.9723 84.3748 19.1521V20.4875C84.3748 21.6566 84.4757 22.681 84.6774 23.5605C84.8903 24.44 85.204 25.1747 85.6186 25.7647C86.0444 26.3439 86.5823 26.7836 87.2322 27.084C87.8933 27.3736 88.6721 27.5184 89.5685 27.5184C90.196 27.5184 90.7339 27.4701 91.1821 27.3736C91.6303 27.2663 92.0001 27.1376 92.2915 26.9874C92.594 26.8265 92.8237 26.6764 92.9806 26.5369V22.9008H88.8794V19.0234H98.8803Z" fill="white"/>
<path d="M56.5236 36.163H60.7669C61.5963 36.163 62.3171 36.2864 62.9293 36.5331C63.5415 36.7798 64.013 37.145 64.3437 37.6286C64.6794 38.1122 64.8473 38.7093 64.8473 39.4199C64.8473 40.0368 64.751 40.5525 64.5585 40.967C64.3659 41.3815 64.0969 41.7245 63.7513 41.9959C63.4106 42.2624 63.0132 42.482 62.559 42.6547L61.7074 43.1358H58.1454L58.1306 41.1298H60.7669C61.0977 41.1298 61.3717 41.0706 61.5889 40.9522C61.8061 40.8338 61.9691 40.666 62.0777 40.4488C62.1912 40.2268 62.248 39.9628 62.248 39.6568C62.248 39.3459 62.1912 39.0794 62.0777 38.8574C61.9641 38.6353 61.7963 38.4651 61.5741 38.3466C61.3569 38.2282 61.0878 38.169 60.7669 38.169H59.1229V46.9405H56.5236V36.163ZM62.4257 46.9405L60.0412 42.1736L62.796 42.1587L65.2102 46.8295V46.9405H62.4257Z" fill="white"/>
<path d="M73.3825 44.942V46.9405H67.6359V44.942H73.3825ZM68.5616 36.163V46.9405H65.9623V36.163H68.5616ZM72.6419 40.4414V42.3734H67.6359V40.4414H72.6419ZM73.4047 36.163V38.169H67.6359V36.163H73.4047Z" fill="white"/>
<path d="M79.5479 44.0759C79.5479 43.9081 79.5232 43.7576 79.4739 43.6244C79.4245 43.4862 79.3332 43.3579 79.1999 43.2395C79.0666 43.121 78.874 43.0026 78.6222 42.8842C78.3754 42.7608 78.0496 42.6325 77.6447 42.4992C77.1708 42.3413 76.7141 42.1637 76.2747 41.9663C75.8353 41.764 75.4429 41.5296 75.0973 41.2631C74.7517 40.9917 74.4777 40.6758 74.2753 40.3156C74.0729 39.9504 73.9716 39.526 73.9716 39.0424C73.9716 38.5786 74.0753 38.1616 74.2827 37.7915C74.49 37.4164 74.7788 37.0981 75.1491 36.8366C75.5243 36.5701 75.9637 36.3678 76.4673 36.2296C76.9708 36.0865 77.5213 36.015 78.1187 36.015C78.9086 36.015 79.6047 36.1531 80.207 36.4295C80.8142 36.7009 81.2882 37.0883 81.6288 37.5916C81.9744 38.09 82.1472 38.6797 82.1472 39.3607H79.5627C79.5627 39.0893 79.506 38.85 79.3924 38.6427C79.2838 38.4355 79.1184 38.2726 78.8962 38.1542C78.6741 38.0357 78.3951 37.9765 78.0594 37.9765C77.7336 37.9765 77.4596 38.0259 77.2374 38.1246C77.0153 38.2233 76.8474 38.3565 76.7339 38.5243C76.6203 38.6871 76.5635 38.8673 76.5635 39.0646C76.5635 39.2275 76.608 39.3755 76.6968 39.5088C76.7906 39.6371 76.9215 39.758 77.0893 39.8715C77.2621 39.985 77.4695 40.0935 77.7114 40.1972C77.9582 40.3008 78.2347 40.402 78.5408 40.5007C79.1135 40.6833 79.622 40.888 80.0663 41.115C80.5156 41.3371 80.8932 41.5912 81.1993 41.8775C81.5103 42.1587 81.7449 42.4795 81.9028 42.8397C82.0658 43.2 82.1472 43.6071 82.1472 44.0611C82.1472 44.5447 82.0534 44.974 81.8658 45.3491C81.6782 45.7241 81.4091 46.0424 81.0586 46.304C80.7081 46.5606 80.2885 46.7555 79.7997 46.8887C79.3109 47.022 78.7654 47.0886 78.1631 47.0886C77.6102 47.0886 77.0646 47.0195 76.5265 46.8813C75.9933 46.7382 75.5095 46.5211 75.0751 46.2299C74.6406 45.9339 74.2925 45.5563 74.0309 45.0974C73.7742 44.6335 73.6458 44.0833 73.6458 43.4467H76.2525C76.2525 43.7626 76.2945 44.029 76.3784 44.2462C76.4623 44.4633 76.5858 44.6385 76.7487 44.7717C76.9116 44.9 77.1115 44.9938 77.3485 45.053C77.5855 45.1073 77.857 45.1344 78.1631 45.1344C78.4939 45.1344 78.7605 45.0875 78.9629 44.9938C79.1653 44.8951 79.3134 44.7668 79.4072 44.6089C79.501 44.446 79.5479 44.2684 79.5479 44.0759Z" fill="white"/>
<path d="M88.2534 36.163V46.9405H85.6541V36.163H88.2534ZM91.497 36.163V38.169H82.4846V36.163H91.497Z" fill="white"/>
<path d="M101.062 41.3371V41.7738C101.062 42.5979 100.945 43.3382 100.713 43.9945C100.486 44.6459 100.163 45.2035 99.7433 45.6674C99.3237 46.1263 98.8275 46.4791 98.2549 46.7259C97.6822 46.9677 97.0503 47.0886 96.3591 47.0886C95.663 47.0886 95.0261 46.9677 94.4485 46.7259C93.8758 46.4791 93.3772 46.1263 92.9526 45.6674C92.533 45.2035 92.2071 44.6459 91.9751 43.9945C91.748 43.3382 91.6344 42.5979 91.6344 41.7738V41.3371C91.6344 40.513 91.748 39.7728 91.9751 39.1165C92.2071 38.4601 92.5305 37.9025 92.9452 37.4436C93.3648 36.9797 93.861 36.6269 94.4337 36.3851C95.0113 36.1383 95.6482 36.015 96.3443 36.015C97.0354 36.015 97.6674 36.1383 98.2401 36.3851C98.8177 36.6269 99.3163 36.9797 99.7359 37.4436C100.156 37.9025 100.481 38.4601 100.713 39.1165C100.945 39.7728 101.062 40.513 101.062 41.3371ZM98.4252 41.7738V41.3223C98.4252 40.7893 98.3783 40.3205 98.2845 39.9159C98.1956 39.5063 98.0623 39.1633 97.8846 38.887C97.7069 38.6106 97.4872 38.4034 97.2255 38.2652C96.9688 38.1221 96.675 38.0505 96.3443 38.0505C95.9987 38.0505 95.6975 38.1221 95.4408 38.2652C95.1841 38.4034 94.9693 38.6106 94.7965 38.887C94.6237 39.1633 94.4929 39.5063 94.4041 39.9159C94.3201 40.3205 94.2782 40.7893 94.2782 41.3223V41.7738C94.2782 42.3019 94.3201 42.7707 94.4041 43.1802C94.4929 43.5849 94.6237 43.9279 94.7965 44.2091C94.9743 44.4904 95.1915 44.7026 95.4482 44.8457C95.7099 44.9888 96.0135 45.0604 96.3591 45.0604C96.6899 45.0604 96.9836 44.9888 97.2403 44.8457C97.497 44.7026 97.7118 44.4904 97.8846 44.2091C98.0623 43.9279 98.1956 43.5849 98.2845 43.1802C98.3783 42.7707 98.4252 42.3019 98.4252 41.7738Z" fill="white"/>
<path d="M101.954 36.163H106.198C107.027 36.163 107.748 36.2864 108.36 36.5331C108.972 36.7798 109.444 37.145 109.774 37.6286C110.11 38.1122 110.278 38.7093 110.278 39.4199C110.278 40.0368 110.182 40.5525 109.989 40.967C109.797 41.3815 109.528 41.7245 109.182 41.9959C108.841 42.2624 108.444 42.482 107.99 42.6547L107.138 43.1358H103.576L103.561 41.1298H106.198C106.528 41.1298 106.802 41.0706 107.02 40.9522C107.237 40.8338 107.4 40.666 107.508 40.4488C107.622 40.2268 107.679 39.9628 107.679 39.6568C107.679 39.3459 107.622 39.0794 107.508 38.8574C107.395 38.6353 107.227 38.4651 107.005 38.3466C106.788 38.2282 106.519 38.169 106.198 38.169H104.554V46.9405H101.954V36.163ZM107.856 46.9405L105.472 42.1736L108.227 42.1587L110.641 46.8295V46.9405H107.856Z" fill="white"/>
<path d="M115.962 38.4281L113.333 46.9405H110.541L114.503 36.163H116.273L115.962 38.4281ZM118.139 46.9405L115.503 38.4281L115.162 36.163H116.954L120.939 46.9405H118.139ZM118.036 42.9212V44.9272H112.504V42.9212H118.036Z" fill="white"/>
<path d="M125.608 36.163V46.9405H123.009V36.163H125.608ZM128.852 36.163V38.169H119.839V36.163H128.852Z" fill="white"/>
<path d="M132.262 36.163V46.9405H129.67V36.163H132.262Z" fill="white"/>
<path d="M142.76 41.3371V41.7738C142.76 42.5979 142.644 43.3382 142.412 43.9945C142.185 44.6459 141.861 45.2035 141.442 45.6674C141.022 46.1263 140.526 46.4791 139.953 46.7259C139.381 46.9677 138.749 47.0886 138.057 47.0886C137.361 47.0886 136.724 46.9677 136.147 46.7259C135.574 46.4791 135.076 46.1263 134.651 45.6674C134.231 45.2035 133.905 44.6459 133.673 43.9945C133.446 43.3382 133.333 42.5979 133.333 41.7738V41.3371C133.333 40.513 133.446 39.7728 133.673 39.1165C133.905 38.4601 134.229 37.9025 134.644 37.4436C135.063 36.9797 135.559 36.6269 136.132 36.3851C136.71 36.1383 137.347 36.015 138.043 36.015C138.734 36.015 139.366 36.1383 139.938 36.3851C140.516 36.6269 141.015 36.9797 141.434 37.4436C141.854 37.9025 142.18 38.4601 142.412 39.1165C142.644 39.7728 142.76 40.513 142.76 41.3371ZM140.124 41.7738V41.3223C140.124 40.7893 140.077 40.3205 139.983 39.9159C139.894 39.5063 139.761 39.1633 139.583 38.887C139.405 38.6106 139.186 38.4034 138.924 38.2652C138.667 38.1221 138.373 38.0505 138.043 38.0505C137.697 38.0505 137.396 38.1221 137.139 38.2652C136.882 38.4034 136.668 38.6106 136.495 38.887C136.322 39.1633 136.191 39.5063 136.102 39.9159C136.018 40.3205 135.977 40.7893 135.977 41.3223V41.7738C135.977 42.3019 136.018 42.7707 136.102 43.1802C136.191 43.5849 136.322 43.9279 136.495 44.2091C136.673 44.4904 136.89 44.7026 137.147 44.8457C137.408 44.9888 137.712 45.0604 138.057 45.0604C138.388 45.0604 138.682 44.9888 138.939 44.8457C139.195 44.7026 139.41 44.4904 139.583 44.2091C139.761 43.9279 139.894 43.5849 139.983 43.1802C140.077 42.7707 140.124 42.3019 140.124 41.7738Z" fill="white"/>
<path d="M152.658 36.163V46.9405H150.066L146.252 40.2342V46.9405H143.653V36.163H146.252L150.066 42.8694V36.163H152.658Z" fill="white"/>
<path d="M159.401 44.0759C159.401 43.9081 159.376 43.7576 159.327 43.6244C159.277 43.4862 159.186 43.3579 159.053 43.2395C158.919 43.121 158.727 43.0026 158.475 42.8842C158.228 42.7608 157.902 42.6325 157.498 42.4992C157.024 42.3413 156.567 42.1637 156.128 41.9663C155.688 41.764 155.296 41.5296 154.95 41.2631C154.604 40.9917 154.33 40.6758 154.128 40.3156C153.926 39.9504 153.824 39.526 153.824 39.0424C153.824 38.5786 153.928 38.1616 154.135 37.7915C154.343 37.4164 154.632 37.0981 155.002 36.8366C155.377 36.5701 155.816 36.3678 156.32 36.2296C156.824 36.0865 157.374 36.015 157.971 36.015C158.761 36.015 159.457 36.1531 160.06 36.4295C160.667 36.7009 161.141 37.0883 161.482 37.5916C161.827 38.09 162 38.6797 162 39.3607H159.416C159.416 39.0893 159.359 38.85 159.245 38.6427C159.137 38.4355 158.971 38.2726 158.749 38.1542C158.527 38.0357 158.248 37.9765 157.912 37.9765C157.586 37.9765 157.312 38.0259 157.09 38.1246C156.868 38.2233 156.7 38.3565 156.587 38.5243C156.473 38.6871 156.416 38.8673 156.416 39.0646C156.416 39.2275 156.461 39.3755 156.55 39.5088C156.643 39.6371 156.774 39.758 156.942 39.8715C157.115 39.985 157.322 40.0935 157.564 40.1972C157.811 40.3008 158.087 40.402 158.394 40.5007C158.966 40.6833 159.475 40.888 159.919 41.115C160.368 41.3371 160.746 41.5912 161.052 41.8775C161.363 42.1587 161.598 42.4795 161.756 42.8397C161.919 43.2 162 43.6071 162 44.0611C162 44.5447 161.906 44.974 161.719 45.3491C161.531 45.7241 161.262 46.0424 160.911 46.304C160.561 46.5606 160.141 46.7555 159.652 46.8887C159.164 47.022 158.618 47.0886 158.016 47.0886C157.463 47.0886 156.917 47.0195 156.379 46.8813C155.846 46.7382 155.362 46.5211 154.928 46.2299C154.493 45.9339 154.145 45.5563 153.884 45.0974C153.627 44.6335 153.499 44.0833 153.499 43.4467H156.105C156.105 43.7626 156.147 44.029 156.231 44.2462C156.315 44.4633 156.439 44.6385 156.601 44.7717C156.764 44.9 156.964 44.9938 157.201 45.053C157.438 45.1073 157.71 45.1344 158.016 45.1344C158.347 45.1344 158.613 45.0875 158.816 44.9938C159.018 44.8951 159.166 44.7668 159.26 44.6089C159.354 44.446 159.401 44.2684 159.401 44.0759Z" fill="white"/>
<path d="M56.6366 53.1401H57.0054L58.6053 56.9526L60.2083 53.1401H60.574L58.7451 57.4701H58.4656L56.6366 53.1401ZM56.5236 53.1401H56.8478L56.8864 55.5787V57.4701H56.5236V53.1401ZM60.3688 53.1401H60.693V57.4701H60.3272V55.5787L60.3688 53.1401Z" fill="white"/>
<path d="M61.2093 55.9118V55.8136C61.2093 55.5797 61.243 55.3636 61.3104 55.1653C61.3778 54.9671 61.4739 54.7956 61.5988 54.6509C61.7257 54.5061 61.8774 54.3941 62.0538 54.3148C62.2303 54.2335 62.4266 54.1929 62.6427 54.1929C62.8608 54.1929 63.058 54.2335 63.2345 54.3148C63.4109 54.3941 63.5626 54.5061 63.6895 54.6509C63.8164 54.7956 63.9135 54.9671 63.9809 55.1653C64.0483 55.3636 64.082 55.5797 64.082 55.8136V55.9118C64.082 56.1457 64.0483 56.3618 63.9809 56.5601C63.9135 56.7564 63.8164 56.9269 63.6895 57.0716C63.5646 57.2163 63.4139 57.3293 63.2374 57.4106C63.061 57.4899 62.8647 57.5296 62.6486 57.5296C62.4305 57.5296 62.2333 57.4899 62.0568 57.4106C61.8804 57.3293 61.7287 57.2163 61.6018 57.0716C61.4749 56.9269 61.3778 56.7564 61.3104 56.5601C61.243 56.3618 61.2093 56.1457 61.2093 55.9118ZM61.5632 55.8136V55.9118C61.5632 56.0882 61.5869 56.2558 61.6345 56.4144C61.6821 56.571 61.7515 56.7108 61.8427 56.8337C61.9339 56.9546 62.0469 57.0498 62.1817 57.1192C62.3165 57.1886 62.4722 57.2233 62.6486 57.2233C62.8231 57.2233 62.9767 57.1886 63.1096 57.1192C63.2444 57.0498 63.3574 56.9546 63.4486 56.8337C63.5398 56.7108 63.6082 56.571 63.6538 56.4144C63.7014 56.2558 63.7252 56.0882 63.7252 55.9118V55.8136C63.7252 55.6392 63.7014 55.4736 63.6538 55.317C63.6082 55.1604 63.5388 55.0206 63.4456 54.8977C63.3544 54.7748 63.2414 54.6776 63.1066 54.6063C62.9718 54.5349 62.8171 54.4992 62.6427 54.4992C62.4682 54.4992 62.3136 54.5349 62.1787 54.6063C62.0459 54.6776 61.9329 54.7748 61.8397 54.8977C61.7485 55.0206 61.6791 55.1604 61.6316 55.317C61.586 55.4736 61.5632 55.6392 61.5632 55.8136Z" fill="white"/>
<path d="M66.5759 56.7266V54.2524H66.9328V57.4701H66.5908L66.5759 56.7266ZM66.6413 56.1319L66.8257 56.1259C66.8257 56.3281 66.8019 56.5145 66.7544 56.685C66.7068 56.8555 66.6324 57.0042 66.5313 57.1311C66.4302 57.258 66.2993 57.3561 66.1388 57.4255C65.9782 57.4949 65.7849 57.5296 65.5589 57.5296C65.4022 57.5296 65.2585 57.5078 65.1276 57.4641C64.9988 57.4185 64.8877 57.3472 64.7946 57.25C64.7014 57.1529 64.629 57.027 64.5775 56.8723C64.5279 56.7177 64.5031 56.5304 64.5031 56.3103V54.2524H64.857V56.3162C64.857 56.4887 64.8759 56.6325 64.9135 56.7474C64.9532 56.8624 65.0067 56.9546 65.0741 57.024C65.1435 57.0934 65.2228 57.143 65.312 57.1727C65.4012 57.2024 65.4974 57.2173 65.6005 57.2173C65.8622 57.2173 66.0684 57.1668 66.2191 57.0656C66.3717 56.9645 66.4798 56.8317 66.5432 56.6672C66.6086 56.5006 66.6413 56.3222 66.6413 56.1319Z" fill="white"/>
<path d="M67.9546 52.9022V57.4701H67.6007V52.9022H67.9546Z" fill="white"/>
<path d="M70.7132 56.8456V52.9022H71.07V57.4701H70.737L70.7132 56.8456ZM68.4798 55.8939V55.8315C68.4798 55.5817 68.5085 55.3567 68.566 55.1564C68.6235 54.9542 68.7058 54.7817 68.8129 54.639C68.9219 54.4942 69.0528 54.3842 69.2054 54.3089C69.3581 54.2315 69.5306 54.1929 69.7229 54.1929C69.9112 54.1929 70.0778 54.2236 70.2225 54.2851C70.3672 54.3465 70.4911 54.4348 70.5942 54.5497C70.6993 54.6647 70.7836 54.8015 70.847 54.9601C70.9124 55.1188 70.96 55.2952 70.9897 55.4895V56.2835C70.966 56.4659 70.9223 56.6334 70.8589 56.7861C70.7955 56.9368 70.7112 57.0686 70.6061 57.1816C70.501 57.2927 70.3742 57.3789 70.2255 57.4404C70.0788 57.4998 69.9092 57.5296 69.7169 57.5296C69.5266 57.5296 69.3551 57.4899 69.2024 57.4106C69.0498 57.3313 68.9199 57.2193 68.8129 57.0746C68.7058 56.9279 68.6235 56.7544 68.566 56.5541C68.5085 56.3539 68.4798 56.1338 68.4798 55.8939ZM68.8367 55.8315V55.8939C68.8367 56.0823 68.8555 56.2568 68.8932 56.4173C68.9308 56.5779 68.9883 56.7177 69.0656 56.8367C69.143 56.9556 69.2411 57.0488 69.3601 57.1162C69.479 57.1836 69.6198 57.2173 69.7824 57.2173C69.9866 57.2173 70.1581 57.1787 70.2968 57.1013C70.4356 57.022 70.5466 56.9179 70.6299 56.7891C70.7132 56.6582 70.7736 56.5155 70.8113 56.3608V55.436C70.7875 55.3309 70.7528 55.2238 70.7072 55.1148C70.6616 55.0057 70.5992 54.9056 70.5199 54.8144C70.4426 54.7212 70.3434 54.6469 70.2225 54.5914C70.1035 54.5339 69.9588 54.5051 69.7883 54.5051C69.6237 54.5051 69.482 54.5388 69.363 54.6063C69.2441 54.6737 69.145 54.7678 69.0656 54.8888C68.9883 55.0077 68.9308 55.1475 68.8932 55.3081C68.8555 55.4687 68.8367 55.6431 68.8367 55.8315Z" fill="white"/>
<path d="M74.3895 53.3989L72.8907 57.4701H72.51L74.1456 53.1401H74.4103L74.3895 53.3989ZM75.7515 57.4701L74.2497 53.3989L74.2289 53.1401H74.4936L76.1322 57.4701H75.7515ZM75.4839 55.9415V56.2568H73.1851V55.9415H75.4839Z" fill="white"/>
<path d="M76.7406 54.9393V57.4701H76.3867V54.2524H76.7258L76.7406 54.9393ZM76.6603 55.662L76.5027 55.5728C76.5146 55.3824 76.5533 55.204 76.6187 55.0375C76.6841 54.8709 76.7724 54.7242 76.8834 54.5973C76.9964 54.4704 77.1282 54.3713 77.2789 54.2999C77.4316 54.2286 77.6001 54.1929 77.7845 54.1929C77.9451 54.1929 78.0888 54.2147 78.2157 54.2583C78.3426 54.3019 78.4506 54.3713 78.5398 54.4665C78.629 54.5616 78.6965 54.6836 78.7421 54.8323C78.7896 54.981 78.8134 55.1624 78.8134 55.3765V57.4701H78.4566V55.3735C78.4566 55.1515 78.4258 54.978 78.3644 54.8531C78.3029 54.7262 78.2157 54.636 78.1027 54.5825C77.9897 54.5289 77.8558 54.5022 77.7012 54.5022C77.5307 54.5022 77.381 54.5398 77.2521 54.6152C77.1253 54.6885 77.0182 54.7847 76.931 54.9036C76.8457 55.0206 76.7803 55.1465 76.7347 55.2813C76.6891 55.4142 76.6643 55.541 76.6603 55.662Z" fill="white"/>
<path d="M81.5214 56.8456V52.9022H81.8783V57.4701H81.5452L81.5214 56.8456ZM79.2881 55.8939V55.8315C79.2881 55.5817 79.3168 55.3567 79.3743 55.1564C79.4318 54.9542 79.5141 54.7817 79.6211 54.639C79.7302 54.4942 79.861 54.3842 80.0137 54.3089C80.1663 54.2315 80.3388 54.1929 80.5311 54.1929C80.7195 54.1929 80.886 54.2236 81.0307 54.2851C81.1755 54.3465 81.2994 54.4348 81.4025 54.5497C81.5076 54.6647 81.5918 54.8015 81.6553 54.9601C81.7207 55.1188 81.7683 55.2952 81.798 55.4895V56.2835C81.7742 56.4659 81.7306 56.6334 81.6672 56.7861C81.6037 56.9368 81.5195 57.0686 81.4144 57.1816C81.3093 57.2927 81.1824 57.3789 81.0337 57.4404C80.887 57.4998 80.7175 57.5296 80.5252 57.5296C80.3349 57.5296 80.1634 57.4899 80.0107 57.4106C79.858 57.3313 79.7282 57.2193 79.6211 57.0746C79.5141 56.9279 79.4318 56.7544 79.3743 56.5541C79.3168 56.3539 79.2881 56.1338 79.2881 55.8939ZM79.6449 55.8315V55.8939C79.6449 56.0823 79.6638 56.2568 79.7014 56.4173C79.7391 56.5779 79.7966 56.7177 79.8739 56.8367C79.9512 56.9556 80.0494 57.0488 80.1683 57.1162C80.2873 57.1836 80.428 57.2173 80.5906 57.2173C80.7948 57.2173 80.9663 57.1787 81.1051 57.1013C81.2439 57.022 81.3549 56.9179 81.4382 56.7891C81.5214 56.6582 81.5819 56.5155 81.6196 56.3608V55.436C81.5958 55.3309 81.5611 55.2238 81.5155 55.1148C81.4699 55.0057 81.4074 54.9056 81.3281 54.8144C81.2508 54.7212 81.1517 54.6469 81.0307 54.5914C80.9118 54.5339 80.7671 54.5051 80.5966 54.5051C80.432 54.5051 80.2903 54.5388 80.1713 54.6063C80.0523 54.6737 79.9532 54.7678 79.8739 54.8888C79.7966 55.0077 79.7391 55.1475 79.7014 55.3081C79.6638 55.4687 79.6449 55.6431 79.6449 55.8315Z" fill="white"/>
<path d="M83.8892 53.1401H84.258L85.8579 56.9526L87.4609 53.1401H87.8267L85.9977 57.4701H85.7182L83.8892 53.1401ZM83.7762 53.1401H84.1004L84.139 55.5787V57.4701H83.7762V53.1401ZM87.6215 53.1401H87.9456V57.4701H87.5798V55.5787L87.6215 53.1401Z" fill="white"/>
<path d="M88.4619 55.9118V55.8136C88.4619 55.5797 88.4956 55.3636 88.563 55.1653C88.6304 54.9671 88.7265 54.7956 88.8514 54.6509C88.9783 54.5061 89.13 54.3941 89.3065 54.3148C89.4829 54.2335 89.6792 54.1929 89.8953 54.1929C90.1134 54.1929 90.3106 54.2335 90.4871 54.3148C90.6635 54.3941 90.8152 54.5061 90.9421 54.6509C91.069 54.7956 91.1661 54.9671 91.2335 55.1653C91.3009 55.3636 91.3346 55.5797 91.3346 55.8136V55.9118C91.3346 56.1457 91.3009 56.3618 91.2335 56.5601C91.1661 56.7564 91.069 56.9269 90.9421 57.0716C90.8172 57.2163 90.6665 57.3293 90.4901 57.4106C90.3136 57.4899 90.1173 57.5296 89.9012 57.5296C89.6831 57.5296 89.4859 57.4899 89.3094 57.4106C89.133 57.3293 88.9813 57.2163 88.8544 57.0716C88.7275 56.9269 88.6304 56.7564 88.563 56.5601C88.4956 56.3618 88.4619 56.1457 88.4619 55.9118ZM88.8158 55.8136V55.9118C88.8158 56.0882 88.8396 56.2558 88.8871 56.4144C88.9347 56.571 89.0041 56.7108 89.0953 56.8337C89.1865 56.9546 89.2995 57.0498 89.4343 57.1192C89.5691 57.1886 89.7248 57.2233 89.9012 57.2233C90.0757 57.2233 90.2293 57.1886 90.3622 57.1192C90.497 57.0498 90.61 56.9546 90.7012 56.8337C90.7924 56.7108 90.8608 56.571 90.9064 56.4144C90.954 56.2558 90.9778 56.0882 90.9778 55.9118V55.8136C90.9778 55.6392 90.954 55.4736 90.9064 55.317C90.8608 55.1604 90.7914 55.0206 90.6982 54.8977C90.607 54.7748 90.494 54.6776 90.3592 54.6063C90.2244 54.5349 90.0697 54.4992 89.8953 54.4992C89.7208 54.4992 89.5662 54.5349 89.4314 54.6063C89.2985 54.6776 89.1855 54.7748 89.0923 54.8977C89.0011 55.0206 88.9317 55.1604 88.8842 55.317C88.8386 55.4736 88.8158 55.6392 88.8158 55.8136Z" fill="white"/>
<path d="M92.1632 54.2524V57.4701H91.8093V54.2524H92.1632ZM91.7468 53.3215C91.7468 53.2541 91.7676 53.1976 91.8093 53.152C91.8529 53.1044 91.9124 53.0807 91.9877 53.0807C92.063 53.0807 92.1225 53.1044 92.1661 53.152C92.2117 53.1976 92.2345 53.2541 92.2345 53.3215C92.2345 53.387 92.2117 53.4435 92.1661 53.491C92.1225 53.5366 92.063 53.5594 91.9877 53.5594C91.9124 53.5594 91.8529 53.5366 91.8093 53.491C91.7676 53.4435 91.7468 53.387 91.7468 53.3215Z" fill="white"/>
<path d="M94.7582 56.6493C94.7582 56.5621 94.7364 56.4758 94.6927 56.3906C94.6491 56.3053 94.5649 56.227 94.44 56.1556C94.317 56.0843 94.1356 56.0238 93.8957 55.9742C93.7173 55.9346 93.5577 55.89 93.4169 55.8404C93.2782 55.7908 93.1612 55.7314 93.066 55.662C92.9709 55.5926 92.8985 55.5093 92.8489 55.4122C92.7994 55.315 92.7746 55.2 92.7746 55.0672C92.7746 54.9482 92.8004 54.8362 92.8519 54.7312C92.9054 54.6241 92.9808 54.5309 93.0779 54.4516C93.1771 54.3703 93.296 54.3069 93.4348 54.2613C93.5756 54.2157 93.7332 54.1929 93.9076 54.1929C94.1555 54.1929 94.3676 54.2355 94.544 54.3208C94.7225 54.404 94.8583 54.518 94.9515 54.6628C95.0466 54.8075 95.0942 54.971 95.0942 55.1534H94.7403C94.7403 55.0424 94.7076 54.9373 94.6422 54.8382C94.5787 54.7391 94.4846 54.6578 94.3597 54.5944C94.2367 54.5309 94.0861 54.4992 93.9076 54.4992C93.7233 54.4992 93.5736 54.5269 93.4586 54.5825C93.3436 54.638 93.2593 54.7084 93.2058 54.7936C93.1543 54.8789 93.1285 54.9671 93.1285 55.0583C93.1285 55.1297 93.1394 55.1951 93.1612 55.2546C93.185 55.3121 93.2266 55.3656 93.2861 55.4151C93.3476 55.4647 93.4348 55.5113 93.5478 55.5549C93.6608 55.5985 93.8075 55.6412 93.9879 55.6828C94.2476 55.7403 94.4598 55.8107 94.6243 55.8939C94.7909 55.9752 94.9138 56.0763 94.9931 56.1973C95.0724 56.3162 95.1121 56.461 95.1121 56.6315C95.1121 56.7643 95.0843 56.8862 95.0288 56.9973C94.9733 57.1063 94.893 57.2005 94.7879 57.2798C94.6848 57.3591 94.5599 57.4205 94.4132 57.4641C94.2685 57.5078 94.1059 57.5296 93.9255 57.5296C93.6539 57.5296 93.4239 57.485 93.2355 57.3958C93.0492 57.3046 92.9074 57.1856 92.8103 57.0389C92.7151 56.8902 92.6675 56.7326 92.6675 56.566H93.0214C93.0333 56.7326 93.0859 56.8644 93.179 56.9616C93.2722 57.0567 93.3862 57.1241 93.521 57.1638C93.6578 57.2034 93.7926 57.2233 93.9255 57.2233C94.1079 57.2233 94.2605 57.1965 94.3835 57.143C94.5064 57.0894 94.5996 57.0191 94.663 56.9318C94.7264 56.8446 94.7582 56.7504 94.7582 56.6493Z" fill="white"/>
<path d="M96.8298 54.2524V54.5438H95.2179V54.2524H96.8298ZM95.8097 53.4256H96.1636V56.688C96.1636 56.8367 96.1834 56.9487 96.2231 57.024C96.2627 57.0994 96.3143 57.1499 96.3777 57.1757C96.4412 57.2015 96.5096 57.2143 96.5829 57.2143C96.6365 57.2143 96.688 57.2114 96.7376 57.2054C96.7871 57.1975 96.8318 57.1896 96.8714 57.1816L96.8863 57.482C96.8427 57.4959 96.7862 57.5068 96.7168 57.5147C96.6474 57.5246 96.578 57.5296 96.5086 57.5296C96.3718 57.5296 96.2509 57.5048 96.1458 57.4552C96.0407 57.4037 95.9584 57.3164 95.8989 57.1935C95.8395 57.0686 95.8097 56.8991 95.8097 56.685V53.4256Z" fill="white"/>
<path d="M99.3326 56.7266V54.2524H99.6894V57.4701H99.3475L99.3326 56.7266ZM99.398 56.1319L99.5824 56.1259C99.5824 56.3281 99.5586 56.5145 99.511 56.685C99.4634 56.8555 99.3891 57.0042 99.288 57.1311C99.1869 57.258 99.056 57.3561 98.8954 57.4255C98.7348 57.4949 98.5415 57.5296 98.3155 57.5296C98.1589 57.5296 98.0152 57.5078 97.8843 57.4641C97.7554 57.4185 97.6444 57.3472 97.5512 57.25C97.458 57.1529 97.3857 57.027 97.3341 56.8723C97.2846 56.7177 97.2598 56.5304 97.2598 56.3103V54.2524H97.6137V56.3162C97.6137 56.4887 97.6325 56.6325 97.6702 56.7474C97.7098 56.8624 97.7634 56.9546 97.8308 57.024C97.9002 57.0934 97.9795 57.143 98.0687 57.1727C98.1579 57.2024 98.2541 57.2173 98.3572 57.2173C98.6189 57.2173 98.825 57.1668 98.9757 57.0656C99.1284 56.9645 99.2364 56.8317 99.2999 56.6672C99.3653 56.5006 99.398 56.3222 99.398 56.1319Z" fill="white"/>
<path d="M100.67 54.7847V57.4701H100.316V54.2524H100.661L100.67 54.7847ZM101.809 54.2286L101.8 54.5557C101.76 54.5497 101.721 54.5448 101.684 54.5408C101.646 54.5369 101.605 54.5349 101.562 54.5349C101.407 54.5349 101.271 54.5636 101.154 54.6211C101.039 54.6766 100.942 54.7549 100.863 54.8561C100.784 54.9552 100.723 55.0722 100.682 55.207C100.64 55.3398 100.616 55.4826 100.61 55.6352L100.479 55.6858C100.479 55.4756 100.501 55.2803 100.545 55.0999C100.588 54.9195 100.655 54.7619 100.744 54.6271C100.835 54.4903 100.949 54.3842 101.086 54.3089C101.225 54.2315 101.387 54.1929 101.574 54.1929C101.619 54.1929 101.664 54.1968 101.708 54.2048C101.753 54.2107 101.787 54.2187 101.809 54.2286Z" fill="white"/>
<path d="M103.247 57.5296C103.037 57.5296 102.843 57.4909 102.667 57.4136C102.492 57.3363 102.34 57.2272 102.209 57.0865C102.08 56.9457 101.98 56.7792 101.909 56.5869C101.839 56.3926 101.804 56.1804 101.804 55.9504V55.8226C101.804 55.5747 101.841 55.3507 101.915 55.1505C101.988 54.9502 102.089 54.7787 102.218 54.636C102.347 54.4932 102.493 54.3842 102.658 54.3089C102.825 54.2315 102.999 54.1929 103.181 54.1929C103.386 54.1929 103.567 54.2296 103.726 54.3029C103.884 54.3743 104.017 54.4764 104.124 54.6092C104.233 54.7401 104.315 54.8957 104.371 55.0761C104.426 55.2546 104.454 55.4518 104.454 55.6679V55.885H102.019V55.5817H104.1V55.5401C104.096 55.3596 104.06 55.1911 103.99 55.0345C103.923 54.8759 103.822 54.747 103.687 54.6479C103.552 54.5488 103.384 54.4992 103.181 54.4992C103.031 54.4992 102.892 54.5309 102.765 54.5944C102.64 54.6578 102.532 54.749 102.441 54.868C102.352 54.9849 102.282 55.1247 102.233 55.2873C102.185 55.4479 102.161 55.6263 102.161 55.8226V55.9504C102.161 56.1289 102.187 56.2954 102.239 56.4501C102.292 56.6027 102.368 56.7375 102.465 56.8545C102.564 56.9715 102.681 57.0627 102.816 57.1281C102.95 57.1935 103.099 57.2262 103.262 57.2262C103.452 57.2262 103.621 57.1915 103.767 57.1222C103.914 57.0508 104.046 56.9388 104.163 56.7861L104.386 56.9586C104.316 57.0617 104.229 57.1568 104.124 57.2441C104.021 57.3313 103.897 57.4007 103.752 57.4523C103.608 57.5038 103.439 57.5296 103.247 57.5296Z" fill="white"/>
<path d="M107.301 57.4701H106.319L106.325 57.1578H107.301C107.612 57.1578 107.88 57.0884 108.104 56.9497C108.33 56.8089 108.504 56.6146 108.627 56.3668C108.75 56.119 108.812 55.8315 108.812 55.5044V55.0999C108.812 54.8501 108.776 54.6241 108.704 54.4219C108.635 54.2196 108.535 54.0472 108.404 53.9044C108.273 53.7597 108.117 53.6487 107.934 53.5713C107.754 53.494 107.552 53.4554 107.328 53.4554H106.302V53.1401H107.328C107.597 53.1401 107.844 53.1867 108.068 53.2799C108.294 53.3711 108.489 53.5039 108.654 53.6784C108.82 53.8509 108.948 54.0581 109.038 54.2999C109.129 54.5418 109.174 54.8115 109.174 55.1088V55.5044C109.174 55.8018 109.129 56.0714 109.038 56.3133C108.948 56.5551 108.82 56.7623 108.654 56.9348C108.487 57.1073 108.29 57.2401 108.062 57.3333C107.834 57.4245 107.58 57.4701 107.301 57.4701ZM106.483 53.1401V57.4701H106.117V53.1401H106.483Z" fill="white"/>
<path d="M111.677 56.8932V55.2337C111.677 55.0811 111.645 54.9492 111.582 54.8382C111.519 54.7272 111.425 54.6419 111.302 54.5825C111.18 54.523 111.028 54.4932 110.847 54.4932C110.681 54.4932 110.532 54.523 110.401 54.5825C110.272 54.64 110.17 54.7183 110.095 54.8174C110.022 54.9145 109.985 55.0226 109.985 55.1416L109.628 55.1386C109.628 55.0176 109.658 54.9007 109.717 54.7877C109.777 54.6747 109.861 54.5735 109.97 54.4843C110.079 54.3951 110.209 54.3247 110.36 54.2732C110.512 54.2196 110.68 54.1929 110.862 54.1929C111.092 54.1929 111.295 54.2315 111.469 54.3089C111.645 54.3862 111.783 54.5022 111.882 54.6568C111.981 54.8115 112.031 55.0057 112.031 55.2397V56.795C112.031 56.9061 112.039 57.021 112.055 57.14C112.073 57.259 112.097 57.3571 112.129 57.4344V57.4701H111.751C111.728 57.3987 111.709 57.3095 111.695 57.2024C111.683 57.0934 111.677 56.9903 111.677 56.8932ZM111.76 55.5966L111.766 55.8702H111.068C110.885 55.8702 110.722 55.887 110.577 55.9207C110.434 55.9524 110.313 56 110.214 56.0635C110.115 56.1249 110.039 56.1993 109.985 56.2865C109.933 56.3737 109.908 56.4729 109.908 56.5839C109.908 56.6989 109.936 56.8039 109.994 56.8991C110.053 56.9943 110.137 57.0706 110.244 57.1281C110.353 57.1836 110.482 57.2114 110.63 57.2114C110.829 57.2114 111.003 57.1747 111.154 57.1013C111.306 57.028 111.432 56.9318 111.531 56.8129C111.631 56.6939 111.697 56.5641 111.731 56.4233L111.885 56.6285C111.86 56.7276 111.812 56.8297 111.743 56.9348C111.675 57.0379 111.587 57.135 111.478 57.2262C111.369 57.3155 111.24 57.3888 111.091 57.4463C110.945 57.5018 110.778 57.5296 110.592 57.5296C110.382 57.5296 110.198 57.4899 110.042 57.4106C109.887 57.3313 109.766 57.2233 109.679 57.0865C109.593 56.9477 109.551 56.7911 109.551 56.6166C109.551 56.458 109.585 56.3162 109.652 56.1913C109.719 56.0644 109.816 55.9574 109.943 55.8702C110.072 55.7809 110.227 55.7135 110.407 55.6679C110.59 55.6203 110.794 55.5966 111.02 55.5966H111.76Z" fill="white"/>
<path d="M113.017 54.9185V57.4701H112.66V54.2524H113.002L113.017 54.9185ZM112.952 55.662L112.779 55.5728C112.791 55.3824 112.827 55.204 112.886 55.0375C112.948 54.8709 113.033 54.7242 113.142 54.5973C113.251 54.4704 113.382 54.3713 113.535 54.2999C113.687 54.2286 113.861 54.1929 114.055 54.1929C114.212 54.1929 114.353 54.2147 114.48 54.2583C114.609 54.2999 114.718 54.3664 114.807 54.4576C114.899 54.5468 114.969 54.6637 115.019 54.8085C115.068 54.9532 115.093 55.1267 115.093 55.3289V57.4701H114.739V55.3408C114.739 55.1267 114.705 54.9592 114.638 54.8382C114.573 54.7173 114.48 54.631 114.361 54.5795C114.244 54.5279 114.109 54.5022 113.954 54.5022C113.772 54.5022 113.617 54.5398 113.49 54.6152C113.365 54.6885 113.263 54.7847 113.184 54.9036C113.106 55.0206 113.049 55.1465 113.011 55.2813C112.974 55.4142 112.954 55.541 112.952 55.662ZM115.09 55.3824L114.852 55.3884C114.862 55.2318 114.898 55.0821 114.959 54.9393C115.023 54.7966 115.109 54.6697 115.218 54.5587C115.327 54.4457 115.457 54.3564 115.607 54.291C115.76 54.2256 115.932 54.1929 116.122 54.1929C116.288 54.1929 116.437 54.2157 116.568 54.2613C116.699 54.3049 116.809 54.3753 116.898 54.4724C116.989 54.5676 117.059 54.6895 117.106 54.8382C117.154 54.9869 117.178 55.1653 117.178 55.3735V57.4701H116.821V55.3705C116.821 55.1425 116.787 54.9661 116.72 54.8412C116.654 54.7143 116.563 54.6261 116.446 54.5765C116.329 54.5269 116.192 54.5022 116.036 54.5022C115.881 54.5042 115.745 54.5329 115.628 54.5884C115.511 54.6419 115.413 54.7133 115.334 54.8025C115.257 54.8898 115.197 54.9839 115.155 55.085C115.116 55.1862 115.094 55.2853 115.09 55.3824Z" fill="white"/>
<path d="M119.734 56.8932V55.2337C119.734 55.0811 119.702 54.9492 119.639 54.8382C119.575 54.7272 119.482 54.6419 119.359 54.5825C119.236 54.523 119.085 54.4932 118.904 54.4932C118.738 54.4932 118.589 54.523 118.458 54.5825C118.329 54.64 118.227 54.7183 118.152 54.8174C118.079 54.9145 118.042 55.0226 118.042 55.1416L117.685 55.1386C117.685 55.0176 117.715 54.9007 117.774 54.7877C117.834 54.6747 117.918 54.5735 118.027 54.4843C118.136 54.3951 118.266 54.3247 118.417 54.2732C118.569 54.2196 118.737 54.1929 118.919 54.1929C119.149 54.1929 119.351 54.2315 119.526 54.3089C119.702 54.3862 119.84 54.5022 119.939 54.6568C120.038 54.8115 120.088 55.0057 120.088 55.2397V56.795C120.088 56.9061 120.096 57.021 120.112 57.14C120.13 57.259 120.154 57.3571 120.186 57.4344V57.4701H119.808C119.785 57.3987 119.766 57.3095 119.752 57.2024C119.74 57.0934 119.734 56.9903 119.734 56.8932ZM119.817 55.5966L119.823 55.8702H119.124C118.942 55.8702 118.778 55.887 118.634 55.9207C118.491 55.9524 118.37 56 118.271 56.0635C118.172 56.1249 118.095 56.1993 118.042 56.2865C117.99 56.3737 117.965 56.4729 117.965 56.5839C117.965 56.6989 117.993 56.8039 118.051 56.8991C118.11 56.9943 118.194 57.0706 118.301 57.1281C118.41 57.1836 118.538 57.2114 118.687 57.2114C118.885 57.2114 119.06 57.1747 119.211 57.1013C119.363 57.028 119.489 56.9318 119.588 56.8129C119.687 56.6939 119.754 56.5641 119.788 56.4233L119.942 56.6285C119.916 56.7276 119.869 56.8297 119.799 56.9348C119.732 57.0379 119.644 57.135 119.535 57.2262C119.426 57.3155 119.297 57.3888 119.148 57.4463C119.001 57.5018 118.835 57.5296 118.649 57.5296C118.438 57.5296 118.255 57.4899 118.098 57.4106C117.944 57.3313 117.823 57.2233 117.736 57.0865C117.65 56.9477 117.608 56.7911 117.608 56.6166C117.608 56.458 117.641 56.3162 117.709 56.1913C117.776 56.0644 117.873 55.9574 118 55.8702C118.129 55.7809 118.284 55.7135 118.464 55.6679C118.647 55.6203 118.851 55.5966 119.077 55.5966H119.817Z" fill="white"/>
<path d="M122.855 54.2524H123.185V57.4136C123.185 57.6931 123.132 57.933 123.025 58.1333C122.92 58.3335 122.77 58.4872 122.576 58.5942C122.383 58.7013 122.156 58.7548 121.895 58.7548C121.762 58.7548 121.625 58.734 121.484 58.6924C121.346 58.6527 121.214 58.5912 121.089 58.508C120.966 58.4267 120.861 58.3256 120.774 58.2046L120.973 57.9876C121.104 58.1462 121.244 58.2621 121.392 58.3355C121.541 58.4108 121.701 58.4485 121.874 58.4485C122.078 58.4485 122.251 58.4079 122.391 58.3266C122.534 58.2453 122.642 58.1283 122.716 57.9757C122.791 57.823 122.829 57.6396 122.829 57.4255V54.9601L122.855 54.2524ZM120.595 55.8939V55.8315C120.595 55.5817 120.623 55.3567 120.678 55.1564C120.736 54.9542 120.818 54.7817 120.925 54.639C121.032 54.4942 121.162 54.3842 121.315 54.3089C121.47 54.2315 121.644 54.1929 121.838 54.1929C122.025 54.1929 122.19 54.2236 122.335 54.2851C122.48 54.3465 122.605 54.4348 122.71 54.5497C122.815 54.6647 122.899 54.8015 122.962 54.9601C123.028 55.1188 123.075 55.2952 123.105 55.4895V56.2835C123.081 56.4659 123.038 56.6334 122.974 56.7861C122.911 56.9368 122.827 57.0686 122.722 57.1816C122.616 57.2927 122.49 57.3789 122.341 57.4404C122.194 57.4998 122.025 57.5296 121.832 57.5296C121.64 57.5296 121.468 57.4899 121.315 57.4106C121.162 57.3313 121.032 57.2193 120.925 57.0746C120.818 56.9279 120.736 56.7544 120.678 56.5541C120.623 56.3539 120.595 56.1338 120.595 55.8939ZM120.952 55.8315V55.8939C120.952 56.0823 120.971 56.2568 121.009 56.4173C121.046 56.5779 121.104 56.7177 121.181 56.8367C121.258 56.9556 121.357 57.0488 121.475 57.1162C121.594 57.1836 121.734 57.2173 121.895 57.2173C122.099 57.2173 122.27 57.1787 122.409 57.1013C122.548 57.022 122.658 56.9179 122.739 56.7891C122.821 56.6582 122.88 56.5155 122.918 56.3608V55.436C122.896 55.3309 122.862 55.2238 122.817 55.1148C122.773 55.0057 122.712 54.9056 122.632 54.8144C122.555 54.7212 122.456 54.6469 122.335 54.5914C122.216 54.5339 122.071 54.5051 121.901 54.5051C121.738 54.5051 121.596 54.5388 121.475 54.6063C121.357 54.6737 121.258 54.7678 121.181 54.8888C121.104 55.0077 121.046 55.1475 121.009 55.3081C120.971 55.4687 120.952 55.6431 120.952 55.8315Z" fill="white"/>
<path d="M125.055 57.5296C124.845 57.5296 124.651 57.4909 124.475 57.4136C124.3 57.3363 124.148 57.2272 124.017 57.0865C123.888 56.9457 123.788 56.7792 123.717 56.5869C123.647 56.3926 123.613 56.1804 123.613 55.9504V55.8226C123.613 55.5747 123.649 55.3507 123.723 55.1505C123.796 54.9502 123.897 54.7787 124.026 54.636C124.155 54.4932 124.301 54.3842 124.466 54.3089C124.633 54.2315 124.807 54.1929 124.989 54.1929C125.194 54.1929 125.375 54.2296 125.534 54.3029C125.692 54.3743 125.825 54.4764 125.932 54.6092C126.041 54.7401 126.123 54.8957 126.179 55.0761C126.234 55.2546 126.262 55.4518 126.262 55.6679V55.885H123.827V55.5817H125.908V55.5401C125.904 55.3596 125.868 55.1911 125.798 55.0345C125.731 54.8759 125.63 54.747 125.495 54.6479C125.36 54.5488 125.192 54.4992 124.989 54.4992C124.839 54.4992 124.7 54.5309 124.573 54.5944C124.448 54.6578 124.34 54.749 124.249 54.868C124.16 54.9849 124.09 55.1247 124.041 55.2873C123.993 55.4479 123.969 55.6263 123.969 55.8226V55.9504C123.969 56.1289 123.995 56.2954 124.047 56.4501C124.1 56.6027 124.176 56.7375 124.273 56.8545C124.372 56.9715 124.489 57.0627 124.624 57.1281C124.758 57.1935 124.907 57.2262 125.07 57.2262C125.26 57.2262 125.429 57.1915 125.575 57.1222C125.722 57.0508 125.854 56.9388 125.971 56.7861L126.194 56.9586C126.124 57.0617 126.037 57.1568 125.932 57.2441C125.829 57.3313 125.705 57.4007 125.56 57.4523C125.416 57.5038 125.247 57.5296 125.055 57.5296Z" fill="white"/>
<path d="M130.376 56.4054C130.376 56.2865 130.356 56.1804 130.316 56.0872C130.277 55.9941 130.211 55.9108 130.12 55.8374C130.031 55.7621 129.91 55.6927 129.757 55.6293C129.606 55.5638 129.418 55.4994 129.192 55.436C128.976 55.3745 128.781 55.3071 128.606 55.2337C128.432 55.1604 128.282 55.0761 128.157 54.981C128.034 54.8858 127.94 54.7748 127.875 54.6479C127.809 54.519 127.777 54.3693 127.777 54.1988C127.777 54.0323 127.812 53.8806 127.884 53.7438C127.955 53.607 128.055 53.4891 128.184 53.3899C128.315 53.2908 128.468 53.2145 128.645 53.1609C128.823 53.1074 129.019 53.0807 129.231 53.0807C129.534 53.0807 129.796 53.1381 130.016 53.2531C130.238 53.3681 130.409 53.5238 130.53 53.72C130.653 53.9143 130.715 54.1324 130.715 54.3743H130.349C130.349 54.1859 130.304 54.0184 130.215 53.8717C130.128 53.723 130.001 53.607 129.834 53.5238C129.67 53.4385 129.469 53.3959 129.231 53.3959C128.993 53.3959 128.793 53.4326 128.63 53.5059C128.469 53.5773 128.348 53.6734 128.264 53.7944C128.183 53.9133 128.142 54.0462 128.142 54.1929C128.142 54.296 128.162 54.3911 128.202 54.4784C128.241 54.5636 128.306 54.6439 128.395 54.7193C128.486 54.7926 128.606 54.862 128.755 54.9274C128.904 54.9909 129.087 55.0513 129.305 55.1088C129.535 55.1723 129.739 55.2427 129.918 55.32C130.096 55.3973 130.247 55.4865 130.37 55.5876C130.493 55.6868 130.586 55.8027 130.649 55.9356C130.713 56.0684 130.744 56.2231 130.744 56.3995C130.744 56.576 130.707 56.7346 130.631 56.8753C130.558 57.0141 130.454 57.1321 130.319 57.2292C130.186 57.3264 130.029 57.4007 129.846 57.4523C129.666 57.5038 129.469 57.5296 129.255 57.5296C129.062 57.5296 128.871 57.5048 128.681 57.4552C128.49 57.4057 128.316 57.3293 128.157 57.2262C128.001 57.1212 127.875 56.9863 127.78 56.8218C127.686 56.6572 127.64 56.461 127.64 56.233H128.003C128.003 56.4154 128.039 56.569 128.113 56.6939C128.186 56.8188 128.283 56.9199 128.404 56.9973C128.527 57.0746 128.662 57.1311 128.808 57.1668C128.957 57.2005 129.106 57.2173 129.255 57.2173C129.483 57.2173 129.68 57.1836 129.846 57.1162C130.015 57.0488 130.145 56.9546 130.236 56.8337C130.329 56.7108 130.376 56.568 130.376 56.4054Z" fill="white"/>
<path d="M131.499 54.8709V58.7072H131.142V54.2524H131.475L131.499 54.8709ZM133.735 55.8315V55.8939C133.735 56.1338 133.707 56.3539 133.652 56.5541C133.596 56.7544 133.516 56.9279 133.411 57.0746C133.308 57.2193 133.18 57.3313 133.027 57.4106C132.875 57.4899 132.701 57.5296 132.507 57.5296C132.314 57.5296 132.143 57.4998 131.992 57.4404C131.842 57.3809 131.712 57.2966 131.603 57.1876C131.496 57.0766 131.409 56.9477 131.344 56.801C131.281 56.6523 131.236 56.4897 131.21 56.3133V55.4895C131.24 55.2952 131.288 55.1188 131.356 54.9601C131.423 54.8015 131.51 54.6647 131.615 54.5497C131.722 54.4348 131.849 54.3465 131.995 54.2851C132.142 54.2236 132.31 54.1929 132.498 54.1929C132.694 54.1929 132.869 54.2315 133.021 54.3089C133.176 54.3842 133.306 54.4942 133.411 54.639C133.518 54.7817 133.598 54.9542 133.652 55.1564C133.707 55.3567 133.735 55.5817 133.735 55.8315ZM133.378 55.8939V55.8315C133.378 55.6431 133.358 55.4687 133.319 55.3081C133.281 55.1475 133.222 55.0077 133.143 54.8888C133.066 54.7678 132.967 54.6737 132.846 54.6063C132.727 54.5388 132.585 54.5051 132.421 54.5051C132.25 54.5051 132.104 54.5339 131.983 54.5914C131.864 54.6469 131.765 54.7212 131.686 54.8144C131.607 54.9056 131.544 55.0057 131.499 55.1148C131.453 55.2238 131.419 55.3309 131.398 55.436V56.3846C131.435 56.5353 131.496 56.6751 131.579 56.8039C131.662 56.9308 131.773 57.0329 131.912 57.1103C132.053 57.1856 132.224 57.2233 132.426 57.2233C132.589 57.2233 132.73 57.1896 132.849 57.1222C132.968 57.0547 133.066 56.9606 133.143 56.8396C133.222 56.7187 133.281 56.5779 133.319 56.4173C133.358 56.2568 133.378 56.0823 133.378 55.8939Z" fill="white"/>
<path d="M135.465 57.5296C135.254 57.5296 135.061 57.4909 134.885 57.4136C134.71 57.3363 134.558 57.2272 134.427 57.0865C134.298 56.9457 134.198 56.7792 134.126 56.5869C134.057 56.3926 134.022 56.1804 134.022 55.9504V55.8226C134.022 55.5747 134.059 55.3507 134.132 55.1505C134.206 54.9502 134.307 54.7787 134.436 54.636C134.565 54.4932 134.711 54.3842 134.876 54.3089C135.042 54.2315 135.217 54.1929 135.399 54.1929C135.603 54.1929 135.785 54.2296 135.943 54.3029C136.102 54.3743 136.235 54.4764 136.342 54.6092C136.451 54.7401 136.533 54.8957 136.589 55.0761C136.644 55.2546 136.672 55.4518 136.672 55.6679V55.885H134.236V55.5817H136.318V55.5401C136.314 55.3596 136.277 55.1911 136.208 55.0345C136.141 54.8759 136.04 54.747 135.905 54.6479C135.77 54.5488 135.601 54.4992 135.399 54.4992C135.248 54.4992 135.11 54.5309 134.983 54.5944C134.858 54.6578 134.75 54.749 134.659 54.868C134.569 54.9849 134.5 55.1247 134.451 55.2873C134.403 55.4479 134.379 55.6263 134.379 55.8226V55.9504C134.379 56.1289 134.405 56.2954 134.456 56.4501C134.51 56.6027 134.585 56.7375 134.682 56.8545C134.782 56.9715 134.899 57.0627 135.033 57.1281C135.168 57.1935 135.317 57.2262 135.479 57.2262C135.67 57.2262 135.838 57.1915 135.985 57.1222C136.132 57.0508 136.264 56.9388 136.381 56.7861L136.604 56.9586C136.534 57.0617 136.447 57.1568 136.342 57.2441C136.239 57.3313 136.115 57.4007 135.97 57.4523C135.825 57.5038 135.657 57.5296 135.465 57.5296Z" fill="white"/>
<path d="M138.256 57.2233C138.407 57.2233 138.547 57.1955 138.678 57.14C138.811 57.0825 138.92 56.9982 139.005 56.8872C139.093 56.7742 139.142 56.6364 139.154 56.4738H139.493C139.483 56.6781 139.421 56.8605 139.306 57.021C139.193 57.1796 139.044 57.3046 138.86 57.3958C138.677 57.485 138.476 57.5296 138.256 57.5296C138.032 57.5296 137.834 57.4889 137.661 57.4076C137.491 57.3264 137.348 57.2134 137.233 57.0686C137.118 56.9219 137.031 56.7514 136.971 56.5571C136.914 56.3608 136.885 56.1497 136.885 55.9237V55.7988C136.885 55.5728 136.914 55.3626 136.971 55.1683C137.031 54.972 137.118 54.8015 137.233 54.6568C137.348 54.5101 137.491 54.3961 137.661 54.3148C137.832 54.2335 138.029 54.1929 138.253 54.1929C138.483 54.1929 138.689 54.2395 138.871 54.3327C139.056 54.4258 139.203 54.5577 139.312 54.7282C139.423 54.8987 139.483 55.1009 139.493 55.3349H139.154C139.144 55.1624 139.098 55.0137 139.017 54.8888C138.936 54.7639 138.829 54.6677 138.696 54.6003C138.563 54.5329 138.415 54.4992 138.253 54.4992C138.071 54.4992 137.915 54.5349 137.786 54.6063C137.657 54.6756 137.552 54.7718 137.471 54.8947C137.391 55.0157 137.333 55.1544 137.295 55.3111C137.258 55.4657 137.239 55.6283 137.239 55.7988V55.9237C137.239 56.0962 137.257 56.2607 137.292 56.4173C137.33 56.572 137.388 56.7098 137.468 56.8307C137.549 56.9517 137.654 57.0478 137.783 57.1192C137.914 57.1886 138.071 57.2233 138.256 57.2233Z" fill="white"/>
<path d="M140.301 54.2524V57.4701H139.947V54.2524H140.301ZM139.884 53.3215C139.884 53.2541 139.905 53.1976 139.947 53.152C139.99 53.1044 140.05 53.0807 140.125 53.0807C140.201 53.0807 140.26 53.1044 140.304 53.152C140.349 53.1976 140.372 53.2541 140.372 53.3215C140.372 53.387 140.349 53.4435 140.304 53.491C140.26 53.5366 140.201 53.5594 140.125 53.5594C140.05 53.5594 139.99 53.5366 139.947 53.491C139.905 53.4435 139.884 53.387 139.884 53.3215Z" fill="white"/>
<path d="M142.925 56.8932V55.2337C142.925 55.0811 142.894 54.9492 142.83 54.8382C142.767 54.7272 142.674 54.6419 142.551 54.5825C142.428 54.523 142.276 54.4932 142.096 54.4932C141.929 54.4932 141.781 54.523 141.65 54.5825C141.521 54.64 141.419 54.7183 141.343 54.8174C141.27 54.9145 141.233 55.0226 141.233 55.1416L140.876 55.1386C140.876 55.0176 140.906 54.9007 140.966 54.7877C141.025 54.6747 141.109 54.5735 141.218 54.4843C141.327 54.3951 141.457 54.3247 141.608 54.2732C141.761 54.2196 141.928 54.1929 142.111 54.1929C142.341 54.1929 142.543 54.2315 142.717 54.3089C142.894 54.3862 143.032 54.5022 143.131 54.6568C143.23 54.8115 143.279 55.0057 143.279 55.2397V56.795C143.279 56.9061 143.287 57.021 143.303 57.14C143.321 57.259 143.346 57.3571 143.377 57.4344V57.4701H143C142.976 57.3987 142.957 57.3095 142.943 57.2024C142.931 57.0934 142.925 56.9903 142.925 56.8932ZM143.009 55.5966L143.015 55.8702H142.316C142.133 55.8702 141.97 55.887 141.825 55.9207C141.682 55.9524 141.561 56 141.462 56.0635C141.363 56.1249 141.287 56.1993 141.233 56.2865C141.182 56.3737 141.156 56.4729 141.156 56.5839C141.156 56.6989 141.185 56.8039 141.242 56.8991C141.302 56.9943 141.385 57.0706 141.492 57.1281C141.601 57.1836 141.73 57.2114 141.879 57.2114C142.077 57.2114 142.251 57.1747 142.402 57.1013C142.555 57.028 142.681 56.9318 142.78 56.8129C142.879 56.6939 142.945 56.5641 142.979 56.4233L143.134 56.6285C143.108 56.7276 143.06 56.8297 142.991 56.9348C142.923 57.0379 142.835 57.135 142.726 57.2262C142.617 57.3155 142.488 57.3888 142.34 57.4463C142.193 57.5018 142.026 57.5296 141.84 57.5296C141.63 57.5296 141.446 57.4899 141.29 57.4106C141.135 57.3313 141.014 57.2233 140.927 57.0865C140.842 56.9477 140.799 56.7911 140.799 56.6166C140.799 56.458 140.833 56.3162 140.9 56.1913C140.968 56.0644 141.065 55.9574 141.192 55.8702C141.321 55.7809 141.475 55.7135 141.656 55.6679C141.838 55.6203 142.042 55.5966 142.268 55.5966H143.009Z" fill="white"/>
<path d="M144.325 52.9022V57.4701H143.971V52.9022H144.325Z" fill="white"/>
<path d="M145.388 54.2524V57.4701H145.035V54.2524H145.388ZM144.972 53.3215C144.972 53.2541 144.993 53.1976 145.035 53.152C145.078 53.1044 145.138 53.0807 145.213 53.0807C145.288 53.0807 145.348 53.1044 145.391 53.152C145.437 53.1976 145.46 53.2541 145.46 53.3215C145.46 53.387 145.437 53.4435 145.391 53.491C145.348 53.5366 145.288 53.5594 145.213 53.5594C145.138 53.5594 145.078 53.5366 145.035 53.491C144.993 53.4435 144.972 53.387 144.972 53.3215Z" fill="white"/>
<path d="M147.983 56.6493C147.983 56.5621 147.962 56.4758 147.918 56.3906C147.874 56.3053 147.79 56.227 147.665 56.1556C147.542 56.0843 147.361 56.0238 147.121 55.9742C146.943 55.9346 146.783 55.89 146.642 55.8404C146.503 55.7908 146.386 55.7314 146.291 55.662C146.196 55.5926 146.124 55.5093 146.074 55.4122C146.025 55.315 146 55.2 146 55.0672C146 54.9482 146.026 54.8362 146.077 54.7312C146.131 54.6241 146.206 54.5309 146.303 54.4516C146.402 54.3703 146.521 54.3069 146.66 54.2613C146.801 54.2157 146.958 54.1929 147.133 54.1929C147.381 54.1929 147.593 54.2355 147.769 54.3208C147.948 54.404 148.084 54.518 148.177 54.6628C148.272 54.8075 148.319 54.971 148.319 55.1534H147.966C147.966 55.0424 147.933 54.9373 147.867 54.8382C147.804 54.7391 147.71 54.6578 147.585 54.5944C147.462 54.5309 147.311 54.4992 147.133 54.4992C146.949 54.4992 146.799 54.5269 146.684 54.5825C146.569 54.638 146.485 54.7084 146.431 54.7936C146.38 54.8789 146.354 54.9671 146.354 55.0583C146.354 55.1297 146.365 55.1951 146.386 55.2546C146.41 55.3121 146.452 55.3656 146.511 55.4151C146.573 55.4647 146.66 55.5113 146.773 55.5549C146.886 55.5985 147.033 55.6412 147.213 55.6828C147.473 55.7403 147.685 55.8107 147.85 55.8939C148.016 55.9752 148.139 56.0763 148.218 56.1973C148.298 56.3162 148.337 56.461 148.337 56.6315C148.337 56.7643 148.31 56.8862 148.254 56.9973C148.199 57.1063 148.118 57.2005 148.013 57.2798C147.91 57.3591 147.785 57.4205 147.638 57.4641C147.494 57.5078 147.331 57.5296 147.151 57.5296C146.879 57.5296 146.649 57.485 146.461 57.3958C146.274 57.3046 146.133 57.1856 146.036 57.0389C145.94 56.8902 145.893 56.7326 145.893 56.566H146.247C146.259 56.7326 146.311 56.8644 146.404 56.9616C146.497 57.0567 146.611 57.1241 146.746 57.1638C146.883 57.2034 147.018 57.2233 147.151 57.2233C147.333 57.2233 147.486 57.1965 147.609 57.143C147.732 57.0894 147.825 57.0191 147.888 56.9318C147.952 56.8446 147.983 56.7504 147.983 56.6493Z" fill="white"/>
<path d="M150.055 54.2524V54.5438H148.443V54.2524H150.055ZM149.035 53.4256H149.389V56.688C149.389 56.8367 149.409 56.9487 149.448 57.024C149.488 57.0994 149.54 57.1499 149.603 57.1757C149.666 57.2015 149.735 57.2143 149.808 57.2143C149.862 57.2143 149.913 57.2114 149.963 57.2054C150.012 57.1975 150.057 57.1896 150.097 57.1816L150.112 57.482C150.068 57.4959 150.011 57.5068 149.942 57.5147C149.873 57.5246 149.803 57.5296 149.734 57.5296C149.597 57.5296 149.476 57.5048 149.371 57.4552C149.266 57.4037 149.184 57.3164 149.124 57.1935C149.065 57.0686 149.035 56.8991 149.035 56.685V53.4256Z" fill="white"/>
</svg>
