<svg width="22" height="22" viewBox="0 0 22 22" fill="none" xmlns="http://www.w3.org/2000/svg">
<path d="M9.20114 4.87312L9.79607 5.93913C10.333 6.90116 10.1174 8.16318 9.27184 9.00878C9.27184 9.00878 8.24615 10.0345 10.1058 11.8942C11.9655 13.7538 12.9912 12.7281 12.9912 12.7281C13.8368 11.8825 15.0988 11.667 16.0608 12.2039L17.1269 12.7988C18.5795 13.6095 18.7511 15.6468 17.4742 16.9236C16.707 17.6909 15.7671 18.2879 14.728 18.3273C12.9789 18.3936 10.0084 17.9509 7.02875 14.9712C4.04905 11.9915 3.60638 9.02108 3.67269 7.27196C3.71208 6.23293 4.30909 5.29301 5.07634 4.52575C6.35321 3.24888 8.39043 3.42044 9.20114 4.87312Z" fill="white"/>
<path d="M12.1545 1.72334C12.2152 1.34853 12.5695 1.09427 12.9443 1.15495C12.9675 1.15939 13.0422 1.17334 13.0813 1.18205C13.1595 1.19947 13.2686 1.22629 13.4047 1.26591C13.6767 1.34515 14.0568 1.47569 14.5129 1.68482C15.4262 2.10351 16.6415 2.83593 17.9026 4.09708C19.1638 5.35823 19.8962 6.57356 20.3149 7.48681C20.524 7.94296 20.6546 8.32301 20.7338 8.59506C20.7734 8.7311 20.8003 8.84021 20.8177 8.91843C20.8264 8.95754 20.8327 8.98894 20.8372 9.01214L20.8425 9.04074C20.9031 9.41556 20.6512 9.78453 20.2764 9.84521C19.9026 9.90572 19.5505 9.65269 19.4884 9.27963C19.4865 9.26962 19.4812 9.2427 19.4756 9.21732C19.4642 9.16655 19.4447 9.08605 19.4137 8.97958C19.3516 8.7666 19.2439 8.45005 19.065 8.05984C18.7077 7.2804 18.0651 6.20406 16.9304 5.06935C15.7957 3.93464 14.7193 3.29206 13.9399 2.93472C13.5497 2.75583 13.2331 2.64809 13.0201 2.58605C12.9137 2.55504 12.7798 2.52432 12.7291 2.51302C12.356 2.45085 12.094 2.09709 12.1545 1.72334Z" fill="white"/>
<path fill-rule="evenodd" clip-rule="evenodd" d="M12.3619 4.88535C12.4662 4.52026 12.8467 4.30886 13.2118 4.41317L13.023 5.07422C13.2118 4.41317 13.2118 4.41317 13.2118 4.41317L13.2131 4.41355L13.2145 4.41396L13.2176 4.41485L13.2247 4.41697L13.2428 4.42262C13.2567 4.42704 13.2739 4.4328 13.2945 4.4401C13.3357 4.45471 13.3901 4.47549 13.4568 4.50409C13.5904 4.56132 13.7728 4.64971 13.997 4.78236C14.4457 5.0479 15.0582 5.48898 15.7777 6.20854C16.4973 6.9281 16.9384 7.5406 17.2039 7.98928C17.3366 8.21341 17.4249 8.39589 17.4822 8.52943C17.5108 8.59617 17.5316 8.65058 17.5462 8.69175C17.5535 8.71233 17.5592 8.72959 17.5636 8.74341L17.5693 8.76155L17.5714 8.76866L17.5723 8.77171L17.5727 8.77312C17.5727 8.77312 17.5731 8.77444 16.912 8.96331L17.5731 8.77444C17.6774 9.13952 17.466 9.52005 17.1009 9.62436C16.7389 9.72778 16.3618 9.52083 16.2537 9.16145L16.2503 9.15156C16.2454 9.13779 16.2353 9.11067 16.2183 9.07107C16.1844 8.99193 16.1229 8.86247 16.0206 8.68959C15.8162 8.34425 15.4471 7.82243 14.8055 7.18081C14.1638 6.53919 13.642 6.17004 13.2967 5.96565C13.1238 5.86334 12.9943 5.80183 12.9152 5.76791C12.8756 5.75094 12.8485 5.74083 12.8347 5.73594L12.8248 5.73255C12.4654 5.6245 12.2585 5.24734 12.3619 4.88535Z" fill="white"/>
</svg>
