<svg width="240" height="262" viewBox="0 0 240 262" fill="none" xmlns="http://www.w3.org/2000/svg">
<path d="M115.837 2.61077C115.837 2.61077 3.88051 115.189 1.39259 117.677C-1.09532 120.165 2.01458 126.385 6.9904 126.385H20.052V252.024C20.052 258.493 23.1619 261.354 25.6498 261.354H212.865C220.329 261.354 222.195 256.378 222.195 253.89V126.385H234.013C240.481 126.385 240.446 117.89 239.61 117.055C238.775 116.219 206.646 84.712 206.646 84.712C206.853 71.0284 207.143 42.6662 206.646 38.6855C206.148 34.7049 203.121 33.7097 201.67 33.7097H183.632C180.647 33.7097 179.486 35.783 179.279 36.8196V56.7229L125.166 2.61077C121.186 -1.36989 117.288 0.952162 115.837 2.61077Z" fill="#00395B"/>
<path d="M49.285 103.371C54.2608 97.1516 98.4213 53.4058 120.191 32.4658C138.021 50.0886 168.705 79.784 189.852 103.371C207.139 122.653 208.512 147.532 208.512 163.081C208.512 178.631 202.292 197.912 187.364 214.706C172.437 231.499 148.802 243.939 116.459 243.939C84.1158 243.939 63.0823 226.36 53.0169 214.706C41.1993 201.022 35.2317 187.961 31.8696 163.081C27.6671 131.982 43.1416 111.051 49.285 103.371Z" fill="white"/>
<path d="M57.3479 107.264C61.7802 101.74 101.117 62.8831 120.508 44.2834C136.391 59.9366 163.723 86.3132 182.561 107.264C197.959 124.391 199.182 146.489 199.182 160.301C199.182 174.112 193.641 191.239 180.345 206.155C167.048 221.072 145.994 232.121 117.184 232.121C88.374 232.121 69.638 216.507 60.6721 206.155C50.1453 194.001 44.8296 182.399 41.8348 160.301C38.0913 132.678 51.8755 114.085 57.3479 107.264Z" fill="#0077AC"/>
<path d="M143.204 213.462C129.52 223.413 104.227 229.426 92.8236 231.499C89.7137 225.487 84.4891 207.615 88.4697 184.229C93.4455 154.996 123.665 138.678 132.63 135.092C141.96 131.36 167.254 122.238 179.901 117.055C183.01 181.119 162.464 199.455 143.204 213.462Z" fill="white"/>
<path d="M141.157 208.777C129.52 217.816 105.983 223.454 95.9335 225.279C93.1927 219.986 89.9601 203.629 93.4682 183.039C97.8534 157.301 124.486 142.935 132.387 139.777C140.609 136.492 165.023 128.46 176.169 123.897C178.909 180.301 157.725 195.907 141.157 208.777Z" fill="#618B16"/>
<path d="M113.349 186.095C107.751 193.558 97.3847 214.498 92.8235 224.035C93.4455 224.657 96.1822 226.15 97.1773 227.145C98.4213 223.413 108.373 200.4 123.3 182.363C129.52 174.277 140.094 164.947 153.155 153.13C134.496 163.081 118.947 178.631 113.349 186.095Z" fill="white"/>
</svg>
