<svg width="333" height="121" viewBox="0 0 333 121" fill="none" xmlns="http://www.w3.org/2000/svg">
<path d="M52.9886 1.00993C52.9886 1.00993 1.54552 52.7388 0.402344 53.882C-0.740835 55.0252 0.688143 57.8831 2.9745 57.8831H8.97619V115.614C8.97619 118.586 10.4052 119.901 11.5483 119.901H97.5726C101.002 119.901 101.86 117.614 101.86 116.471V57.8831H107.29C110.262 57.8831 110.246 53.98 109.862 53.5962C109.478 53.2123 94.7147 38.7348 94.7147 38.7348C94.8099 32.4474 94.9433 19.4151 94.7147 17.586C94.486 15.7569 93.0952 15.2997 92.4283 15.2997H84.1402C82.7684 15.2997 82.2349 16.2523 82.1397 16.7286V25.8741L57.2755 1.00993C55.4464 -0.819153 53.6555 0.247814 52.9886 1.00993Z" fill="#00395B"/>
<path d="M22.4086 47.3082C24.6949 44.4502 44.9864 24.3493 54.9892 14.7275C63.182 22.8251 77.2812 36.4699 86.9982 47.3082C94.9414 56.1678 95.5721 67.5996 95.5721 74.7445C95.5721 81.8893 92.7141 90.749 85.855 98.4654C78.996 106.182 68.1358 111.898 53.2744 111.898C38.4131 111.898 28.7483 103.821 24.1234 98.4654C18.6933 92.1779 15.9512 86.1763 14.4063 74.7445C12.4753 60.4547 19.5857 50.8368 22.4086 47.3082Z" fill="white"/>
<path d="M26.1134 49.0975C28.15 46.5589 46.225 28.7046 55.1352 20.1582C62.4331 27.3507 74.9922 39.4706 83.6478 49.0975C90.7233 56.9669 91.2851 67.121 91.2851 73.4674C91.2851 79.8137 88.7394 87.6831 82.6295 94.5372C76.5197 101.391 66.8457 106.468 53.6077 106.468C40.3697 106.468 31.7607 99.2939 27.6409 94.5372C22.8039 88.9524 20.3614 83.6215 18.9853 73.4674C17.2652 60.7747 23.5989 52.2317 26.1134 49.0975Z" fill="#0077AC"/>
<path d="M65.5636 97.8939C59.2761 102.467 47.6538 105.229 42.4142 106.182C40.9852 103.419 38.5846 95.2074 40.4136 84.4615C42.7 71.0292 56.5857 63.5315 60.7051 61.8838C64.992 60.169 76.6143 55.9773 82.4255 53.5957C83.8545 83.0326 74.4133 91.4578 65.5636 97.8939Z" fill="white"/>
<path d="M64.6231 95.7419C59.2761 99.8953 48.4608 102.486 43.8432 103.325C42.5838 100.892 41.0984 93.3767 42.7104 83.9156C44.7254 72.0893 56.9627 65.4881 60.5931 64.0373C64.3712 62.5276 75.5894 58.8371 80.7107 56.7402C81.9701 82.6575 72.2359 89.8285 64.6231 95.7419Z" fill="#618B16"/>
<path d="M51.8454 85.319C49.2733 88.7485 44.51 98.3703 42.4142 102.752C42.7 103.038 43.9575 103.724 44.4147 104.181C44.9863 102.467 49.5591 91.8923 56.4181 83.6042C59.2761 79.8889 64.1346 75.602 70.1363 70.1719C61.5624 74.7446 54.4176 81.8895 51.8454 85.319Z" fill="white"/>
<path d="M142.379 51.222C142.379 50.469 142.263 49.7936 142.032 49.1957C141.801 48.5756 141.373 47.9998 140.748 47.4683C140.123 46.9368 139.221 46.4053 138.041 45.8738C136.884 45.3201 135.357 44.7444 133.46 44.1464C131.239 43.4378 129.099 42.6405 127.04 41.7547C124.981 40.8467 123.142 39.7948 121.522 38.5989C119.903 37.3809 118.619 35.9636 117.67 34.3469C116.722 32.7081 116.247 30.8036 116.247 28.6333C116.247 26.5516 116.733 24.6803 117.705 23.0194C118.676 21.3363 120.03 19.9079 121.765 18.7342C123.523 17.5383 125.583 16.6303 127.942 16.0102C130.302 15.368 132.882 15.0469 135.681 15.0469C139.383 15.0469 142.645 15.667 145.468 16.9071C148.313 18.1252 150.534 19.8636 152.131 22.1225C153.75 24.3592 154.56 27.0056 154.56 30.0617H142.449C142.449 28.8437 142.182 27.7696 141.65 26.8395C141.141 25.9094 140.366 25.1786 139.325 24.6471C138.284 24.1156 136.977 23.8498 135.404 23.8498C133.877 23.8498 132.593 24.0713 131.552 24.5142C130.51 24.9571 129.724 25.5551 129.192 26.308C128.66 27.0388 128.394 27.8471 128.394 28.733C128.394 29.4638 128.602 30.1282 129.018 30.7261C129.458 31.3019 130.071 31.8444 130.857 32.3538C131.667 32.8632 132.639 33.3504 133.773 33.8154C134.929 34.2805 136.225 34.7345 137.659 35.1774C140.343 35.9968 142.726 36.9158 144.808 37.9345C146.914 38.9311 148.684 40.0716 150.118 41.3561C151.576 42.6184 152.675 44.0578 153.415 45.6745C154.178 47.2911 154.56 49.1181 154.56 51.1556C154.56 53.3258 154.12 55.2525 153.241 56.9356C152.362 58.6187 151.101 60.0471 149.459 61.2208C147.816 62.3724 145.849 63.2471 143.559 63.8451C141.269 64.443 138.712 64.742 135.89 64.742C133.298 64.742 130.742 64.4319 128.22 63.8119C125.721 63.1696 123.454 62.1952 121.418 60.8886C119.382 59.5599 117.751 57.8657 116.525 55.8062C115.322 53.7245 114.72 51.2552 114.72 48.3984H126.936C126.936 49.8157 127.133 51.0116 127.526 51.986C127.919 52.9604 128.498 53.7466 129.261 54.3445C130.025 54.9203 130.962 55.3411 132.072 55.6068C133.183 55.8505 134.455 55.9723 135.89 55.9723C137.44 55.9723 138.689 55.7619 139.638 55.3411C140.586 54.8982 141.28 54.3224 141.72 53.6137C142.159 52.8829 142.379 52.0857 142.379 51.222Z" fill="#00395B"/>
<path d="M202.174 38.2335V58.0982C201.317 59.0062 199.999 59.9806 198.217 61.0215C196.459 62.0402 194.238 62.9149 191.554 63.6458C188.87 64.3766 185.712 64.742 182.08 64.742C178.725 64.742 175.683 64.2326 172.953 63.2139C170.223 62.1731 167.875 60.6561 165.908 58.663C163.965 56.6477 162.461 54.1895 161.397 51.2884C160.356 48.3652 159.835 45.0212 159.835 41.2564V38.5657C159.835 34.8009 160.367 31.4569 161.431 28.5337C162.496 25.6104 163.988 23.1522 165.908 21.1591C167.852 19.1439 170.13 17.6158 172.745 16.5749C175.382 15.5341 178.274 15.0137 181.421 15.0137C186.071 15.0137 189.854 15.7223 192.769 17.1397C195.684 18.5348 197.893 20.4726 199.397 22.9529C200.901 25.4111 201.815 28.2568 202.139 31.4901H190.444C190.212 29.8956 189.773 28.5447 189.125 27.4374C188.5 26.308 187.598 25.4554 186.418 24.8796C185.238 24.2817 183.711 23.9827 181.837 23.9827C180.38 23.9827 179.049 24.2817 177.846 24.8796C176.666 25.4775 175.66 26.3855 174.827 27.6035C173.994 28.7994 173.346 30.3053 172.884 32.1213C172.444 33.9372 172.224 36.0632 172.224 38.4993V41.2564C172.224 43.6703 172.432 45.7852 172.849 47.6012C173.288 49.4171 173.936 50.9341 174.792 52.1521C175.671 53.348 176.782 54.256 178.124 54.876C179.489 55.474 181.097 55.7729 182.948 55.7729C184.243 55.7729 185.354 55.6733 186.279 55.474C187.205 55.2525 187.968 54.9868 188.57 54.6767C189.194 54.3445 189.669 54.0345 189.993 53.7466V46.2392H181.525V38.2335H202.174Z" fill="#00395B"/>
<path d="M114.72 73.6211H123.481C125.194 73.6211 126.682 73.8758 127.946 74.3852C129.21 74.8947 130.183 75.6487 130.866 76.6472C131.559 77.6457 131.906 78.8785 131.906 80.3457C131.906 81.6193 131.707 82.684 131.31 83.5399C130.912 84.3957 130.357 85.1038 129.643 85.6642C128.94 86.2144 128.119 86.6678 127.181 87.0244L125.423 88.0178H118.069L118.038 83.8761H123.481C124.164 83.8761 124.73 83.7538 125.179 83.5093C125.627 83.2648 125.963 82.9183 126.188 82.47C126.422 82.0115 126.539 81.4664 126.539 80.8347C126.539 80.1928 126.422 79.6427 126.188 79.1842C125.953 78.7257 125.607 78.3742 125.148 78.1296C124.699 77.8851 124.144 77.7628 123.481 77.7628H120.087V95.8734H114.72V73.6211ZM126.906 95.8734L121.983 86.031L127.671 86.0004L132.655 95.6441V95.8734H126.906Z" fill="#00395B"/>
<path d="M149.529 91.7469V95.8734H137.664V91.7469H149.529ZM139.575 73.6211V95.8734H134.208V73.6211H139.575ZM148 82.4548V86.4437H137.664V82.4548H148ZM149.574 73.6211V77.7628H137.664V73.6211H149.574Z" fill="#00395B"/>
<path d="M162.258 89.9588C162.258 89.6124 162.207 89.3016 162.105 89.0265C162.003 88.7412 161.815 88.4763 161.54 88.2318C161.264 87.9873 160.867 87.7427 160.347 87.4982C159.837 87.2435 159.165 86.9786 158.329 86.7035C157.35 86.3774 156.407 86.0106 155.5 85.6031C154.593 85.1853 153.783 84.7014 153.069 84.1512C152.356 83.5908 151.79 82.9387 151.372 82.1949C150.954 81.441 150.745 80.5647 150.745 79.5662C150.745 78.6085 150.959 77.7475 151.387 76.9834C151.815 76.209 152.412 75.5519 153.176 75.0119C153.951 74.4617 154.858 74.0439 155.898 73.7586C156.937 73.4632 158.074 73.3154 159.307 73.3154C160.938 73.3154 162.375 73.6007 163.619 74.1713C164.873 74.7317 165.851 75.5315 166.555 76.5707C167.268 77.5998 167.625 78.8174 167.625 80.2234H162.289C162.289 79.663 162.172 79.1689 161.937 78.7409C161.713 78.313 161.371 77.9768 160.913 77.7323C160.454 77.4877 159.878 77.3655 159.185 77.3655C158.512 77.3655 157.946 77.4674 157.488 77.6711C157.029 77.8749 156.683 78.15 156.448 78.4964C156.214 78.8326 156.096 79.2045 156.096 79.6121C156.096 79.9483 156.188 80.254 156.372 80.5291C156.565 80.794 156.835 81.0436 157.182 81.2779C157.539 81.5123 157.967 81.7364 158.466 81.9504C158.976 82.1644 159.547 82.3732 160.179 82.577C161.361 82.954 162.411 83.3768 163.329 83.8455C164.256 84.304 165.036 84.8287 165.668 85.4197C166.31 86.0004 166.794 86.6627 167.12 87.4065C167.457 88.1503 167.625 88.9908 167.625 89.9282C167.625 90.9267 167.431 91.8131 167.044 92.5875C166.657 93.3618 166.101 94.019 165.377 94.559C164.654 95.0888 163.787 95.4913 162.778 95.7664C161.769 96.0415 160.643 96.179 159.399 96.179C158.257 96.179 157.131 96.0364 156.02 95.7511C154.919 95.4556 153.92 95.0073 153.023 94.4062C152.126 93.7948 151.408 93.0154 150.867 92.0679C150.337 91.1101 150.072 89.9741 150.072 88.6597H155.454C155.454 89.3118 155.541 89.862 155.714 90.3103C155.887 90.7586 156.142 91.1203 156.479 91.3954C156.815 91.6603 157.228 91.8539 157.717 91.9762C158.206 92.0882 158.767 92.1443 159.399 92.1443C160.082 92.1443 160.632 92.0475 161.05 91.8539C161.468 91.6501 161.774 91.3852 161.968 91.0592C162.161 90.7229 162.258 90.3561 162.258 89.9588Z" fill="#00395B"/>
<path d="M180.232 73.6211V95.8734H174.866V73.6211H180.232ZM186.929 73.6211V77.7628H168.322V73.6211H186.929Z" fill="#00395B"/>
<path d="M206.677 84.304V85.2057C206.677 86.9072 206.438 88.4356 205.958 89.7907C205.49 91.1356 204.822 92.2869 203.955 93.2447C203.089 94.1922 202.065 94.9207 200.882 95.4301C199.7 95.9294 198.395 96.179 196.968 96.179C195.531 96.179 194.216 95.9294 193.023 95.4301C191.841 94.9207 190.811 94.1922 189.935 93.2447C189.068 92.2869 188.396 91.1356 187.916 89.7907C187.448 88.4356 187.213 86.9072 187.213 85.2057V84.304C187.213 82.6025 187.448 81.0742 187.916 79.7191C188.396 78.364 189.063 77.2126 189.919 76.2651C190.786 75.3073 191.81 74.5788 192.993 74.0796C194.185 73.5701 195.5 73.3154 196.937 73.3154C198.364 73.3154 199.669 73.5701 200.852 74.0796C202.044 74.5788 203.074 75.3073 203.94 76.2651C204.807 77.2126 205.479 78.364 205.958 79.7191C206.438 81.0742 206.677 82.6025 206.677 84.304ZM201.234 85.2057V84.2734C201.234 83.1731 201.137 82.2051 200.943 81.3696C200.76 80.524 200.485 79.8159 200.118 79.2453C199.751 78.6747 199.297 78.2468 198.757 77.9615C198.227 77.666 197.62 77.5183 196.937 77.5183C196.224 77.5183 195.602 77.666 195.072 77.9615C194.542 78.2468 194.099 78.6747 193.742 79.2453C193.385 79.8159 193.115 80.524 192.931 81.3696C192.758 82.2051 192.672 83.1731 192.672 84.2734V85.2057C192.672 86.2959 192.758 87.2638 192.931 88.1095C193.115 88.945 193.385 89.6531 193.742 90.2339C194.109 90.8146 194.557 91.2528 195.087 91.5482C195.628 91.8437 196.254 91.9914 196.968 91.9914C197.651 91.9914 198.257 91.8437 198.787 91.5482C199.318 91.2528 199.761 90.8146 200.118 90.2339C200.485 89.6531 200.76 88.945 200.943 88.1095C201.137 87.2638 201.234 86.2959 201.234 85.2057Z" fill="#00395B"/>
<path d="M208.52 73.6211H217.281C218.994 73.6211 220.482 73.8758 221.746 74.3852C223.01 74.8947 223.984 75.6487 224.666 76.6472C225.36 77.6457 225.706 78.8785 225.706 80.3457C225.706 81.6193 225.507 82.684 225.11 83.5399C224.712 84.3957 224.157 85.1038 223.443 85.6642C222.74 86.2144 221.919 86.6678 220.982 87.0244L219.223 88.0178H211.869L211.838 83.8761H217.281C217.964 83.8761 218.53 83.7538 218.979 83.5093C219.427 83.2648 219.764 82.9183 219.988 82.47C220.222 82.0115 220.339 81.4664 220.339 80.8347C220.339 80.1928 220.222 79.6427 219.988 79.1842C219.753 78.7257 219.407 78.3742 218.948 78.1296C218.5 77.8851 217.944 77.7628 217.281 77.7628H213.887V95.8734H208.52V73.6211ZM220.706 95.8734L215.783 86.031L221.471 86.0004L226.455 95.6441V95.8734H220.706Z" fill="#00395B"/>
<path d="M237.442 78.2977L232.014 95.8734H226.25L234.43 73.6211H238.084L237.442 78.2977ZM241.937 95.8734L236.494 78.2977L235.791 73.6211H239.491L247.717 95.8734H241.937ZM241.723 87.5746V91.7163H230.302V87.5746H241.723Z" fill="#00395B"/>
<path d="M257.358 73.6211V95.8734H251.991V73.6211H257.358ZM264.055 73.6211V77.7628H245.447V73.6211H264.055Z" fill="#00395B"/>
<path d="M271.097 73.6211V95.8734H265.745V73.6211H271.097Z" fill="#00395B"/>
<path d="M292.771 84.304V85.2057C292.771 86.9072 292.532 88.4356 292.052 89.7907C291.584 91.1356 290.916 92.2869 290.049 93.2447C289.183 94.1922 288.159 94.9207 286.976 95.4301C285.794 95.9294 284.489 96.179 283.062 96.179C281.625 96.179 280.31 95.9294 279.117 95.4301C277.935 94.9207 276.905 94.1922 276.029 93.2447C275.162 92.2869 274.49 91.1356 274.01 89.7907C273.542 88.4356 273.307 86.9072 273.307 85.2057V84.304C273.307 82.6025 273.542 81.0742 274.01 79.7191C274.49 78.364 275.157 77.2126 276.013 76.2651C276.88 75.3073 277.904 74.5788 279.087 74.0796C280.279 73.5701 281.594 73.3154 283.031 73.3154C284.458 73.3154 285.763 73.5701 286.946 74.0796C288.138 74.5788 289.168 75.3073 290.034 76.2651C290.901 77.2126 291.573 78.364 292.052 79.7191C292.532 81.0742 292.771 82.6025 292.771 84.304ZM287.328 85.2057V84.2734C287.328 83.1731 287.231 82.2051 287.037 81.3696C286.854 80.524 286.579 79.8159 286.212 79.2453C285.845 78.6747 285.391 78.2468 284.851 77.9615C284.321 77.666 283.714 77.5183 283.031 77.5183C282.318 77.5183 281.696 77.666 281.166 77.9615C280.636 78.2468 280.193 78.6747 279.836 79.2453C279.479 79.8159 279.209 80.524 279.026 81.3696C278.852 82.2051 278.766 83.1731 278.766 84.2734V85.2057C278.766 86.2959 278.852 87.2638 279.026 88.1095C279.209 88.945 279.479 89.6531 279.836 90.2339C280.203 90.8146 280.651 91.2528 281.181 91.5482C281.722 91.8437 282.349 91.9914 283.062 91.9914C283.745 91.9914 284.351 91.8437 284.882 91.5482C285.412 91.2528 285.855 90.8146 286.212 90.2339C286.579 89.6531 286.854 88.945 287.037 88.1095C287.231 87.2638 287.328 86.2959 287.328 85.2057Z" fill="#00395B"/>
<path d="M313.207 73.6211V95.8734H307.855L299.981 82.0268V95.8734H294.614V73.6211H299.981L307.855 87.4676V73.6211H313.207Z" fill="#00395B"/>
<path d="M327.129 89.9588C327.129 89.6124 327.078 89.3016 326.976 89.0265C326.874 88.7412 326.686 88.4763 326.411 88.2318C326.135 87.9873 325.738 87.7427 325.218 87.4982C324.708 87.2435 324.036 86.9786 323.2 86.7035C322.221 86.3774 321.278 86.0106 320.371 85.6031C319.464 85.1853 318.654 84.7014 317.94 84.1512C317.226 83.5908 316.661 82.9387 316.243 82.1949C315.825 81.441 315.616 80.5647 315.616 79.5662C315.616 78.6085 315.83 77.7475 316.258 76.9834C316.686 76.209 317.283 75.5519 318.047 75.0119C318.822 74.4617 319.729 74.0439 320.769 73.7586C321.808 73.4632 322.945 73.3154 324.178 73.3154C325.809 73.3154 327.246 73.6007 328.49 74.1713C329.744 74.7317 330.722 75.5315 331.426 76.5707C332.139 77.5998 332.496 78.8174 332.496 80.2234H327.16C327.16 79.663 327.043 79.1689 326.808 78.7409C326.584 78.313 326.242 77.9768 325.784 77.7323C325.325 77.4877 324.749 77.3655 324.056 77.3655C323.383 77.3655 322.817 77.4674 322.359 77.6711C321.9 77.8749 321.554 78.15 321.319 78.4964C321.085 78.8326 320.967 79.2045 320.967 79.6121C320.967 79.9483 321.059 80.254 321.243 80.5291C321.436 80.794 321.706 81.0436 322.053 81.2779C322.41 81.5123 322.838 81.7364 323.337 81.9504C323.847 82.1644 324.418 82.3732 325.05 82.577C326.232 82.954 327.282 83.3768 328.199 83.8455C329.127 84.304 329.907 84.8287 330.539 85.4197C331.181 86.0004 331.665 86.6627 331.991 87.4065C332.328 88.1503 332.496 88.9908 332.496 89.9282C332.496 90.9267 332.302 91.8131 331.915 92.5875C331.528 93.3618 330.972 94.019 330.248 94.559C329.525 95.0888 328.658 95.4913 327.649 95.7664C326.64 96.0415 325.514 96.179 324.27 96.179C323.128 96.179 322.002 96.0364 320.891 95.7511C319.79 95.4556 318.791 95.0073 317.894 94.4062C316.997 93.7948 316.279 93.0154 315.738 92.0679C315.208 91.1101 314.943 89.9741 314.943 88.6597H320.325C320.325 89.3118 320.412 89.862 320.585 90.3103C320.758 90.7586 321.013 91.1203 321.35 91.3954C321.686 91.6603 322.099 91.8539 322.588 91.9762C323.077 92.0882 323.638 92.1443 324.27 92.1443C324.953 92.1443 325.503 92.0475 325.921 91.8539C326.339 91.6501 326.645 91.3852 326.839 91.0592C327.032 90.7229 327.129 90.3561 327.129 89.9588Z" fill="#00395B"/>
<path d="M114.954 108.674H115.715L119.018 116.545L122.328 108.674H123.083L119.307 117.614H118.73L114.954 108.674ZM114.72 108.674H115.39L115.469 113.709V117.614H114.72V108.674ZM122.659 108.674H123.329V117.614H122.573V113.709L122.659 108.674Z" fill="#618B16"/>
<path d="M124.395 114.396V114.194C124.395 113.711 124.464 113.265 124.603 112.855C124.743 112.446 124.941 112.092 125.199 111.793C125.461 111.494 125.774 111.263 126.138 111.099C126.503 110.931 126.908 110.847 127.354 110.847C127.804 110.847 128.212 110.931 128.576 111.099C128.94 111.263 129.254 111.494 129.516 111.793C129.777 112.092 129.978 112.446 130.117 112.855C130.256 113.265 130.326 113.711 130.326 114.194V114.396C130.326 114.879 130.256 115.326 130.117 115.735C129.978 116.14 129.777 116.492 129.516 116.791C129.258 117.09 128.947 117.323 128.582 117.491C128.218 117.655 127.813 117.737 127.366 117.737C126.916 117.737 126.509 117.655 126.145 117.491C125.78 117.323 125.467 117.09 125.205 116.791C124.943 116.492 124.743 116.14 124.603 115.735C124.464 115.326 124.395 114.879 124.395 114.396ZM125.125 114.194V114.396C125.125 114.761 125.174 115.107 125.273 115.434C125.371 115.757 125.514 116.046 125.703 116.3C125.891 116.55 126.124 116.746 126.402 116.889C126.681 117.033 127.002 117.104 127.366 117.104C127.727 117.104 128.044 117.033 128.318 116.889C128.597 116.746 128.83 116.55 129.018 116.3C129.206 116.046 129.348 115.757 129.442 115.434C129.54 115.107 129.589 114.761 129.589 114.396V114.194C129.589 113.834 129.54 113.492 129.442 113.168C129.348 112.845 129.204 112.556 129.012 112.303C128.824 112.049 128.59 111.848 128.312 111.701C128.034 111.554 127.714 111.48 127.354 111.48C126.994 111.48 126.675 111.554 126.396 111.701C126.122 111.848 125.889 112.049 125.696 112.303C125.508 112.556 125.365 112.845 125.267 113.168C125.172 113.492 125.125 113.834 125.125 114.194Z" fill="#618B16"/>
<path d="M135.475 116.079V110.97H136.212V117.614H135.506L135.475 116.079ZM135.61 114.851L135.991 114.839C135.991 115.256 135.942 115.641 135.844 115.993C135.745 116.345 135.592 116.652 135.383 116.914C135.174 117.176 134.904 117.378 134.573 117.522C134.241 117.665 133.842 117.737 133.375 117.737C133.052 117.737 132.755 117.692 132.485 117.602C132.219 117.507 131.99 117.36 131.797 117.159C131.605 116.959 131.455 116.699 131.349 116.38C131.247 116.06 131.195 115.674 131.195 115.219V110.97H131.926V115.231C131.926 115.588 131.965 115.884 132.043 116.122C132.125 116.359 132.235 116.55 132.374 116.693C132.518 116.836 132.681 116.938 132.866 117C133.05 117.061 133.248 117.092 133.461 117.092C134.001 117.092 134.427 116.988 134.738 116.779C135.053 116.57 135.277 116.296 135.408 115.956C135.543 115.612 135.61 115.244 135.61 114.851Z" fill="#618B16"/>
<path d="M138.322 108.183V117.614H137.591V108.183H138.322Z" fill="#618B16"/>
<path d="M144.017 116.324V108.183H144.754V117.614H144.066L144.017 116.324ZM139.406 114.36V114.231C139.406 113.715 139.465 113.25 139.584 112.837C139.703 112.419 139.873 112.063 140.094 111.768C140.319 111.47 140.589 111.242 140.904 111.087C141.219 110.927 141.576 110.847 141.973 110.847C142.361 110.847 142.705 110.911 143.004 111.038C143.303 111.165 143.559 111.347 143.772 111.584C143.989 111.822 144.163 112.104 144.294 112.432C144.429 112.759 144.527 113.123 144.588 113.525V115.164C144.539 115.541 144.449 115.886 144.318 116.202C144.187 116.513 144.013 116.785 143.796 117.018C143.579 117.247 143.317 117.426 143.01 117.552C142.707 117.675 142.357 117.737 141.96 117.737C141.567 117.737 141.213 117.655 140.898 117.491C140.583 117.327 140.315 117.096 140.094 116.797C139.873 116.494 139.703 116.136 139.584 115.723C139.465 115.309 139.406 114.855 139.406 114.36ZM140.143 114.231V114.36C140.143 114.748 140.182 115.109 140.26 115.44C140.337 115.772 140.456 116.06 140.616 116.306C140.775 116.552 140.978 116.744 141.224 116.883C141.469 117.022 141.76 117.092 142.095 117.092C142.517 117.092 142.871 117.012 143.158 116.852C143.444 116.689 143.673 116.474 143.845 116.208C144.017 115.938 144.142 115.643 144.22 115.324V113.414C144.171 113.197 144.099 112.976 144.005 112.751C143.911 112.526 143.782 112.319 143.618 112.131C143.459 111.938 143.254 111.785 143.004 111.67C142.759 111.551 142.46 111.492 142.108 111.492C141.768 111.492 141.475 111.562 141.23 111.701C140.984 111.84 140.779 112.035 140.616 112.284C140.456 112.53 140.337 112.818 140.26 113.15C140.182 113.482 140.143 113.842 140.143 114.231Z" fill="#618B16"/>
<path d="M151.608 109.208L148.513 117.614H147.727L151.104 108.674H151.651L151.608 109.208ZM154.42 117.614L151.319 109.208L151.276 108.674H151.823L155.206 117.614H154.42ZM153.867 114.458V115.109H149.121V114.458H153.867Z" fill="#618B16"/>
<path d="M156.462 112.389V117.614H155.731V110.97H156.431L156.462 112.389ZM156.296 113.881L155.971 113.696C155.995 113.303 156.075 112.935 156.21 112.591C156.345 112.247 156.528 111.944 156.757 111.682C156.99 111.421 157.262 111.216 157.573 111.068C157.889 110.921 158.237 110.847 158.617 110.847C158.949 110.847 159.246 110.892 159.508 110.983C159.77 111.073 159.993 111.216 160.177 111.412C160.361 111.609 160.5 111.861 160.594 112.168C160.693 112.475 160.742 112.849 160.742 113.291V117.614H160.005V113.285C160.005 112.827 159.941 112.468 159.815 112.211C159.688 111.949 159.508 111.762 159.274 111.652C159.041 111.541 158.765 111.486 158.445 111.486C158.093 111.486 157.784 111.564 157.518 111.719C157.256 111.871 157.035 112.069 156.855 112.315C156.679 112.556 156.544 112.816 156.45 113.095C156.356 113.369 156.304 113.631 156.296 113.881Z" fill="#618B16"/>
<path d="M166.333 116.324V108.183H167.07V117.614H166.382L166.333 116.324ZM161.722 114.36V114.231C161.722 113.715 161.781 113.25 161.9 112.837C162.018 112.419 162.188 112.063 162.409 111.768C162.635 111.47 162.905 111.242 163.22 111.087C163.535 110.927 163.891 110.847 164.288 110.847C164.677 110.847 165.021 110.911 165.32 111.038C165.619 111.165 165.874 111.347 166.087 111.584C166.304 111.822 166.478 112.104 166.609 112.432C166.744 112.759 166.843 113.123 166.904 113.525V115.164C166.855 115.541 166.765 115.886 166.634 116.202C166.503 116.513 166.329 116.785 166.112 117.018C165.895 117.247 165.633 117.426 165.326 117.552C165.023 117.675 164.673 117.737 164.276 117.737C163.883 117.737 163.529 117.655 163.214 117.491C162.899 117.327 162.63 117.096 162.409 116.797C162.188 116.494 162.018 116.136 161.9 115.723C161.781 115.309 161.722 114.855 161.722 114.36ZM162.459 114.231V114.36C162.459 114.748 162.497 115.109 162.575 115.44C162.653 115.772 162.772 116.06 162.931 116.306C163.091 116.552 163.294 116.744 163.539 116.883C163.785 117.022 164.075 117.092 164.411 117.092C164.833 117.092 165.187 117.012 165.473 116.852C165.76 116.689 165.989 116.474 166.161 116.208C166.333 115.938 166.458 115.643 166.536 115.324V113.414C166.486 113.197 166.415 112.976 166.321 112.751C166.226 112.526 166.098 112.319 165.934 112.131C165.774 111.938 165.57 111.785 165.32 111.67C165.074 111.551 164.775 111.492 164.423 111.492C164.084 111.492 163.791 111.562 163.545 111.701C163.3 111.84 163.095 112.035 162.931 112.284C162.772 112.53 162.653 112.818 162.575 113.15C162.497 113.482 162.459 113.842 162.459 114.231Z" fill="#618B16"/>
<path d="M171.222 108.674H171.983L175.286 116.545L178.596 108.674H179.351L175.575 117.614H174.998L171.222 108.674ZM170.988 108.674H171.658L171.737 113.709V117.614H170.988V108.674ZM178.928 108.674H179.597V117.614H178.842V113.709L178.928 108.674Z" fill="#618B16"/>
<path d="M180.663 114.396V114.194C180.663 113.711 180.732 113.265 180.872 112.855C181.011 112.446 181.209 112.092 181.467 111.793C181.729 111.494 182.042 111.263 182.407 111.099C182.771 110.931 183.176 110.847 183.622 110.847C184.073 110.847 184.48 110.931 184.844 111.099C185.208 111.263 185.522 111.494 185.784 111.793C186.046 112.092 186.246 112.446 186.385 112.855C186.525 113.265 186.594 113.711 186.594 114.194V114.396C186.594 114.879 186.525 115.326 186.385 115.735C186.246 116.14 186.046 116.492 185.784 116.791C185.526 117.09 185.215 117.323 184.85 117.491C184.486 117.655 184.081 117.737 183.635 117.737C183.184 117.737 182.777 117.655 182.413 117.491C182.048 117.323 181.735 117.09 181.473 116.791C181.211 116.492 181.011 116.14 180.872 115.735C180.732 115.326 180.663 114.879 180.663 114.396ZM181.393 114.194V114.396C181.393 114.761 181.443 115.107 181.541 115.434C181.639 115.757 181.782 116.046 181.971 116.3C182.159 116.55 182.392 116.746 182.671 116.889C182.949 117.033 183.27 117.104 183.635 117.104C183.995 117.104 184.312 117.033 184.586 116.889C184.865 116.746 185.098 116.55 185.286 116.3C185.475 116.046 185.616 115.757 185.71 115.434C185.808 115.107 185.857 114.761 185.857 114.396V114.194C185.857 113.834 185.808 113.492 185.71 113.168C185.616 112.845 185.473 112.556 185.28 112.303C185.092 112.049 184.859 111.848 184.58 111.701C184.302 111.554 183.983 111.48 183.622 111.48C183.262 111.48 182.943 111.554 182.664 111.701C182.39 111.848 182.157 112.049 181.964 112.303C181.776 112.556 181.633 112.845 181.535 113.168C181.44 113.492 181.393 113.834 181.393 114.194Z" fill="#618B16"/>
<path d="M188.305 110.97V117.614H187.574V110.97H188.305ZM187.445 109.048C187.445 108.909 187.488 108.793 187.574 108.698C187.664 108.6 187.787 108.551 187.942 108.551C188.098 108.551 188.221 108.6 188.311 108.698C188.405 108.793 188.452 108.909 188.452 109.048C188.452 109.183 188.405 109.3 188.311 109.398C188.221 109.493 188.098 109.54 187.942 109.54C187.787 109.54 187.664 109.493 187.574 109.398C187.488 109.3 187.445 109.183 187.445 109.048Z" fill="#618B16"/>
<path d="M193.663 115.919C193.663 115.739 193.618 115.561 193.528 115.385C193.437 115.209 193.264 115.047 193.006 114.9C192.752 114.753 192.377 114.628 191.882 114.525C191.514 114.443 191.184 114.351 190.893 114.249C190.607 114.147 190.365 114.024 190.169 113.881C189.972 113.737 189.823 113.565 189.721 113.365C189.618 113.164 189.567 112.927 189.567 112.653C189.567 112.407 189.62 112.176 189.727 111.959C189.837 111.738 189.993 111.545 190.193 111.382C190.398 111.214 190.644 111.083 190.93 110.989C191.221 110.895 191.546 110.847 191.907 110.847C192.418 110.847 192.856 110.935 193.221 111.111C193.589 111.283 193.869 111.519 194.062 111.818C194.258 112.116 194.356 112.454 194.356 112.831H193.626C193.626 112.601 193.558 112.385 193.423 112.18C193.292 111.975 193.098 111.807 192.84 111.676C192.586 111.545 192.275 111.48 191.907 111.48C191.526 111.48 191.217 111.537 190.979 111.652C190.742 111.766 190.568 111.912 190.457 112.088C190.351 112.264 190.298 112.446 190.298 112.634C190.298 112.782 190.32 112.917 190.365 113.039C190.414 113.158 190.5 113.269 190.623 113.371C190.75 113.473 190.93 113.57 191.164 113.66C191.397 113.75 191.7 113.838 192.072 113.924C192.609 114.042 193.047 114.188 193.386 114.36C193.73 114.527 193.984 114.736 194.148 114.986C194.311 115.231 194.393 115.53 194.393 115.882C194.393 116.157 194.336 116.408 194.221 116.638C194.107 116.863 193.941 117.057 193.724 117.221C193.511 117.385 193.253 117.512 192.95 117.602C192.652 117.692 192.316 117.737 191.943 117.737C191.383 117.737 190.908 117.645 190.519 117.46C190.134 117.272 189.841 117.026 189.641 116.724C189.444 116.417 189.346 116.091 189.346 115.747H190.077C190.101 116.091 190.21 116.363 190.402 116.564C190.595 116.76 190.83 116.9 191.108 116.981C191.391 117.063 191.669 117.104 191.943 117.104C192.32 117.104 192.635 117.049 192.889 116.938C193.143 116.828 193.335 116.683 193.466 116.502C193.597 116.322 193.663 116.128 193.663 115.919Z" fill="#618B16"/>
<path d="M197.94 110.97V111.572H194.612V110.97H197.94ZM195.834 109.263H196.564V115.999C196.564 116.306 196.605 116.537 196.687 116.693C196.769 116.848 196.876 116.953 197.007 117.006C197.138 117.059 197.279 117.086 197.43 117.086C197.541 117.086 197.647 117.08 197.749 117.067C197.852 117.051 197.944 117.035 198.026 117.018L198.056 117.638C197.966 117.667 197.85 117.69 197.707 117.706C197.563 117.726 197.42 117.737 197.277 117.737C196.994 117.737 196.745 117.685 196.528 117.583C196.311 117.477 196.141 117.297 196.018 117.043C195.895 116.785 195.834 116.435 195.834 115.993V109.263Z" fill="#618B16"/>
<path d="M203.107 116.079V110.97H203.844V117.614H203.138L203.107 116.079ZM203.242 114.851L203.623 114.839C203.623 115.256 203.574 115.641 203.476 115.993C203.378 116.345 203.224 116.652 203.015 116.914C202.806 117.176 202.536 117.378 202.205 117.522C201.873 117.665 201.474 117.737 201.007 117.737C200.684 117.737 200.387 117.692 200.117 117.602C199.851 117.507 199.622 117.36 199.429 117.159C199.237 116.959 199.088 116.699 198.981 116.38C198.879 116.06 198.828 115.674 198.828 115.219V110.97H199.558V115.231C199.558 115.588 199.597 115.884 199.675 116.122C199.757 116.359 199.867 116.55 200.007 116.693C200.15 116.836 200.314 116.938 200.498 117C200.682 117.061 200.881 117.092 201.093 117.092C201.634 117.092 202.059 116.988 202.371 116.779C202.686 116.57 202.909 116.296 203.04 115.956C203.175 115.612 203.242 115.244 203.242 114.851Z" fill="#618B16"/>
<path d="M205.868 112.069V117.614H205.137V110.97H205.85L205.868 112.069ZM208.22 110.921L208.201 111.597C208.119 111.584 208.04 111.574 207.962 111.566C207.884 111.558 207.8 111.554 207.71 111.554C207.391 111.554 207.11 111.613 206.869 111.732C206.631 111.846 206.431 112.008 206.267 112.217C206.103 112.421 205.978 112.663 205.893 112.941C205.807 113.215 205.757 113.51 205.745 113.825L205.475 113.93C205.475 113.496 205.52 113.093 205.61 112.72C205.7 112.348 205.837 112.022 206.021 111.744C206.21 111.461 206.445 111.242 206.728 111.087C207.014 110.927 207.35 110.847 207.735 110.847C207.829 110.847 207.921 110.856 208.011 110.872C208.105 110.884 208.175 110.901 208.22 110.921Z" fill="#618B16"/>
<path d="M211.189 117.737C210.755 117.737 210.356 117.657 209.992 117.497C209.631 117.338 209.316 117.112 209.046 116.822C208.78 116.531 208.573 116.187 208.426 115.79C208.283 115.389 208.211 114.951 208.211 114.476V114.212C208.211 113.701 208.287 113.238 208.438 112.825C208.59 112.411 208.798 112.057 209.065 111.762C209.331 111.468 209.633 111.242 209.973 111.087C210.317 110.927 210.677 110.847 211.054 110.847C211.476 110.847 211.85 110.923 212.178 111.075C212.505 111.222 212.779 111.433 213 111.707C213.225 111.977 213.395 112.299 213.51 112.671C213.625 113.039 213.682 113.447 213.682 113.893V114.341H208.653V113.715H212.951V113.629C212.943 113.256 212.867 112.908 212.724 112.585C212.585 112.258 212.376 111.992 212.098 111.787C211.819 111.582 211.471 111.48 211.054 111.48C210.743 111.48 210.456 111.545 210.194 111.676C209.936 111.807 209.713 111.996 209.525 112.241C209.341 112.483 209.198 112.771 209.095 113.107C208.997 113.439 208.948 113.807 208.948 114.212V114.476C208.948 114.845 209.001 115.188 209.107 115.508C209.218 115.823 209.374 116.101 209.574 116.343C209.779 116.584 210.02 116.773 210.299 116.908C210.577 117.043 210.884 117.11 211.22 117.11C211.613 117.11 211.961 117.039 212.264 116.895C212.566 116.748 212.839 116.517 213.08 116.202L213.541 116.558C213.397 116.771 213.217 116.967 213 117.147C212.787 117.327 212.532 117.471 212.233 117.577C211.934 117.683 211.586 117.737 211.189 117.737Z" fill="#618B16"/>
<path d="M219.559 117.614H217.533L217.545 116.969H219.559C220.202 116.969 220.754 116.826 221.217 116.539C221.684 116.249 222.044 115.848 222.298 115.336C222.551 114.824 222.678 114.231 222.678 113.555V112.72C222.678 112.204 222.605 111.738 222.457 111.32C222.314 110.903 222.107 110.547 221.837 110.252C221.567 109.953 221.244 109.724 220.867 109.564C220.495 109.405 220.077 109.325 219.614 109.325H217.496V108.674H219.614C220.171 108.674 220.681 108.77 221.143 108.962C221.61 109.151 222.013 109.425 222.353 109.785C222.697 110.141 222.961 110.569 223.145 111.068C223.333 111.568 223.427 112.125 223.427 112.739V113.555C223.427 114.169 223.333 114.726 223.145 115.225C222.961 115.725 222.697 116.152 222.353 116.509C222.009 116.865 221.602 117.139 221.131 117.331C220.66 117.52 220.136 117.614 219.559 117.614ZM217.871 108.674V117.614H217.115V108.674H217.871Z" fill="#618B16"/>
<path d="M228.595 116.423V112.996C228.595 112.681 228.53 112.409 228.399 112.18C228.268 111.951 228.075 111.775 227.821 111.652C227.568 111.529 227.254 111.468 226.882 111.468C226.538 111.468 226.231 111.529 225.961 111.652C225.695 111.77 225.484 111.932 225.328 112.137C225.177 112.337 225.101 112.561 225.101 112.806L224.364 112.8C224.364 112.55 224.426 112.309 224.549 112.075C224.671 111.842 224.845 111.633 225.071 111.449C225.296 111.265 225.564 111.12 225.875 111.013C226.19 110.903 226.536 110.847 226.913 110.847C227.387 110.847 227.805 110.927 228.165 111.087C228.53 111.247 228.814 111.486 229.019 111.805C229.223 112.125 229.326 112.526 229.326 113.009V116.22C229.326 116.449 229.342 116.687 229.375 116.932C229.412 117.178 229.463 117.381 229.528 117.54V117.614H228.749C228.699 117.466 228.661 117.282 228.632 117.061C228.607 116.836 228.595 116.623 228.595 116.423ZM228.767 113.746L228.779 114.31H227.336C226.96 114.31 226.622 114.345 226.323 114.415C226.028 114.48 225.779 114.579 225.574 114.71C225.369 114.836 225.212 114.99 225.101 115.17C224.995 115.35 224.942 115.555 224.942 115.784C224.942 116.022 225.001 116.238 225.12 116.435C225.243 116.631 225.414 116.789 225.635 116.908C225.861 117.022 226.127 117.08 226.434 117.08C226.843 117.08 227.203 117.004 227.514 116.852C227.83 116.701 228.089 116.502 228.294 116.257C228.499 116.011 228.636 115.743 228.706 115.453L229.025 115.876C228.972 116.081 228.873 116.292 228.73 116.509C228.591 116.721 228.409 116.922 228.184 117.11C227.958 117.295 227.692 117.446 227.385 117.565C227.082 117.679 226.739 117.737 226.354 117.737C225.92 117.737 225.541 117.655 225.218 117.491C224.899 117.327 224.649 117.104 224.469 116.822C224.293 116.535 224.205 116.212 224.205 115.852C224.205 115.524 224.274 115.231 224.414 114.974C224.553 114.712 224.753 114.491 225.015 114.31C225.281 114.126 225.601 113.987 225.973 113.893C226.35 113.795 226.771 113.746 227.238 113.746H228.767Z" fill="#618B16"/>
<path d="M231.362 112.346V117.614H230.625V110.97H231.331L231.362 112.346ZM231.227 113.881L230.871 113.696C230.895 113.303 230.969 112.935 231.092 112.591C231.218 112.247 231.394 111.944 231.62 111.682C231.845 111.421 232.115 111.216 232.43 111.068C232.745 110.921 233.104 110.847 233.505 110.847C233.828 110.847 234.121 110.892 234.383 110.983C234.649 111.068 234.874 111.206 235.058 111.394C235.246 111.578 235.392 111.82 235.494 112.118C235.596 112.417 235.648 112.775 235.648 113.193V117.614H234.917V113.218C234.917 112.775 234.847 112.43 234.708 112.18C234.573 111.93 234.383 111.752 234.137 111.646C233.896 111.539 233.615 111.486 233.296 111.486C232.919 111.486 232.6 111.564 232.338 111.719C232.08 111.871 231.869 112.069 231.706 112.315C231.546 112.556 231.427 112.816 231.349 113.095C231.272 113.369 231.231 113.631 231.227 113.881ZM235.641 113.303L235.15 113.316C235.171 112.992 235.244 112.683 235.371 112.389C235.502 112.094 235.68 111.832 235.905 111.603C236.131 111.369 236.399 111.185 236.71 111.05C237.025 110.915 237.379 110.847 237.772 110.847C238.116 110.847 238.423 110.895 238.693 110.989C238.963 111.079 239.19 111.224 239.375 111.425C239.563 111.621 239.706 111.873 239.804 112.18C239.903 112.487 239.952 112.855 239.952 113.285V117.614H239.215V113.279C239.215 112.808 239.145 112.444 239.006 112.186C238.871 111.924 238.683 111.742 238.441 111.64C238.2 111.537 237.917 111.486 237.594 111.486C237.275 111.49 236.994 111.549 236.753 111.664C236.511 111.775 236.309 111.922 236.145 112.106C235.985 112.286 235.862 112.481 235.776 112.689C235.695 112.898 235.65 113.103 235.641 113.303Z" fill="#618B16"/>
<path d="M245.23 116.423V112.996C245.23 112.681 245.164 112.409 245.033 112.18C244.902 111.951 244.71 111.775 244.456 111.652C244.202 111.529 243.889 111.468 243.517 111.468C243.173 111.468 242.866 111.529 242.596 111.652C242.33 111.77 242.119 111.932 241.963 112.137C241.812 112.337 241.736 112.561 241.736 112.806L240.999 112.8C240.999 112.55 241.061 112.309 241.183 112.075C241.306 111.842 241.48 111.633 241.705 111.449C241.931 111.265 242.199 111.12 242.51 111.013C242.825 110.903 243.171 110.847 243.547 110.847C244.022 110.847 244.44 110.927 244.8 111.087C245.164 111.247 245.449 111.486 245.654 111.805C245.858 112.125 245.961 112.526 245.961 113.009V116.22C245.961 116.449 245.977 116.687 246.01 116.932C246.046 117.178 246.098 117.381 246.163 117.54V117.614H245.383C245.334 117.466 245.295 117.282 245.267 117.061C245.242 116.836 245.23 116.623 245.23 116.423ZM245.402 113.746L245.414 114.31H243.971C243.595 114.31 243.257 114.345 242.958 114.415C242.663 114.48 242.414 114.579 242.209 114.71C242.004 114.836 241.847 114.99 241.736 115.17C241.63 115.35 241.576 115.555 241.576 115.784C241.576 116.022 241.636 116.238 241.755 116.435C241.877 116.631 242.049 116.789 242.27 116.908C242.495 117.022 242.762 117.08 243.069 117.08C243.478 117.08 243.838 117.004 244.149 116.852C244.464 116.701 244.724 116.502 244.929 116.257C245.134 116.011 245.271 115.743 245.34 115.453L245.66 115.876C245.606 116.081 245.508 116.292 245.365 116.509C245.226 116.721 245.044 116.922 244.818 117.11C244.593 117.295 244.327 117.446 244.02 117.565C243.717 117.679 243.373 117.737 242.989 117.737C242.555 117.737 242.176 117.655 241.853 117.491C241.533 117.327 241.284 117.104 241.104 116.822C240.928 116.535 240.84 116.212 240.84 115.852C240.84 115.524 240.909 115.231 241.048 114.974C241.188 114.712 241.388 114.491 241.65 114.31C241.916 114.126 242.236 113.987 242.608 113.893C242.985 113.795 243.406 113.746 243.873 113.746H245.402Z" fill="#618B16"/>
<path d="M251.675 110.97H252.356V117.497C252.356 118.074 252.246 118.57 252.024 118.983C251.808 119.397 251.498 119.714 251.097 119.935C250.7 120.156 250.232 120.266 249.691 120.266C249.417 120.266 249.135 120.223 248.844 120.137C248.557 120.056 248.285 119.929 248.027 119.757C247.773 119.589 247.557 119.38 247.376 119.13L247.788 118.682C248.058 119.01 248.347 119.249 248.654 119.401C248.961 119.556 249.292 119.634 249.648 119.634C250.07 119.634 250.426 119.55 250.717 119.382C251.011 119.214 251.234 118.973 251.386 118.658C251.541 118.342 251.619 117.964 251.619 117.522V112.432L251.675 110.97ZM247.008 114.36V114.231C247.008 113.715 247.065 113.25 247.18 112.837C247.299 112.419 247.469 112.063 247.69 111.768C247.911 111.47 248.179 111.242 248.494 111.087C248.813 110.927 249.173 110.847 249.575 110.847C249.959 110.847 250.301 110.911 250.6 111.038C250.899 111.165 251.157 111.347 251.374 111.584C251.591 111.822 251.765 112.104 251.896 112.432C252.031 112.759 252.129 113.123 252.19 113.525V115.164C252.141 115.541 252.051 115.886 251.92 116.202C251.789 116.513 251.615 116.785 251.398 117.018C251.181 117.247 250.919 117.426 250.612 117.552C250.309 117.675 249.959 117.737 249.562 117.737C249.165 117.737 248.809 117.655 248.494 117.491C248.179 117.327 247.911 117.096 247.69 116.797C247.469 116.494 247.299 116.136 247.18 115.723C247.065 115.309 247.008 114.855 247.008 114.36ZM247.745 114.231V114.36C247.745 114.748 247.784 115.109 247.861 115.44C247.939 115.772 248.058 116.06 248.218 116.306C248.377 116.552 248.58 116.744 248.825 116.883C249.071 117.022 249.36 117.092 249.691 117.092C250.113 117.092 250.467 117.012 250.753 116.852C251.04 116.689 251.267 116.474 251.435 116.208C251.603 115.938 251.726 115.643 251.803 115.324V113.414C251.758 113.197 251.689 112.976 251.595 112.751C251.505 112.526 251.378 112.319 251.214 112.131C251.054 111.938 250.85 111.785 250.6 111.67C250.354 111.551 250.056 111.492 249.704 111.492C249.368 111.492 249.075 111.562 248.825 111.701C248.58 111.84 248.377 112.035 248.218 112.284C248.058 112.53 247.939 112.818 247.861 113.15C247.784 113.482 247.745 113.842 247.745 114.231Z" fill="#618B16"/>
<path d="M256.216 117.737C255.782 117.737 255.383 117.657 255.018 117.497C254.658 117.338 254.343 117.112 254.073 116.822C253.807 116.531 253.6 116.187 253.453 115.79C253.309 115.389 253.238 114.951 253.238 114.476V114.212C253.238 113.701 253.314 113.238 253.465 112.825C253.616 112.411 253.825 112.057 254.091 111.762C254.357 111.468 254.66 111.242 255 111.087C255.344 110.927 255.704 110.847 256.081 110.847C256.502 110.847 256.877 110.923 257.204 111.075C257.532 111.222 257.806 111.433 258.027 111.707C258.252 111.977 258.422 112.299 258.537 112.671C258.651 113.039 258.709 113.447 258.709 113.893V114.341H253.68V113.715H257.978V113.629C257.97 113.256 257.894 112.908 257.751 112.585C257.612 112.258 257.403 111.992 257.124 111.787C256.846 111.582 256.498 111.48 256.081 111.48C255.77 111.48 255.483 111.545 255.221 111.676C254.963 111.807 254.74 111.996 254.552 112.241C254.368 112.483 254.224 112.771 254.122 113.107C254.024 113.439 253.975 113.807 253.975 114.212V114.476C253.975 114.845 254.028 115.188 254.134 115.508C254.245 115.823 254.4 116.101 254.601 116.343C254.806 116.584 255.047 116.773 255.325 116.908C255.604 117.043 255.911 117.11 256.246 117.11C256.639 117.11 256.987 117.039 257.29 116.895C257.593 116.748 257.865 116.517 258.107 116.202L258.567 116.558C258.424 116.771 258.244 116.967 258.027 117.147C257.814 117.327 257.558 117.471 257.26 117.577C256.961 117.683 256.613 117.737 256.216 117.737Z" fill="#618B16"/>
<path d="M267.202 115.416C267.202 115.17 267.161 114.951 267.079 114.759C266.997 114.566 266.862 114.394 266.674 114.243C266.489 114.087 266.24 113.944 265.924 113.813C265.613 113.678 265.225 113.545 264.758 113.414C264.312 113.287 263.908 113.148 263.548 112.996C263.188 112.845 262.879 112.671 262.621 112.475C262.367 112.278 262.173 112.049 262.038 111.787C261.903 111.521 261.835 111.212 261.835 110.86C261.835 110.516 261.909 110.203 262.056 109.92C262.204 109.638 262.41 109.394 262.676 109.19C262.947 108.985 263.264 108.827 263.628 108.717C263.997 108.606 264.4 108.551 264.838 108.551C265.464 108.551 266.004 108.67 266.459 108.907C266.917 109.145 267.271 109.466 267.521 109.871C267.775 110.272 267.902 110.723 267.902 111.222H267.146C267.146 110.833 267.054 110.487 266.87 110.184C266.69 109.877 266.428 109.638 266.084 109.466C265.744 109.29 265.329 109.202 264.838 109.202C264.346 109.202 263.933 109.278 263.597 109.429C263.266 109.576 263.014 109.775 262.842 110.025C262.674 110.27 262.59 110.545 262.59 110.847C262.59 111.06 262.631 111.257 262.713 111.437C262.795 111.613 262.928 111.779 263.112 111.934C263.301 112.086 263.548 112.229 263.855 112.364C264.162 112.495 264.541 112.62 264.991 112.739C265.466 112.87 265.888 113.015 266.256 113.175C266.624 113.334 266.936 113.518 267.189 113.727C267.443 113.932 267.636 114.171 267.767 114.446C267.898 114.72 267.963 115.039 267.963 115.403C267.963 115.768 267.885 116.095 267.73 116.386C267.578 116.672 267.363 116.916 267.085 117.116C266.811 117.317 266.485 117.471 266.109 117.577C265.736 117.683 265.329 117.737 264.887 117.737C264.49 117.737 264.095 117.685 263.702 117.583C263.309 117.481 262.949 117.323 262.621 117.11C262.298 116.893 262.038 116.615 261.841 116.275C261.649 115.936 261.553 115.53 261.553 115.06H262.302C262.302 115.436 262.378 115.753 262.529 116.011C262.68 116.269 262.881 116.478 263.131 116.638C263.385 116.797 263.663 116.914 263.966 116.988C264.273 117.057 264.58 117.092 264.887 117.092C265.358 117.092 265.765 117.022 266.109 116.883C266.457 116.744 266.725 116.55 266.913 116.3C267.105 116.046 267.202 115.751 267.202 115.416Z" fill="#618B16"/>
<path d="M269.52 112.247V120.168H268.783V110.97H269.471L269.52 112.247ZM274.138 114.231V114.36C274.138 114.855 274.08 115.309 273.966 115.723C273.851 116.136 273.685 116.494 273.468 116.797C273.255 117.096 272.991 117.327 272.676 117.491C272.361 117.655 272.003 117.737 271.602 117.737C271.205 117.737 270.851 117.675 270.539 117.552C270.228 117.43 269.96 117.256 269.735 117.031C269.514 116.801 269.336 116.535 269.201 116.232C269.07 115.925 268.978 115.59 268.925 115.225V113.525C268.986 113.123 269.086 112.759 269.225 112.432C269.365 112.104 269.543 111.822 269.76 111.584C269.981 111.347 270.243 111.165 270.546 111.038C270.848 110.911 271.194 110.847 271.583 110.847C271.988 110.847 272.349 110.927 272.664 111.087C272.983 111.242 273.251 111.47 273.468 111.768C273.689 112.063 273.855 112.419 273.966 112.837C274.08 113.25 274.138 113.715 274.138 114.231ZM273.401 114.36V114.231C273.401 113.842 273.36 113.482 273.278 113.15C273.2 112.818 273.079 112.53 272.916 112.284C272.756 112.035 272.551 111.84 272.302 111.701C272.056 111.562 271.763 111.492 271.424 111.492C271.072 111.492 270.771 111.551 270.521 111.67C270.275 111.785 270.071 111.938 269.907 112.131C269.743 112.319 269.614 112.526 269.52 112.751C269.426 112.976 269.356 113.197 269.311 113.414V115.373C269.389 115.684 269.514 115.972 269.686 116.238C269.858 116.5 270.087 116.711 270.374 116.871C270.664 117.026 271.018 117.104 271.436 117.104C271.772 117.104 272.062 117.035 272.308 116.895C272.553 116.756 272.756 116.562 272.916 116.312C273.079 116.062 273.2 115.772 273.278 115.44C273.36 115.109 273.401 114.748 273.401 114.36Z" fill="#618B16"/>
<path d="M277.709 117.737C277.275 117.737 276.876 117.657 276.511 117.497C276.151 117.338 275.836 117.112 275.566 116.822C275.3 116.531 275.093 116.187 274.946 115.79C274.802 115.389 274.731 114.951 274.731 114.476V114.212C274.731 113.701 274.806 113.238 274.958 112.825C275.109 112.411 275.318 112.057 275.584 111.762C275.85 111.468 276.153 111.242 276.493 111.087C276.837 110.927 277.197 110.847 277.574 110.847C277.995 110.847 278.37 110.923 278.697 111.075C279.025 111.222 279.299 111.433 279.52 111.707C279.745 111.977 279.915 112.299 280.03 112.671C280.144 113.039 280.202 113.447 280.202 113.893V114.341H275.173V113.715H279.471V113.629C279.463 113.256 279.387 112.908 279.244 112.585C279.104 112.258 278.896 111.992 278.617 111.787C278.339 111.582 277.991 111.48 277.574 111.48C277.262 111.48 276.976 111.545 276.714 111.676C276.456 111.807 276.233 111.996 276.045 112.241C275.86 112.483 275.717 112.771 275.615 113.107C275.517 113.439 275.467 113.807 275.467 114.212V114.476C275.467 114.845 275.521 115.188 275.627 115.508C275.738 115.823 275.893 116.101 276.094 116.343C276.298 116.584 276.54 116.773 276.818 116.908C277.097 117.043 277.404 117.11 277.739 117.11C278.132 117.11 278.48 117.039 278.783 116.895C279.086 116.748 279.358 116.517 279.6 116.202L280.06 116.558C279.917 116.771 279.737 116.967 279.52 117.147C279.307 117.327 279.051 117.471 278.752 117.577C278.454 117.683 278.106 117.737 277.709 117.737Z" fill="#618B16"/>
<path d="M283.472 117.104C283.783 117.104 284.073 117.047 284.344 116.932C284.618 116.814 284.843 116.64 285.019 116.41C285.199 116.177 285.302 115.893 285.326 115.557H286.026C286.006 115.979 285.877 116.355 285.639 116.687C285.406 117.014 285.099 117.272 284.718 117.46C284.342 117.645 283.926 117.737 283.472 117.737C283.009 117.737 282.6 117.653 282.244 117.485C281.892 117.317 281.597 117.084 281.36 116.785C281.122 116.482 280.942 116.13 280.819 115.729C280.701 115.324 280.641 114.888 280.641 114.421V114.163C280.641 113.696 280.701 113.263 280.819 112.861C280.942 112.456 281.122 112.104 281.36 111.805C281.597 111.502 281.892 111.267 282.244 111.099C282.596 110.931 283.003 110.847 283.466 110.847C283.94 110.847 284.366 110.944 284.743 111.136C285.123 111.328 285.426 111.601 285.652 111.953C285.881 112.305 286.006 112.722 286.026 113.205H285.326C285.306 112.849 285.211 112.542 285.044 112.284C284.876 112.026 284.655 111.828 284.38 111.689C284.106 111.549 283.801 111.48 283.466 111.48C283.089 111.48 282.768 111.554 282.502 111.701C282.236 111.844 282.019 112.043 281.851 112.297C281.687 112.546 281.566 112.833 281.488 113.156C281.411 113.475 281.372 113.811 281.372 114.163V114.421C281.372 114.777 281.409 115.117 281.482 115.44C281.56 115.76 281.681 116.044 281.845 116.294C282.012 116.543 282.229 116.742 282.495 116.889C282.766 117.033 283.091 117.104 283.472 117.104Z" fill="#618B16"/>
<path d="M287.694 110.97V117.614H286.963V110.97H287.694ZM286.834 109.048C286.834 108.909 286.877 108.793 286.963 108.698C287.053 108.6 287.176 108.551 287.331 108.551C287.487 108.551 287.61 108.6 287.7 108.698C287.794 108.793 287.841 108.909 287.841 109.048C287.841 109.183 287.794 109.3 287.7 109.398C287.61 109.493 287.487 109.54 287.331 109.54C287.176 109.54 287.053 109.493 286.963 109.398C286.877 109.3 286.834 109.183 286.834 109.048Z" fill="#618B16"/>
<path d="M293.113 116.423V112.996C293.113 112.681 293.047 112.409 292.916 112.18C292.786 111.951 292.593 111.775 292.339 111.652C292.086 111.529 291.772 111.468 291.4 111.468C291.056 111.468 290.749 111.529 290.479 111.652C290.213 111.77 290.002 111.932 289.846 112.137C289.695 112.337 289.619 112.561 289.619 112.806L288.882 112.8C288.882 112.55 288.944 112.309 289.067 112.075C289.189 111.842 289.363 111.633 289.589 111.449C289.814 111.265 290.082 111.12 290.393 111.013C290.708 110.903 291.054 110.847 291.431 110.847C291.905 110.847 292.323 110.927 292.683 111.087C293.047 111.247 293.332 111.486 293.537 111.805C293.741 112.125 293.844 112.526 293.844 113.009V116.22C293.844 116.449 293.86 116.687 293.893 116.932C293.93 117.178 293.981 117.381 294.046 117.54V117.614H293.266C293.217 117.466 293.178 117.282 293.15 117.061C293.125 116.836 293.113 116.623 293.113 116.423ZM293.285 113.746L293.297 114.31H291.854C291.478 114.31 291.14 114.345 290.841 114.415C290.546 114.48 290.297 114.579 290.092 114.71C289.887 114.836 289.73 114.99 289.619 115.17C289.513 115.35 289.46 115.555 289.46 115.784C289.46 116.022 289.519 116.238 289.638 116.435C289.76 116.631 289.932 116.789 290.153 116.908C290.379 117.022 290.645 117.08 290.952 117.08C291.361 117.08 291.721 117.004 292.032 116.852C292.348 116.701 292.607 116.502 292.812 116.257C293.017 116.011 293.154 115.743 293.223 115.453L293.543 115.876C293.49 116.081 293.391 116.292 293.248 116.509C293.109 116.721 292.927 116.922 292.702 117.11C292.476 117.295 292.21 117.446 291.903 117.565C291.6 117.679 291.257 117.737 290.872 117.737C290.438 117.737 290.059 117.655 289.736 117.491C289.417 117.327 289.167 117.104 288.987 116.822C288.811 116.535 288.723 116.212 288.723 115.852C288.723 115.524 288.792 115.231 288.932 114.974C289.071 114.712 289.271 114.491 289.533 114.31C289.799 114.126 290.119 113.987 290.491 113.893C290.868 113.795 291.289 113.746 291.756 113.746H293.285Z" fill="#618B16"/>
<path d="M296.003 108.183V117.614H295.272V108.183H296.003Z" fill="#618B16"/>
<path d="M298.198 110.97V117.614H297.468V110.97H298.198ZM297.339 109.048C297.339 108.909 297.382 108.793 297.468 108.698C297.558 108.6 297.68 108.551 297.836 108.551C297.992 108.551 298.114 108.6 298.204 108.698C298.299 108.793 298.346 108.909 298.346 109.048C298.346 109.183 298.299 109.3 298.204 109.398C298.114 109.493 297.992 109.54 297.836 109.54C297.68 109.54 297.558 109.493 297.468 109.398C297.382 109.3 297.339 109.183 297.339 109.048Z" fill="#618B16"/>
<path d="M303.556 115.919C303.556 115.739 303.511 115.561 303.421 115.385C303.331 115.209 303.157 115.047 302.899 114.9C302.645 114.753 302.271 114.628 301.775 114.525C301.407 114.443 301.078 114.351 300.787 114.249C300.5 114.147 300.259 114.024 300.062 113.881C299.866 113.737 299.716 113.565 299.614 113.365C299.512 113.164 299.461 112.927 299.461 112.653C299.461 112.407 299.514 112.176 299.62 111.959C299.731 111.738 299.886 111.545 300.087 111.382C300.292 111.214 300.537 111.083 300.824 110.989C301.114 110.895 301.44 110.847 301.8 110.847C302.312 110.847 302.75 110.935 303.114 111.111C303.482 111.283 303.763 111.519 303.955 111.818C304.152 112.116 304.25 112.454 304.25 112.831H303.519C303.519 112.601 303.452 112.385 303.317 112.18C303.186 111.975 302.991 111.807 302.733 111.676C302.48 111.545 302.168 111.48 301.8 111.48C301.419 111.48 301.11 111.537 300.873 111.652C300.635 111.766 300.461 111.912 300.351 112.088C300.245 112.264 300.191 112.446 300.191 112.634C300.191 112.782 300.214 112.917 300.259 113.039C300.308 113.158 300.394 113.269 300.517 113.371C300.644 113.473 300.824 113.57 301.057 113.66C301.29 113.75 301.593 113.838 301.966 113.924C302.502 114.042 302.94 114.188 303.28 114.36C303.624 114.527 303.877 114.736 304.041 114.986C304.205 115.231 304.287 115.53 304.287 115.882C304.287 116.157 304.229 116.408 304.115 116.638C304 116.863 303.834 117.057 303.618 117.221C303.405 117.385 303.147 117.512 302.844 117.602C302.545 117.692 302.209 117.737 301.837 117.737C301.276 117.737 300.801 117.645 300.412 117.46C300.028 117.272 299.735 117.026 299.534 116.724C299.338 116.417 299.24 116.091 299.24 115.747H299.97C299.995 116.091 300.103 116.363 300.296 116.564C300.488 116.76 300.723 116.9 301.002 116.981C301.284 117.063 301.563 117.104 301.837 117.104C302.213 117.104 302.529 117.049 302.782 116.938C303.036 116.828 303.229 116.683 303.36 116.502C303.491 116.322 303.556 116.128 303.556 115.919Z" fill="#618B16"/>
<path d="M307.833 110.97V111.572H304.505V110.97H307.833ZM305.727 109.263H306.458V115.999C306.458 116.306 306.499 116.537 306.581 116.693C306.663 116.848 306.769 116.953 306.9 117.006C307.031 117.059 307.172 117.086 307.324 117.086C307.434 117.086 307.541 117.08 307.643 117.067C307.745 117.051 307.837 117.035 307.919 117.018L307.95 117.638C307.86 117.667 307.743 117.69 307.6 117.706C307.457 117.726 307.313 117.737 307.17 117.737C306.888 117.737 306.638 117.685 306.421 117.583C306.204 117.477 306.034 117.297 305.911 117.043C305.789 116.785 305.727 116.435 305.727 115.993V109.263Z" fill="#618B16"/>
</svg>
