<svg width="37" height="37" viewBox="0 0 37 37" fill="none" xmlns="http://www.w3.org/2000/svg">
<path d="M31.629 5.74381C34.3509 8.59778 35.8682 11.9558 36.3385 15.8036C36.8979 20.3811 36.0107 24.6421 33.3589 28.4347C30.2057 32.9445 25.8463 35.5499 20.3676 36.1935C14.8267 36.8444 9.96282 35.2745 5.85519 31.5086C2.51387 28.4452 0.599213 24.6236 0.119035 20.1021C-0.480104 14.4604 1.18387 9.55723 5.07981 5.46579C8.03555 2.36171 11.7285 0.640812 15.9858 0.139451C21.2912 -0.485337 25.9792 1.00466 30.1272 4.30087C30.6541 4.71962 31.1044 5.23486 31.629 5.74381ZM4.84499 24.9406C5.73426 26.6446 6.88212 28.1368 8.33111 29.4151C13.1201 33.6398 19.9099 34.383 25.4571 31.3108C31.1862 28.1379 34.0507 22.2073 33.0466 15.6952C32.4673 11.9377 30.7328 8.77163 27.6774 6.44982C23.9471 3.61516 19.7201 2.6912 15.1343 3.56165C7.97946 4.91975 3.62749 10.8065 3.25104 17.3592C3.10074 19.9753 3.65704 22.4759 4.84499 24.9406Z" fill="#00395B"/>
<path d="M11.1642 17.1808C12.5606 18.6823 13.9202 20.144 15.3588 21.6906C16.5375 20.4469 17.6533 19.2752 18.7629 18.0976C21.0285 15.6932 23.2789 13.2741 25.5609 10.8854C26.387 10.0205 27.5448 10.1202 28.1237 11.0348C28.5242 11.6675 28.4416 12.476 27.8738 13.1025C26.8655 14.2149 25.8475 15.3188 24.8205 16.414C22.1671 19.2436 19.5131 22.0728 16.8454 24.8889C15.8057 25.9864 14.9731 25.9575 13.9285 24.8421C12.1663 22.9607 10.404 21.0794 8.64544 19.1946C7.61125 18.0862 7.90903 16.6361 9.25372 16.3087C10.0646 16.1113 10.6387 16.5563 11.1642 17.1808Z" fill="#00395B"/>
</svg>
