<svg width="194" height="195" viewBox="0 0 194 195" fill="none" xmlns="http://www.w3.org/2000/svg">
<path d="M194 100.161C194 152.005 158.072 195 104.5 195C50.9284 195 0 152.005 0 100.161C0 48.3178 50.9284 0 104.5 0C158.072 0 194 48.3178 194 100.161Z" fill="#618B16"/>
<path d="M36.9123 111.679C38.5282 109.231 40.69 107.491 43.2069 106.149C46.0355 104.639 48.8432 103.091 51.6812 101.6C52.6234 101.105 53.0761 100.459 53.0728 99.35C53.0471 90.7295 53.0855 82.1087 53.0638 73.4881C53.0508 68.3075 54.2984 63.5282 57.4236 59.3337C60.9473 54.6042 65.6781 51.857 71.4825 50.9315C76.5352 50.1259 81.3762 50.8488 85.892 53.2354C91.8441 56.3812 95.3624 61.3986 96.753 67.9471C97.1078 69.6177 97.2008 71.3127 97.1998 73.0174C97.1947 81.7634 97.2125 90.5095 97.1795 99.2554C97.1754 100.358 97.5834 101.008 98.5405 101.511C101.665 103.156 104.762 104.853 107.861 106.546C108.876 107.101 109.821 107.761 110.601 108.63C111.514 109.647 111.296 110.812 110.068 111.389C109.498 111.657 108.896 111.628 108.479 111.139C107.729 110.261 106.79 109.631 105.812 109.089C102.462 107.237 99.078 105.445 95.6495 103.599C94.4859 104.829 93.2676 106.005 91.8014 106.902C88.3034 109.044 84.4719 110.17 80.4483 110.755C77.9118 111.125 75.3645 111.233 72.814 111.035C67.0395 110.589 61.557 109.238 56.8481 105.637C56.2339 105.167 55.6696 104.624 55.1286 104.069C54.7935 103.726 54.5385 103.669 54.0975 103.911C50.9378 105.648 47.7671 107.366 44.5883 109.068C41.0103 110.984 38.5929 113.778 37.8787 117.865C37.7459 118.625 37.643 119.392 37.6435 120.173C37.6505 131.626 37.6487 143.078 37.6474 154.531C37.6472 155.65 37.1504 156.333 36.264 156.454C35.3544 156.577 34.5411 155.939 34.4137 154.991C34.3872 154.794 34.3979 154.591 34.3979 154.39C34.3981 143.214 34.3826 132.037 34.41 120.86C34.418 117.61 35.0374 114.493 36.9123 111.679ZM56.2969 84.6007C56.2968 89.3365 56.296 94.0723 56.2982 98.8081C56.2984 99.1567 56.3065 99.4997 56.3892 99.8497C56.7623 101.428 57.8563 102.455 59.099 103.324C63.1532 106.158 67.7629 107.405 72.6173 107.758C76.4477 108.037 80.2683 107.795 83.9879 106.719C87.1431 105.806 90.1276 104.549 92.5255 102.198C93.4836 101.259 93.9498 100.13 93.9474 98.7682C93.9322 89.9732 93.9347 81.1782 93.9454 72.3832C93.9468 71.1783 93.8775 69.9869 93.6506 68.8026C92.7613 64.1617 90.5619 60.3164 86.7059 57.5163C82.5175 54.4747 77.8017 53.4616 72.7045 54.0335C68.5639 54.4981 64.9186 56.0987 61.9408 59.0159C58.1825 62.6979 56.3678 67.2576 56.3061 72.4982C56.2593 76.4817 56.2969 80.4662 56.2969 84.6007Z" fill="black"/>
<path d="M102.367 130.262C103.231 126.797 104.451 123.511 105.57 120.194C106.33 117.942 107.958 116.411 110.003 115.296C111.105 114.696 112.253 114.196 113.481 113.908C113.89 113.812 114.181 113.621 114.379 113.212C115.479 110.934 116.595 108.663 117.738 106.406C117.979 105.93 117.815 105.703 117.461 105.412C114.199 102.73 112.276 99.2645 111.723 95.1023C110.822 88.3159 114.041 81.2895 120.991 78.0445C130.65 73.535 142.461 79.0307 144.492 89.7888C146.226 98.9735 140.174 107.196 131.685 109.078C130.706 109.295 129.711 109.392 128.714 109.459C128.256 109.49 128.022 109.703 127.865 110.143C126.752 113.252 125.621 116.354 124.472 119.449C124.301 119.908 124.451 120.108 124.819 120.351C126.381 121.381 127.497 122.756 127.908 124.62C128.148 125.711 128.146 126.817 127.79 127.879C126.854 130.677 125.907 133.473 124.91 136.25C124.29 137.981 123.102 139.239 121.391 139.948C120.942 140.134 120.8 140.391 120.805 140.854C120.832 143.383 120.848 145.914 120.657 148.439C120.481 150.754 120.271 153.068 119.766 155.34C119.566 156.241 118.842 156.724 118.007 156.6C117.144 156.473 116.626 155.852 116.659 154.909C116.676 154.412 116.756 153.915 116.843 153.425C117.227 151.259 117.474 149.083 117.581 146.882C117.667 145.103 117.694 143.328 117.703 141.55C117.705 141.149 117.682 140.753 117.574 140.364C113.396 143.636 111.407 143.852 106.276 141.571C105.992 142.873 105.936 144.193 105.778 145.498C105.479 147.976 105.202 150.456 104.919 152.936C104.846 153.581 104.78 154.227 104.722 154.873C104.632 155.881 103.926 156.532 102.993 156.457C102.062 156.382 101.464 155.617 101.578 154.607C102.029 150.64 102.491 146.675 102.945 142.708C103.104 141.32 103.252 139.931 103.408 138.542C103.455 138.125 103.303 137.759 103.145 137.387C102.179 135.113 101.992 132.751 102.367 130.262ZM124.984 79.9612C124.718 80.0297 124.451 80.0921 124.187 80.1675C117.844 81.9828 113.925 88.3136 114.916 94.9357C116.07 102.64 123.797 108.306 132.299 105.659C138.249 103.806 142.537 97.6912 141.475 90.8244C140.994 87.7149 139.628 85.068 137.222 83.0304C133.698 80.0476 129.643 79.0183 124.984 79.9612ZM110.482 132.29C110.459 131.861 110.507 131.443 110.648 131.034C111.45 128.719 112.235 126.398 113.051 124.087C113.519 122.759 114.422 121.834 115.772 121.38C116.601 121.101 117.43 120.817 118.269 120.569C119.732 120.137 119.737 120.142 119.08 118.715C118.464 117.377 116.973 116.461 115.719 116.678C114.255 116.932 112.859 117.413 111.544 118.096C110.044 118.875 108.935 120.026 108.398 121.664C107.541 124.277 106.676 126.887 105.84 129.507C105.218 131.459 105.158 133.424 105.776 135.403C106.582 137.986 108.732 140.214 111.541 139.967C112.701 139.865 113.757 139.51 114.715 138.702C113.596 137.878 112.462 137.222 111.693 136.13C110.908 135.015 110.373 133.833 110.482 132.29ZM113.738 131.857C113.403 132.751 113.644 133.531 114.229 134.228C115.134 135.307 116.257 136.127 117.579 136.562C119.686 137.254 121.7 136.878 122.239 134.335C122.27 134.189 122.337 134.051 122.386 133.909C123.191 131.568 123.985 129.224 124.803 126.888C125.454 125.03 123.517 122.14 121.225 122.898C119.923 123.329 118.615 123.75 117.31 124.176C116.528 124.43 116.077 124.913 115.822 125.707C115.174 127.729 114.455 129.728 113.738 131.857ZM123.171 108.851C122.327 108.555 121.483 108.258 120.539 107.927C119.592 109.826 118.639 111.736 117.655 113.708C118.578 114.049 119.433 114.335 120.146 114.892C120.875 115.461 121.434 116.187 121.987 117.058C122.943 114.428 123.86 111.906 124.787 109.356C124.258 109.081 123.761 109.021 123.171 108.851Z" fill="black"/>
<path d="M159.911 41.2129C159.911 78.934 159.912 116.58 159.912 154.226C159.912 155.482 159.599 156.045 158.741 156.326C157.728 156.658 156.724 155.979 156.66 154.912C156.643 154.637 156.654 154.361 156.654 154.085C156.654 141.629 156.654 129.172 156.654 116.715C156.654 115.119 156.652 115.162 155.075 115.097C152.752 115.001 150.794 114.142 149.463 112.141C148.927 111.336 148.607 110.429 148.55 109.47C148.478 108.275 147.916 107.508 146.806 107.1C146.338 106.928 145.861 106.757 145.428 106.514C144.538 106.015 144.248 105.163 144.644 104.362C145.057 103.525 145.943 103.221 146.869 103.67C147.746 104.096 148.698 104.367 149.499 104.949C150.816 105.904 151.552 107.18 151.643 108.809C151.736 110.471 152.926 111.707 154.597 111.856C156.653 112.038 156.653 112.038 156.653 109.958C156.653 97.5514 156.654 85.1448 156.654 72.7382C156.654 71.5859 156.485 71.4596 155.397 71.8001C154.286 72.1479 153.858 73.0026 153.742 74.0729C153.611 75.2812 153.373 76.4404 152.544 77.4042C151.308 78.8415 149.705 79.2454 147.927 78.9647C146.898 78.8022 146.001 78.9632 145.12 79.4648C144.221 79.9769 143.618 79.7979 142.966 78.8616C142.466 78.1423 142.557 77.5349 143.279 76.8833C144.139 76.107 145.194 75.809 146.313 75.7636C147.109 75.7313 147.906 75.7313 148.709 75.855C149.715 76.0098 150.402 75.2141 150.491 73.9989C150.653 71.7664 151.65 70.0433 153.67 68.984C154.389 68.6065 155.176 68.4279 155.979 68.4017C156.515 68.3843 156.697 68.1682 156.656 67.6685C156.637 67.4445 156.653 67.2177 156.653 66.9921C156.654 55.9389 156.653 44.8858 156.655 33.8326C156.656 32.62 157.423 31.8627 158.496 31.998C159.333 32.1035 159.9 32.8192 159.905 33.8442C159.918 36.2753 159.91 38.7065 159.911 41.2129Z" fill="black"/>
<path d="M133.713 39.6906C136.435 42.5446 137.952 45.9026 138.422 49.7503C138.982 54.3278 138.095 58.5888 135.443 62.3814C132.29 66.8912 127.93 69.4966 122.452 70.1403C116.911 70.7912 112.047 69.2213 107.939 65.4553C104.598 62.392 102.683 58.5703 102.203 54.0488C101.604 48.4072 103.268 43.504 107.164 39.4126C110.12 36.3085 113.813 34.5876 118.07 34.0862C123.375 33.4614 128.063 34.9514 132.211 38.2476C132.738 38.6664 133.188 39.1816 133.713 39.6906ZM106.929 58.8874C107.818 60.5914 108.966 62.0836 110.415 63.3618C115.204 67.5866 121.994 68.3297 127.541 65.2576C133.27 62.0847 136.135 56.154 135.131 49.642C134.551 45.8845 132.817 42.7184 129.761 40.3966C126.031 37.5619 121.804 36.638 117.218 37.5084C110.063 38.8665 105.711 44.7533 105.335 51.306C105.185 53.9221 105.741 56.4227 106.929 58.8874Z" fill="white"/>
<path d="M97.1078 120.401C98.9973 125.481 96.0945 130.719 90.7872 131.58C85.4211 132.451 81.5282 128.244 81.279 123.956C81.0522 120.052 83.4378 116.823 86.8037 115.654C90.8678 114.243 95.4005 116.298 97.1078 120.401ZM87.9238 120.1C87.9238 119.638 87.9238 119.175 87.9238 118.695C86.4183 118.985 85.0062 120.402 84.6931 121.921C85.2267 121.921 85.7422 121.927 86.2575 121.92C88.1732 121.894 87.8978 122.183 87.9238 120.1ZM93.6162 120.473C92.9656 119.632 92.1865 118.975 91.0365 118.629C91.0365 119.647 91.0356 120.565 91.0371 121.482C91.0374 121.706 91.1208 121.897 91.3675 121.9C92.3027 121.912 93.2381 121.905 94.286 121.905C94.1198 121.326 93.9183 120.937 93.6162 120.473ZM94.096 125.622C94.2554 125.284 94.2508 125.037 93.7796 125.039C93.0325 125.041 92.2854 125.039 91.5383 125.04C91.2986 125.041 91.0571 125.081 91.0528 125.377C91.039 126.33 91.0477 127.284 91.0477 128.329C92.4766 127.802 93.418 126.938 94.096 125.622ZM86.4328 127.502C86.8509 127.801 87.2524 128.134 87.913 128.215C87.913 127.24 87.9155 126.326 87.9111 125.412C87.9101 125.212 87.796 125.06 87.5968 125.057C86.6598 125.046 85.7226 125.052 84.7707 125.052C84.9243 125.973 85.3961 126.66 86.4328 127.502Z" fill="black"/>
<path d="M49.1285 129.192C49.1277 127.288 49.1246 125.46 49.1272 123.632C49.129 122.452 49.774 121.653 50.7181 121.649C51.7271 121.644 52.3733 122.408 52.3745 123.655C52.3799 129.265 52.3766 134.875 52.3764 140.485C52.3762 145.093 52.3771 149.701 52.3727 154.309C52.3725 154.608 52.3713 154.916 52.3006 155.202C52.0973 156.025 51.3752 156.533 50.5784 156.453C49.7833 156.374 49.1685 155.729 49.1364 154.887C49.1087 154.162 49.1284 153.435 49.1284 152.708C49.1283 144.894 49.1284 137.081 49.1285 129.192Z" fill="black"/>
<path d="M151.143 97.487C151.618 98.2131 151.642 98.894 151.138 99.5433C150.703 100.103 150.108 100.325 149.413 100.181C148.428 99.9758 147.841 98.9454 148.143 97.998C148.447 97.0473 149.492 96.5803 150.438 96.9772C150.692 97.0839 150.929 97.2194 151.143 97.487Z" fill="black"/>
<path d="M138.521 71.1233C139.638 71.3578 140.107 71.7583 140.206 72.5078C140.313 73.3263 139.985 73.9796 139.305 74.3031C138.435 74.7166 137.403 74.3493 137.042 73.4971C136.649 72.5705 137.077 71.5858 138.028 71.2409C138.168 71.1903 138.316 71.1635 138.521 71.1233Z" fill="black"/>
<path d="M145.968 70.7237C145.855 71.7585 145.403 72.2895 144.608 72.3886C143.74 72.4969 143.066 72.1034 142.764 71.312C142.505 70.6337 142.734 69.8879 143.336 69.4509C144.373 68.698 145.696 69.3113 145.968 70.7237Z" fill="black"/>
<path d="M142.801 110.508C143.316 111.725 142.823 112.795 141.714 112.988C140.956 113.12 140.268 112.793 139.958 112.154C139.645 111.505 139.779 110.67 140.27 110.215C140.841 109.686 141.685 109.609 142.341 110.045C142.503 110.153 142.627 110.319 142.801 110.508Z" fill="black"/>
<path d="M149.024 67.7277C148.012 67.5913 147.421 67.0555 147.338 66.2589C147.265 65.5459 147.666 64.9141 148.38 64.6167C149.077 64.3268 149.82 64.5492 150.295 65.1902C151.057 66.217 150.48 67.4292 149.024 67.7277Z" fill="black"/>
<path d="M147.223 116.944C146.894 117.417 146.526 117.74 145.987 117.807C145.2 117.903 144.569 117.559 144.277 116.874C144 116.224 144.199 115.415 144.747 114.967C145.301 114.514 146.109 114.481 146.704 114.888C147.298 115.293 147.513 116.083 147.223 116.944Z" fill="black"/>
<path d="M149.984 84.6466C149.205 85.7021 148.341 85.9123 147.551 85.2888C146.846 84.7316 146.684 83.8978 147.139 83.1642C147.56 82.4842 148.395 82.2312 149.161 82.5512C149.949 82.8803 150.269 83.6509 149.984 84.6466Z" fill="black"/>
<path d="M153.378 101.607C153.861 100.649 154.499 100.318 155.313 100.55C156.121 100.78 156.549 101.441 156.457 102.321C156.378 103.081 155.704 103.671 154.915 103.67C154.106 103.669 153.437 103.106 153.356 102.341C153.333 102.119 153.36 101.892 153.378 101.607Z" fill="black"/>
<path d="M150.61 90.7576C150.153 90.0875 150.146 89.4508 150.561 88.8284C150.964 88.2246 151.581 88.1499 152.225 88.258C152.858 88.3644 153.222 88.8037 153.385 89.3956C153.579 90.1022 153.328 90.6815 152.746 91.0906C152.094 91.5486 151.357 91.4283 150.61 90.7576Z" fill="black"/>
<path d="M155.55 83.4771C155.791 84.4762 155.413 85.2194 154.575 85.4834C153.779 85.7341 153.024 85.37 152.701 84.5792C152.404 83.8526 152.711 83.0242 153.405 82.6784C154.23 82.2677 155.012 82.5401 155.55 83.4771Z" fill="black"/>
<path d="M91.1755 70.0705C91.783 71.0807 92.1061 72.1098 92.0946 73.2474C92.0765 75.0268 92.0919 76.8066 92.0892 78.5862C92.0845 81.6897 89.2451 84.7684 86.1504 85.0335C85.8542 85.0589 85.5602 85.11 85.1971 85.1582C85.7045 86.0233 86.1994 86.857 86.5736 87.7523C86.685 88.0189 86.929 88.0549 87.1926 88.0913C87.8104 88.1767 88.4274 88.2791 89.0369 88.4112C91.0872 88.8556 92.2002 90.5823 91.7465 92.6261C91.2704 94.7706 90.7769 96.9113 90.283 99.0517C89.8302 101.014 88.0536 102.197 86.1402 101.572C84.8026 101.134 83.918 101.312 82.8484 102.271C80.8156 104.093 78.3139 104.977 75.5605 105.027C72.1652 105.089 69.2317 103.921 66.7936 101.573C66.2612 101.06 65.8372 100.986 65.1521 101.249C62.5575 102.244 60.7332 101.238 60.0885 98.5507C59.6691 96.8024 59.235 95.0574 58.7882 93.3159C58.5922 92.5523 58.4797 91.7706 58.6485 91.0126C58.9407 89.7006 59.8107 88.8786 61.1088 88.542C61.7843 88.3668 62.4697 88.2137 63.16 88.1174C63.5883 88.0577 63.815 87.8738 63.9878 87.4863C64.3218 86.7374 64.712 86.0136 65.0884 85.2604C64.5152 84.9706 63.8964 85.0372 63.3245 84.8787C60.4558 84.084 58.2999 81.2831 58.2979 78.3078C58.2968 76.6785 58.3328 75.0484 58.2909 73.4203C58.1852 69.319 62.0768 66.622 64.9631 66.603C71.7303 66.5587 78.4986 66.5433 85.2654 66.6146C87.7929 66.6413 89.7048 67.9921 91.1755 70.0705ZM63.1442 81.323C64.5947 82.2303 66.2003 81.8665 67.7575 81.8658C67.9197 81.8658 68.0954 81.6678 68.2419 81.5362C69.3966 80.4988 70.5429 79.4521 71.6971 78.4142C73.8177 76.5072 76.1068 76.4131 78.3455 78.1823C79.1888 78.8487 80.0204 79.5465 80.7618 80.3214C81.8515 81.4603 83.0315 82.2436 84.6969 81.923C84.9386 81.8765 85.1971 81.9248 85.447 81.9125C87.1565 81.8284 88.5182 80.6984 88.8213 79.029C89.1634 77.144 89.0503 75.2268 88.9254 73.3402C88.7929 71.3379 87.1661 69.8542 85.3417 69.8494C78.6037 69.8316 71.8656 69.8297 65.1277 69.8513C63.3114 69.8571 61.7858 71.2984 61.5411 73.0827C61.3083 74.7802 61.3985 76.4855 61.4396 78.1835C61.4696 79.4258 61.9795 80.5162 63.1442 81.323ZM69.6739 99.8955C72.0893 101.747 74.7459 102.391 77.714 101.519C83.729 99.7526 86.1954 92.6719 82.705 87.257C81.006 84.6212 78.6392 82.6506 76.283 80.6702C75.4673 79.9846 74.8899 79.996 74.0517 80.703C72.0253 82.4124 69.9718 84.1022 68.3765 86.2559C65.2004 90.544 65.4286 96.4684 69.6739 99.8955ZM63.0327 97.0993C63.0857 97.3162 63.1297 97.5359 63.1934 97.7496C63.397 98.4337 63.5487 98.4647 64.1621 97.9204C63.3469 96.0839 62.9773 94.144 63.1136 92.1199C63.1519 91.5512 62.869 91.4147 62.3853 91.5061C61.9616 91.5862 61.6277 91.6957 61.7907 92.2879C62.2194 93.8452 62.5978 95.4165 63.0327 97.0993ZM87.4257 91.9187C87.3758 92.791 87.4665 93.6619 87.3304 94.5396C87.1566 95.6604 86.842 96.7318 86.4568 97.7894C86.3177 98.1712 86.3506 98.4491 86.8387 98.4412C87.1395 98.4364 87.1611 98.1719 87.212 97.9556C87.6746 95.9878 88.1302 94.0182 88.6019 92.0526C88.6766 91.7412 88.5998 91.505 88.2918 91.5226C88.0013 91.5391 87.5071 91.0813 87.4257 91.9187Z" fill="black"/>
<path d="M136.272 89.7955C136.548 90.3003 136.78 90.6646 137.422 90.7516C138.407 90.8851 138.97 91.7096 138.84 92.5419C138.7 93.4432 138.039 93.9286 136.988 93.8996C136.792 93.8942 136.596 93.8808 136.408 93.8715C135.964 95.2708 135.175 95.7723 134.046 95.4183C133.385 95.2113 133.066 94.7704 133.039 94.0935C133.019 93.5907 133.044 93.0926 133.206 92.6119C133.469 91.8348 133.393 91.1195 132.773 90.5422C132.17 89.9815 131.466 89.858 130.683 90.1427C130.428 90.2355 130.152 90.2838 129.881 90.3176C128.808 90.4515 127.995 89.8979 127.818 88.9289C127.659 88.0619 128.374 87.0934 129.333 86.9001C129.626 86.8411 129.929 86.8055 130.227 86.8052C131.067 86.8043 131.215 86.6921 131.227 85.8249C131.234 85.3032 131.34 84.8304 131.66 84.4207C132.153 83.7889 133.056 83.5809 133.83 83.9048C134.594 84.2243 135.028 84.9985 134.882 85.8633C134.811 86.2789 134.673 86.6853 134.541 87.0877C134.253 87.9648 134.352 88.3306 135.11 88.8843C135.493 89.1644 135.914 89.3928 136.272 89.7955Z" fill="black"/>
<path d="M124.124 94.8155C125.63 95.1178 126.487 96.4026 126.225 97.89C126.014 99.0902 124.821 99.9195 123.544 99.7542C122.305 99.5938 121.191 98.126 121.341 96.8499C121.5 95.4866 122.571 94.6815 124.124 94.8155Z" fill="black"/>
<path d="M122.107 90.1473C120.876 90.0439 120.359 89.4778 120.411 88.3602C120.453 87.4523 121.083 86.8686 122.031 86.8592C122.998 86.8497 123.748 87.4996 123.815 88.4055C123.887 89.3653 123.285 90.0029 122.107 90.1473Z" fill="black"/>
<path d="M128.261 99.003C128.659 98.2626 129.232 97.9367 130.009 98.0786C130.749 98.2136 131.206 98.6897 131.32 99.4253C131.427 100.116 131.225 100.728 130.575 101.079C129.953 101.415 129.305 101.381 128.757 100.93C128.169 100.445 127.959 99.8073 128.261 99.003Z" fill="black"/>
<path d="M134.843 99.4171C134.656 98.538 135.012 97.8094 135.689 97.5979C136.458 97.3576 137.204 97.6983 137.487 98.4194C137.78 99.1639 137.483 99.9221 136.776 100.239C135.994 100.588 135.356 100.334 134.843 99.4171Z" fill="black"/>
<path d="M119.053 92.5518C119.604 93.3791 119.587 94.0341 119.045 94.5398C118.509 95.0403 117.762 95.0835 117.208 94.6459C116.652 94.206 116.492 93.4452 116.828 92.8376C117.259 92.0571 118.098 91.9306 119.053 92.5518Z" fill="black"/>
<path d="M127.773 84.0851C127.373 84.803 126.804 85.031 126.103 84.7874C125.386 84.5384 125.17 83.959 125.221 83.2347C125.27 82.551 125.651 82.1858 126.29 82.0906C126.951 81.9918 127.463 82.2548 127.763 82.8652C127.949 83.2422 127.914 83.6378 127.773 84.0851Z" fill="black"/>
<path d="M126.557 102.312C127.139 102.57 127.392 102.97 127.21 103.531C127.048 104.031 126.662 104.332 126.12 104.226C125.616 104.126 125.357 103.721 125.398 103.23C125.451 102.597 125.834 102.253 126.557 102.312Z" fill="black"/>
<path d="M113.248 51.1276C114.645 52.629 116.004 54.0907 117.443 55.6374C118.621 54.3937 119.737 53.222 120.847 52.0444C123.113 49.6399 125.363 47.2209 127.645 44.8321C128.471 43.9673 129.629 44.067 130.208 44.9816C130.608 45.6142 130.526 46.4228 129.958 47.0493C128.949 48.1617 127.932 49.2656 126.904 50.3608C124.251 53.1904 121.597 56.0196 118.929 58.8357C117.89 59.9332 117.057 59.9042 116.012 58.7889C114.25 56.9075 112.488 55.0262 110.729 53.1414C109.695 52.0329 109.993 50.5829 111.338 50.2555C112.149 50.0581 112.723 50.5031 113.248 51.1276Z" fill="white"/>
<path d="M79.8833 88.8583C82.8583 91.7717 82.6204 96.2532 79.7393 98.7613C77.8003 100.449 75.5391 100.952 73.089 100.137C70.6083 99.3117 69.0458 97.5401 68.5509 94.987C67.8268 91.2515 70.1956 87.7768 73.9414 87.1007C76.1382 86.7042 78.1675 87.2491 79.8833 88.8583ZM71.7422 92.5931C70.7063 94.9915 73.2227 97.9626 76.0267 97.2385C77.9411 96.7441 79.2646 94.8105 78.8219 93.0564C78.4159 91.4475 77.1515 90.2836 75.6611 90.1469C73.9132 89.9866 72.5916 90.782 71.7422 92.5931Z" fill="black"/>
</svg>
