<svg width="201" height="203" viewBox="0 0 201 203" fill="none" xmlns="http://www.w3.org/2000/svg">
<path d="M9.60524 149.094C-16.3165 104.196 13.8487 38.914 60.2431 12.1282C106.637 -14.6576 165.338 7.03273 191.26 51.9305C217.182 96.8283 185.925 162.952 137.195 191.086C90.8008 217.872 35.527 193.992 9.60524 149.094Z" fill="#618B16"/>
<path d="M151.886 102.527C154.549 104.14 157.214 105.647 159.506 107.704C162.887 110.737 164.9 114.523 165.711 118.972C166.099 121.102 166.193 123.25 166.191 125.413C166.175 137.12 166.181 148.827 166.19 160.534C166.191 161.362 166.028 162.05 165.168 162.385C164.164 162.776 163.142 162.131 163.074 161.051C163.059 160.814 163.069 160.576 163.069 160.339C163.069 148.21 163.124 136.081 163.039 123.953C163.008 119.443 161.895 115.193 158.869 111.644C157.45 109.98 155.728 108.674 153.892 107.527C151.166 105.824 148.398 104.189 145.646 102.528C145.513 102.448 145.367 102.391 145.192 102.305C144.239 103.236 143.261 104.116 142.183 104.873C139.095 107.04 135.566 108.059 131.926 108.748C129.337 109.237 126.712 109.491 124.076 109.376C119.776 109.188 115.542 108.586 111.497 107.019C108.701 105.936 106.229 104.378 104.283 102.007C103.736 102.115 103.287 102.451 102.802 102.693C99.8315 104.172 96.7867 105.517 94.039 107.409C89.3434 110.642 86.6592 115.091 85.9535 120.752C85.761 122.296 85.6523 123.838 85.6536 125.394C85.6632 136.995 85.6591 148.597 85.6586 160.199C85.6585 162.279 84.9352 163.012 82.8573 163.012C66.5624 163.014 50.2675 163.012 33.9726 163.015C33.2212 163.015 32.4905 162.944 31.881 162.455C31.2756 161.97 31.12 161.305 31.1209 160.552C31.131 151.956 31.128 143.361 31.1281 134.765C31.1282 127.013 31.1274 119.261 31.1279 111.509C31.128 109.903 31.5881 109.444 33.1932 109.443C34.3006 109.441 35.4087 109.418 36.5152 109.45C37.082 109.467 37.3107 109.302 37.3069 108.695C37.2844 105.109 37.2871 101.523 37.3047 97.9374C37.3073 97.3862 37.1207 97.1939 36.5707 97.2065C35.3322 97.235 34.0921 97.1969 32.8533 97.2181C32.0757 97.2314 31.532 96.9248 31.2416 96.2013C30.938 95.4444 31.2426 94.8688 31.8194 94.3942C34.404 92.2671 36.9846 90.1351 39.5801 88.0214C44.4442 84.0605 49.3245 80.1194 54.1838 76.1525C56.075 74.6087 56.3274 74.5729 58.225 76.0961C63.6287 80.4335 69.024 84.7814 74.4251 89.1221C76.4374 90.7393 78.4561 92.3485 80.4727 93.9602C81.3781 94.6838 81.5957 95.4592 81.1256 96.293C80.8054 96.8609 80.303 97.0634 79.6734 97.0589C78.3551 97.0494 77.0366 97.0634 75.7184 97.0549C75.3188 97.0523 75.0638 97.1415 75.065 97.6185C75.0751 101.516 75.0406 105.414 75.1798 109.296C75.4247 109.515 75.7011 109.439 75.9558 109.439C79.4626 109.444 82.9695 109.433 86.4762 109.453C87.0017 109.456 87.3368 109.289 87.6767 108.882C90.0314 106.062 92.9971 104.029 96.2287 102.353C98.1234 101.37 100.023 100.397 101.926 99.4298C102.581 99.0968 102.884 98.7165 102.691 97.873C102.382 96.519 102.305 95.1211 102.309 93.7182C102.33 85.9136 102.268 78.1084 102.338 70.3043C102.384 65.1051 103.937 60.3431 107.117 56.1967C110.427 51.8795 114.909 49.4006 120.194 48.4221C125.825 47.3795 131.269 48.09 136.341 50.8214C142.077 53.9099 145.441 58.8133 146.881 65.1023C147.435 67.522 147.658 69.9821 147.663 72.4581C147.677 79.0499 147.688 85.6418 147.649 92.2334C147.637 94.2559 147.476 96.2846 146.988 98.2559C146.799 99.0146 147.024 99.4906 147.612 99.8628C149.013 100.751 150.428 101.619 151.886 102.527ZM82.99 112.554C80.3903 112.554 77.7907 112.554 75.1394 112.554C75.1703 113.724 75.1768 114.774 75.0604 115.819C74.9708 116.626 74.4684 117.2 73.6698 117.294C73.0435 117.368 72.4112 117.424 71.7812 117.427C68.4075 117.443 65.0336 117.438 61.6598 117.444C61.398 117.445 61.0901 117.396 60.8818 117.512C59.526 118.263 58.1002 118.927 57.0839 120.161C56.422 120.965 56.5333 121.613 57.4305 122.194C58.4142 122.831 59.5342 123.155 60.6324 123.517C63.2862 124.393 65.933 125.273 68.2156 126.969C70.8831 128.951 71.3407 131.722 69.3967 134.408C68.1366 136.148 66.4453 137.398 64.6163 138.476C62.1161 139.949 59.4321 141.059 56.8588 142.387C53.9975 143.864 51.1838 145.395 48.9751 147.837C46.1973 150.908 45.6245 155.558 47.6529 158.98C48.0379 159.629 48.4835 159.93 49.2884 159.928C60.016 159.901 70.7438 159.91 81.4715 159.91C82.5381 159.91 82.5478 159.909 82.5406 158.883C82.4753 149.555 82.677 140.225 82.4311 130.897C82.368 128.5 82.41 126.104 82.5302 123.708C82.6623 121.074 82.9403 118.475 83.7321 115.946C84.0826 114.826 84.5993 113.77 85.0792 112.554C84.3445 112.554 83.7455 112.554 82.99 112.554ZM43.6054 151.624C43.78 150.741 44.0862 149.9 44.4641 149.088C46.102 145.571 48.8869 143.18 52.1761 141.298C55.2439 139.543 58.4889 138.133 61.6138 136.489C63.4356 135.531 65.2399 134.535 66.5928 132.919C67.7356 131.554 67.6159 130.504 66.2107 129.445C64.2359 127.957 61.9072 127.26 59.6123 126.487C58.2168 126.016 56.8051 125.59 55.5649 124.75C53.2908 123.208 52.8051 120.9 54.3022 118.588C54.5664 118.179 54.8912 117.811 55.1976 117.411C54.9013 117.241 54.6344 117.31 54.3798 117.31C49.6345 117.305 44.8892 117.307 40.1439 117.306C37.4708 117.306 37.2968 117.131 37.2962 114.433C37.2958 112.557 37.2958 112.557 35.4052 112.564C34.3463 112.567 34.3431 112.567 34.3422 113.605C34.3388 117.875 34.3348 122.146 34.3361 126.417C34.3393 137.252 34.351 148.087 34.3376 158.922C34.3367 159.653 34.5159 159.939 35.3053 159.927C38.0463 159.882 40.7885 159.912 43.5302 159.905C43.78 159.904 44.0561 159.987 44.333 159.74C43.2096 157.176 42.9648 154.501 43.6054 151.624ZM144.558 76.5131C144.509 74.8283 144.418 73.1434 144.422 71.4588C144.427 69.74 144.274 68.0423 143.919 66.3671C142.718 60.7006 139.762 56.2841 134.576 53.5306C130.579 51.4089 126.288 50.9174 121.848 51.4596C117.938 51.9371 114.481 53.5106 111.606 56.164C107.52 59.9354 105.578 64.7946 105.474 70.2584C105.318 78.5338 105.424 86.8143 105.439 95.0926C105.445 98.4249 106.902 100.953 109.786 102.641C113.648 104.902 117.916 105.731 122.296 106.112C125.136 106.358 127.973 106.231 130.792 105.8C134.233 105.274 137.504 104.28 140.443 102.338C142.433 101.024 143.726 99.2668 144.144 96.8862C144.492 94.9055 144.523 92.903 144.542 90.9076C144.59 86.1625 144.558 81.4167 144.558 76.5131ZM40.553 107.679C40.5547 109.55 40.5833 111.422 40.5441 113.293C40.5297 113.977 40.7248 114.214 41.433 114.201C43.6991 114.159 45.9664 114.183 48.2332 114.181C49.7666 114.18 49.7667 114.18 49.7819 112.611C49.7834 112.453 49.7823 112.295 49.7825 112.136C49.7851 108.712 49.7812 105.288 49.7937 101.864C49.7982 100.66 50.2104 100.271 51.4258 100.269C54.5361 100.266 57.6474 100.318 60.7562 100.249C62.6001 100.209 62.7937 101.066 62.8007 102.338C62.8211 106 62.8305 109.663 62.7886 113.325C62.7802 114.052 63.0018 114.208 63.6786 114.194C66.1544 114.14 68.6323 114.102 71.1077 114.149C71.8187 114.163 71.9557 113.951 71.9523 113.322C71.9331 109.816 71.944 106.31 71.9443 102.805C71.9446 100.538 71.9359 98.271 71.9475 96.0042C71.9537 94.7902 72.4568 94.2374 73.6642 94.0707C74.1202 94.0078 74.5791 93.966 75.1565 93.901C68.869 88.6752 62.5622 83.6711 56.2273 78.5891C49.9261 83.7197 43.6556 88.8253 37.3851 93.931C37.739 94.0958 37.9997 94.0953 38.2604 94.0959C40.0868 94.1004 40.5561 94.5645 40.5559 96.3708C40.5556 100.087 40.5541 103.804 40.553 107.679ZM52.9089 107.046C52.9094 109.125 52.9218 111.205 52.9023 113.284C52.8974 113.808 53.0351 114.05 53.6095 114.042C55.3728 114.016 57.1368 114.023 58.9003 114.039C59.3989 114.044 59.6106 113.869 59.6084 113.351C59.5953 110.245 59.5933 107.139 59.611 104.033C59.614 103.493 59.3806 103.362 58.8965 103.366C57.1593 103.38 55.4216 103.385 53.6846 103.36C53.118 103.351 52.8733 103.521 52.8993 104.124C52.9391 105.044 52.9092 105.966 52.9089 107.046Z" fill="black"/>
<path d="M73.7471 64.7283C71.5965 67.4996 69.4537 70.2042 67.0532 72.6912C65.9971 73.7854 65.0613 73.8151 63.9989 72.7031C58.5102 66.958 53.7484 60.6808 50.095 53.5974C45.8878 45.4404 49.6743 34.7128 58.3518 30.8527C65.095 27.853 73.2856 29.5398 78.108 34.7755C80.5878 37.4678 82.0091 40.6594 82.5097 44.2935C83.063 48.3097 82.0811 51.9583 80.0806 55.405C78.199 58.6469 76.0416 61.6998 73.7471 64.7283ZM73.4444 59.7753C74.7128 58.0572 75.8753 56.2682 76.954 54.427C78.7793 51.3118 79.8383 48.0472 79.2467 44.343C78.2928 38.3704 73.6282 33.5061 67.3529 32.7105C62.1803 32.0546 57.7866 33.7853 54.5091 37.9328C52.0866 40.9982 51.2499 44.5321 51.7745 48.3921C52.042 50.3599 52.9347 52.1008 53.843 53.8213C56.3291 58.5303 59.5658 62.7163 62.9871 66.7667C63.7968 67.7253 64.6701 68.6304 65.571 69.6228C68.4717 66.5065 70.9964 63.2444 73.4444 59.7753Z" fill="white"/>
<path d="M144.654 126.264C142.981 129.774 140.286 131.681 136.416 131.686C131.955 131.692 128.21 127.78 128.078 123.321C127.952 119.047 130.986 115.123 135.624 114.558C140.26 113.993 144.543 117.212 145.166 121.795C145.375 123.333 145.176 124.774 144.654 126.264ZM132.146 119.733C131.752 120.283 131.352 120.831 131.331 121.651C132.545 121.651 133.722 121.651 134.898 121.651C135.35 121.651 135.38 121.341 135.379 121.002C135.376 120.135 135.365 119.268 135.38 118.401C135.39 117.777 135.122 117.678 134.591 117.895C133.648 118.279 132.813 118.796 132.146 119.733ZM131.686 125.664C132.485 127.069 133.625 128.021 135.374 128.474C135.374 127.324 135.354 126.308 135.381 125.294C135.397 124.728 135.149 124.559 134.621 124.577C133.833 124.605 133.042 124.583 132.253 124.585C131.263 124.587 131.241 124.623 131.686 125.664ZM141.805 120.764C141.11 119.298 140.032 118.286 138.317 117.797C138.317 119.016 138.304 120.132 138.323 121.247C138.33 121.652 138.673 121.644 138.965 121.646C139.778 121.652 140.591 121.637 141.403 121.657C142.068 121.672 142.1 121.36 141.805 120.764ZM141.691 125.637C141.789 125.322 142.003 125.03 141.87 124.592C140.811 124.592 139.742 124.591 138.672 124.593C138.429 124.593 138.269 124.69 138.269 124.961C138.269 126.079 138.269 127.198 138.269 128.397C139.818 127.991 140.894 127.08 141.691 125.637Z" fill="black"/>
<path d="M96.3684 138.133C96.3722 133.522 96.3741 128.991 96.3835 124.459C96.3844 124.066 96.4157 123.669 96.4677 123.279C96.5684 122.523 97.1798 121.973 97.9048 121.957C98.643 121.941 99.3151 122.538 99.4089 123.308C99.4343 123.516 99.4218 123.729 99.4218 123.94C99.4215 136.165 99.4211 148.389 99.4178 160.614C99.4178 160.927 99.4621 161.246 99.3305 161.549C99.0444 162.209 98.5004 162.535 97.8273 162.49C97.1179 162.443 96.5845 162.046 96.4679 161.284C96.4005 160.844 96.3742 160.393 96.3738 159.947C96.3678 152.702 96.369 145.457 96.3684 138.133Z" fill="black"/>
<path d="M149.304 130.065C149.305 127.825 149.3 125.664 149.31 123.503C149.313 122.719 149.717 122.197 150.47 122.009C151.168 121.836 151.696 122.16 152.086 122.728C152.345 123.104 152.268 123.542 152.269 123.958C152.299 134.47 152.328 144.982 152.347 155.494C152.35 157.258 152.328 159.024 152.282 160.788C152.253 161.889 151.651 162.536 150.765 162.513C149.826 162.488 149.304 161.829 149.304 160.659C149.304 150.488 149.304 140.316 149.304 130.065Z" fill="black"/>
<path d="M90.7138 88.4257C91.3328 88.8649 91.9508 88.9524 92.6355 88.7885C93.2055 88.652 93.7836 88.6716 94.3404 88.9082C95.3419 89.3338 95.7981 90.2916 95.4278 91.2095C95.0966 92.0304 94.1476 92.3681 93.1456 92.0503C92.4208 91.8203 91.91 91.2553 91.2647 90.9045C90.8393 90.6732 90.4115 90.6482 89.9964 90.9315C89.6791 91.148 89.6073 91.4662 89.6103 91.8304C89.6131 92.1698 89.8378 92.3526 90.0564 92.5375C90.5898 92.9888 90.6863 93.5688 90.4841 94.1834C90.3402 94.6206 89.9504 94.7967 89.4914 94.8397C88.7796 94.9064 88.3511 94.5457 88.058 93.9518C88.0463 93.9282 88.0319 93.9059 88.0211 93.882C87.7933 93.3766 87.5851 92.7665 86.9054 92.8489C86.2405 92.9296 86.0254 93.461 85.9383 94.1077C85.8402 94.8362 85.0685 95.2859 84.4038 95.106C83.6049 94.8897 83.1237 93.9733 83.4168 93.1553C83.5576 92.7622 83.807 92.409 83.9604 92.0193C84.2997 91.1574 83.8871 90.496 82.9568 90.4311C82.5956 90.4059 82.2269 90.4907 81.8613 90.5226C81.2423 90.5767 80.6939 90.4234 80.3516 89.8746C80.0481 89.3881 80.0586 88.8486 80.3899 88.3866C80.7576 87.8737 81.3026 87.7073 81.9289 87.8073C82.239 87.8568 82.5515 87.8944 82.8641 87.9243C83.3587 87.9716 83.6478 87.6922 83.8486 87.2826C84.0414 86.8893 84.007 86.5179 83.7342 86.1746C83.6196 86.0304 83.4957 85.8934 83.3721 85.7566C82.8933 85.2265 82.6748 84.6404 83.0114 83.953C83.283 83.3984 83.7372 83.1474 84.3574 83.1831C85.1065 83.2263 85.5718 83.6343 85.8104 84.3159C85.9538 84.7256 86.1219 85.089 86.5575 85.2746C87.283 85.5838 87.8233 85.293 87.9177 84.5129C87.9619 84.1484 87.9393 83.7704 88.025 83.4175C88.2708 82.4053 89.1313 81.9465 90.0861 82.282C90.8294 82.5432 91.1791 83.4819 90.8291 84.3359C90.7102 84.6261 90.5387 84.8964 90.3761 85.1667C89.5041 86.6157 89.5497 87.135 90.7138 88.4257Z" fill="black"/>
<path d="M84.5496 79.2576C84.4206 80.4522 83.7533 81.12 82.7102 81.4423C81.7388 81.7424 80.9373 81.3817 80.3134 80.6649C79.6824 79.9399 79.5127 79.0884 79.9008 78.1671C80.3138 77.1869 81.5221 76.5279 82.5433 76.7327C83.7819 76.9811 84.5089 77.871 84.5496 79.2576Z" fill="black"/>
<path d="M87.0025 97.9696C88.7217 97.7821 89.7552 98.7227 89.4196 100.087C89.2385 100.823 88.5545 101.396 87.7691 101.471C87.0636 101.538 86.3179 101.073 86.0084 100.374C85.7012 99.6794 85.8615 98.8554 86.421 98.3486C86.5747 98.2094 86.7672 98.1131 87.0025 97.9696Z" fill="black"/>
<path d="M82.4626 105.339C82.7704 104.557 83.2637 104.111 84.0691 104.067C84.7598 104.029 85.3083 104.294 85.6712 104.875C86.0707 105.514 86.0537 106.169 85.6086 106.789C85.1243 107.464 84.4535 107.683 83.6674 107.484C82.9251 107.296 82.548 106.741 82.4063 106.023C82.3671 105.825 82.4247 105.607 82.4626 105.339Z" fill="black"/>
<path d="M74.3841 84.1083C73.9834 83.0822 74.1173 82.3725 74.8042 81.8694C75.4134 81.4234 76.0673 81.3994 76.7131 81.7956C77.3788 82.2039 77.5517 82.8306 77.4371 83.5644C77.3319 84.2374 76.8954 84.6594 76.2824 84.817C75.5522 85.0048 74.8724 84.8549 74.3841 84.1083Z" fill="black"/>
<path d="M81.9773 101.005C81.8443 102.08 81.3224 102.635 80.5289 102.579C79.8564 102.531 79.3908 102.183 79.244 101.506C79.0888 100.789 79.4202 100.177 80.0841 99.9096C80.7377 99.6466 81.2681 99.8626 81.6875 100.381C81.8155 100.539 81.8728 100.754 81.9773 101.005Z" fill="black"/>
<path d="M93.7586 97.8987C94.2018 98.6216 94.0636 99.2173 93.4843 99.6934C92.9811 100.107 92.4152 100.089 91.8843 99.7268C91.3274 99.3465 91.2417 98.7841 91.4275 98.1903C91.721 97.2526 92.8728 97.0908 93.7586 97.8987Z" fill="black"/>
<path d="M78.1568 104.378C78.825 104.83 79.0241 105.384 78.6119 106.03C78.2681 106.569 77.757 106.802 77.1151 106.533C76.518 106.284 76.2973 105.809 76.3936 105.196C76.5122 104.441 77.1877 104.118 78.1568 104.378Z" fill="black"/>
<path d="M87.3176 79.5484C86.5659 79.1878 86.5046 78.5873 86.7182 77.9805C86.912 77.4302 87.3919 77.2101 87.9902 77.2912C88.5951 77.3731 88.9362 77.7281 89.0249 78.3103C89.1159 78.9079 88.8202 79.3189 88.2966 79.5667C87.9998 79.7071 87.6827 79.674 87.3176 79.5484Z" fill="black"/>
<path d="M69.8139 146.632C68.7741 145.895 68.2478 145.905 67.2813 146.641C66.6019 147.158 65.9443 147.177 65.3374 146.693C64.7316 146.209 64.6884 145.566 64.9008 144.902C65.0955 144.294 65.8418 143.942 66.5917 144.013C66.9833 144.05 67.3809 144.102 67.7697 144.07C68.3103 144.027 68.6234 143.657 68.7136 143.15C68.7937 142.7 68.4261 142.517 68.0941 142.344C67.279 141.918 67 141.375 67.2634 140.723C67.5158 140.099 68.2569 139.855 69.0862 140.146C69.4326 140.268 69.7673 140.426 70.1004 140.582C70.6758 140.851 71.1725 140.697 71.6239 140.31C72.0795 139.919 72.0063 139.422 71.8683 138.925C71.784 138.622 71.6599 138.33 71.5732 138.027C71.3669 137.306 71.6075 136.728 72.1945 136.3C72.7667 135.883 73.3479 135.98 73.8689 136.397C74.4537 136.866 74.5526 137.502 74.3346 138.182C74.1912 138.629 73.9272 139.031 73.9353 139.532C73.9533 140.644 74.8545 141.24 75.8725 140.794C76.6776 140.441 77.271 140.609 77.6152 141.288C77.9137 141.877 77.7185 142.514 77.0618 142.893C76.6184 143.15 76.2439 143.427 76.3572 143.992C76.4743 144.576 76.9951 144.647 77.4614 144.705C77.8077 144.747 78.136 144.808 78.4394 144.978C79.1594 145.381 79.4803 146.133 79.2018 146.755C78.8939 147.443 78.1269 147.726 77.3205 147.441C76.9392 147.306 76.654 147.031 76.3514 146.774C75.4357 145.996 74.0843 146.297 73.5931 147.39C73.2944 148.054 73.7006 148.554 74.0648 149.036C74.5355 149.66 74.5857 150.31 74.1459 150.936C73.703 151.566 73.0666 151.833 72.2863 151.649C71.485 151.459 70.9203 150.768 71.2039 150.017C71.6981 148.708 71.1913 147.846 70.2407 147.067C70.0993 146.951 69.9844 146.803 69.8139 146.632Z" fill="black"/>
<path d="M63.1318 150.098C62.7153 150.931 62.042 151.128 61.2572 150.986C60.6355 150.873 60.2342 150.441 60.1079 149.835C59.9645 149.148 60.1297 148.516 60.7647 148.12C61.3749 147.74 62.0295 147.755 62.6086 148.165C63.2607 148.626 63.3993 149.292 63.1318 150.098Z" fill="black"/>
<path d="M76.847 134.402C77.7362 134.084 78.4069 134.229 78.776 134.819C79.1509 135.417 79.1189 136.013 78.6448 136.556C78.1765 137.092 77.455 137.226 76.8639 136.899C75.8994 136.367 75.8691 135.278 76.847 134.402Z" fill="black"/>
<path d="M67.7706 152.31C66.9311 152.404 66.3821 152.08 66.261 151.48C66.125 150.806 66.4252 150.258 67.069 150.052C67.6987 149.85 68.156 150.144 68.4587 150.657C68.7981 151.232 68.5509 151.808 67.7706 152.31Z" fill="black"/>
<path d="M126.469 102.801C122.46 103.262 119.056 102.093 116.281 99.2789C115.672 98.6612 115.212 98.4655 114.409 98.7614C113.496 99.0978 112.538 99.29 111.551 98.9736C110.457 98.6224 109.785 97.9658 109.566 96.7762C109.131 94.4022 108.589 92.0479 108.124 89.6793C107.78 87.9335 108.732 86.5555 110.498 86.2006C111.372 86.025 112.253 85.8876 113.133 85.7429C113.403 85.6985 113.649 85.642 113.775 85.3609C114.161 84.5015 114.551 83.6437 114.937 82.7908C114.618 82.3634 114.138 82.4808 113.755 82.3881C109.975 81.4741 107.54 78.4566 107.551 74.5591C107.556 72.9841 107.399 71.4034 107.69 69.832C108.369 66.1579 111.599 63.4149 115.326 63.4086C121.651 63.398 127.976 63.3954 134.301 63.4103C138.807 63.421 142.268 66.8661 142.284 71.3731C142.29 73.0264 142.481 74.6974 142.079 76.3309C141.207 79.8707 138.857 81.8168 135.353 82.493C135.227 82.5174 135.099 82.5375 134.829 82.5847C135.284 83.6096 135.676 84.5989 136.166 85.5372C136.333 85.8581 136.829 85.7861 137.182 85.8601C137.849 86.0003 138.53 86.0804 139.192 86.2418C141.227 86.7381 142.054 88.1239 141.624 90.4012C141.234 92.4642 140.792 94.5181 140.34 96.5685C139.898 98.5727 138.283 99.6419 136.324 98.9986C134.918 98.5371 134.008 98.7005 132.929 99.7969C131.215 101.539 128.996 102.486 126.469 102.801ZM132.509 66.5285C126.951 66.5284 121.393 66.5214 115.835 66.5309C112.932 66.5358 111.412 67.7738 110.775 70.6083C110.518 71.7533 110.706 72.9173 110.635 74.0695C110.469 76.7609 112.03 79.0424 115.212 79.4967C116.43 79.6706 117.52 79.6146 118.346 78.4338C118.959 77.5583 119.779 76.8221 120.541 76.0574C122.908 73.6796 126.469 73.5461 129.044 75.7124C129.834 76.3771 130.593 77.104 131.162 77.9402C132.157 79.4039 133.403 79.8821 135.068 79.3834C135.118 79.3685 135.175 79.3774 135.225 79.364C137.212 78.8349 138.641 77.695 139.034 75.6006C139.335 73.9933 139.323 72.3436 139.053 70.7349C138.626 68.1988 137.316 66.9544 134.796 66.5823C134.099 66.4794 133.377 66.542 132.509 66.5285ZM129.712 98.3174C133.91 95.4402 134.828 90.9591 133.119 86.4688C131.89 83.238 129.562 80.7769 127.216 78.3462C125.922 77.0057 124.132 76.9833 122.801 78.297C121.358 79.7214 119.94 81.1768 118.77 82.8422C116.817 85.6233 115.47 88.603 116.042 92.1204C116.404 94.3512 117.39 96.2961 119.172 97.7108C122.398 100.272 126.044 100.467 129.712 98.3174ZM136.738 93.2493C136.493 94.0684 136.249 94.8874 136.002 95.7141C136.407 95.8914 136.753 96.0748 137.199 96.0146C137.688 93.9805 138.105 91.9358 138.463 89.8762C138.632 88.9068 137.894 89.1986 137.477 89.0797C136.882 88.9101 136.927 89.3706 136.918 89.7404C136.888 90.8659 137.02 91.9992 136.738 93.2493ZM113.743 95.4001C113.115 93.7688 112.754 92.076 112.833 90.3319C112.896 88.926 112.964 88.9285 111.591 89.1784C111.543 89.187 111.502 89.2295 111.365 89.3125C111.74 91.5471 112.159 93.8077 112.763 96.0907C113.191 95.897 113.671 96.0403 113.743 95.4001Z" fill="black"/>
<path d="M60.2092 40.5931C64.3404 36.9197 72.1571 38.524 73.2483 45.2848C74.0261 50.104 70.9651 53.5546 66.7921 54.3433C62.72 55.1129 58.1073 52.1228 57.6738 47.3912C57.4276 44.7031 58.2482 42.4836 60.2092 40.5931ZM64.3588 41.97C63.8581 42.0628 63.4143 42.2954 62.9878 42.5553C61.1073 43.7012 60.2495 46.2041 61.0404 48.2111C61.8681 50.3117 64.2888 51.649 66.402 51.1732C68.9488 50.5997 70.6731 48.0844 70.1565 45.6965C69.5822 43.0417 67.1805 41.4477 64.3588 41.97Z" fill="white"/>
<path d="M124.245 84.765C127.973 84.5087 130.631 87.0403 131.301 89.5437C132.037 92.2898 131.062 95.2917 128.812 96.9383C126.574 98.5762 123.367 98.6444 121.031 97.0212C119.12 95.6937 118.255 93.8051 118.238 91.4791C118.21 87.3149 121.235 85.1154 124.245 84.765ZM121.419 90.9896C121.046 93.3775 123.39 95.5716 125.833 94.8682C127.33 94.4374 128.421 93.0674 128.438 91.4948C128.457 89.7352 127.552 88.5013 125.939 88.0109C124.156 87.4686 121.874 88.5478 121.419 90.9896Z" fill="black"/>
</svg>
