<svg width="197" height="199" viewBox="0 0 197 199" fill="none" xmlns="http://www.w3.org/2000/svg">
<path d="M148.702 180.938C105.425 209.483 46.0123 203.72 16.5157 159C-12.9808 114.28 1.23839 42.5451 44.5157 14.0001C87.7931 -14.545 153.539 6.35743 183.035 51.0774C212.532 95.7973 191.98 152.393 148.702 180.938Z" fill="#618B16"/>
<path d="M132.569 106.042C129.414 107.55 126.137 108.372 122.721 108.766C117.129 109.41 111.685 108.837 106.397 106.927C104.159 106.119 102.004 105.119 100.259 103.424C100.082 103.252 99.9059 103.078 99.7391 102.895C98.903 101.981 98.9063 101.985 97.8128 102.504C96.7187 103.023 95.63 103.556 94.5182 104.034C94.0152 104.251 93.8132 104.527 93.8501 105.092C93.9626 106.814 93.7763 108.493 92.9608 110.058C92.4282 111.081 91.7283 111.96 90.8059 112.651C90.9294 113.011 91.2457 112.997 91.4791 113.084C94.8018 114.327 97.5738 116.248 99.2788 119.459C100.204 121.201 100.692 123.066 100.857 125.041C101.086 127.765 101.426 130.479 101.689 133.201C101.876 135.14 102.014 137.083 102.175 139.024C102.224 139.613 102.29 140.201 102.322 140.791C102.482 143.673 101.931 146.491 101.53 149.321C101.123 152.198 100.678 155.069 100.248 157.943C100.047 159.283 99.8521 160.624 99.6368 161.962C99.5052 162.78 98.777 163.389 98.0413 163.335C97.2567 163.277 96.6949 162.643 96.7402 161.735C96.8176 160.182 97.1781 158.664 97.4035 157.129C97.8724 153.938 98.3316 150.745 98.8158 147.557C99.1603 145.288 99.5567 143.021 99.3934 140.715C99.2472 138.65 99.0245 136.59 98.8352 134.528C98.6279 132.27 98.4364 130.01 98.207 127.755C98.0502 126.213 97.9846 124.656 97.5671 123.149C96.5163 119.357 93.9181 117.112 90.3171 115.835C87.4776 114.828 84.6637 113.75 81.8246 112.742C80.0186 112.101 78.8266 110.973 78.5633 109.006C78.5509 108.913 78.4905 108.827 78.4117 108.642C75.7633 109.444 73.1234 109.327 70.6088 108.393C70.377 108.464 70.3269 108.587 70.3112 108.704C70.0409 110.708 68.7156 111.823 66.9918 112.542C64.4592 113.597 61.8249 114.362 59.1927 115.124C58.7202 115.261 58.3709 115.487 58.0864 115.906C57.6 116.621 57.0269 117.274 56.3665 117.841C55.8048 118.324 55.8073 118.919 56.4816 119.222C57.3553 119.616 58.2887 119.881 59.2067 120.169C59.6444 120.306 59.7254 119.881 59.8819 119.626C61.7048 116.66 64.2725 114.723 67.6857 113.933C74.4234 112.374 81.0628 116.647 82.4291 123.432C82.6143 124.351 82.789 125.273 82.7307 126.218C82.7085 126.578 82.8081 126.904 82.9751 127.213C84.1492 129.386 83.2065 132.182 81.3285 133.552C80.833 133.913 80.5608 134.333 80.3756 134.893C79.723 136.865 78.5686 138.508 76.9938 139.855C76.4216 140.345 76.442 140.798 77.138 141.117C77.7186 141.383 78.3419 141.559 78.9526 141.756C83.0428 143.072 85.638 145.784 86.4952 150.016C86.8807 151.919 87.0636 153.864 87.3258 155.791C87.5679 157.571 87.7773 159.356 88.0322 161.134C88.1719 162.109 87.9855 162.743 87.3651 163.093C86.4068 163.634 85.3315 163.093 85.1751 161.938C84.7522 158.814 84.382 155.682 83.9527 152.559C83.7002 150.722 83.3824 148.899 82.2071 147.358C81.2907 146.156 80.1182 145.344 78.6986 144.862C77.9037 144.592 77.115 144.304 76.3189 144.038C75.1579 143.65 74.2715 142.964 73.8755 141.707C71.5403 142.451 69.2603 142.531 66.9332 141.716C66.4205 143.32 65.0313 143.794 63.6929 144.309C62.6112 144.726 61.4744 145.009 60.4673 145.605C58.3591 146.854 57.2685 148.767 56.9078 151.141C56.3789 154.623 55.948 158.117 55.5371 161.614C55.495 161.972 55.4755 162.363 55.2321 162.669C54.8143 163.194 54.2993 163.478 53.6116 163.254C52.953 163.04 52.5003 162.412 52.5827 161.712C52.9077 158.948 53.2494 156.185 53.6069 153.425C53.7806 152.084 53.8975 150.736 54.2362 149.416C55.1413 145.889 57.3342 143.526 60.6775 142.189C61.5484 141.84 62.4473 141.562 63.3213 141.221C64.2515 140.857 64.3307 140.421 63.6101 139.779C62.0433 138.384 60.8891 136.712 60.2621 134.704C60.1073 134.209 59.8707 133.841 59.4486 133.528C57.628 132.179 56.3773 129.059 57.9989 126.658C58.1329 126.459 58.2581 126.203 58.2566 125.974C58.2506 125.012 58.3834 124.061 58.4764 123.13C56.5718 122.192 54.0555 122.353 53.2046 119.782C51.9224 120.178 50.664 120.48 49.3409 120.491C48.0143 120.503 46.7573 120.2 45.4433 119.789C45.0423 121.281 43.8771 121.844 42.6127 122.301C41.359 122.755 40.0994 123.197 38.867 123.703C35.446 125.11 33.4508 128.117 33.4505 131.806C33.4498 137.966 33.4459 144.126 33.4527 150.286C33.4553 152.626 34.8603 154.541 36.9759 155.131C37.1179 155.171 37.2616 155.214 37.4073 155.229C38.5173 155.346 38.603 155.27 38.6032 154.17C38.6047 148.108 38.6025 142.047 38.6101 135.986C38.611 135.319 38.6325 134.649 38.7062 133.987C38.783 133.298 39.3424 132.843 40.0285 132.826C40.7414 132.809 41.3478 133.275 41.4575 133.963C41.5195 134.352 41.5471 134.75 41.5475 135.144C41.5551 143.803 41.5578 152.462 41.5558 161.121C41.5558 161.465 41.5257 161.814 41.4676 162.154C41.3518 162.83 40.7202 163.338 40.0484 163.329C39.4007 163.319 38.8029 162.838 38.7101 162.157C38.627 161.547 38.6265 160.925 38.6106 160.308C38.5954 159.719 38.6073 159.129 38.6073 158.524C37.7242 158.254 36.8461 158.297 36.0217 158.025C32.7866 156.958 31.1264 154.614 30.527 151.376C30.3545 150.445 30.3804 149.507 30.3804 148.569C30.38 143.101 30.3532 137.634 30.3922 132.166C30.413 129.248 31.2134 126.557 33.1221 124.277C34.6559 122.444 36.6201 121.247 38.8569 120.464C39.7894 120.138 40.7173 119.798 41.6484 119.468C41.9542 119.359 42.2547 119.241 42.4644 118.98C42.756 118.617 42.8694 118.324 42.4046 117.93C40.587 116.387 39.3469 114.451 38.6831 112.156C38.5685 111.76 38.3709 111.457 38.031 111.209C36.1045 109.8 34.8213 106.935 36.0041 104.214C36.2906 103.555 36.1975 102.847 36.1254 102.163C35.3237 94.5534 40.4119 88.5711 47.1439 87.4522C50.7749 86.8487 54.1536 87.7335 57.184 89.8571C57.3005 89.9387 57.4188 90.0178 57.604 90.1444C57.8241 88.7969 58.0026 87.5102 58.3793 86.2682C60.1229 80.5192 63.7404 76.5077 69.5174 74.7094C76.2804 72.6042 82.2564 74.1456 87.2674 79.1311C89.4828 81.3352 90.5933 84.1854 91.3071 87.183C91.8616 89.5111 92.1055 91.8893 92.3883 94.2618C92.6611 96.551 92.9968 98.8328 93.3217 101.242C94.6459 100.679 95.8649 100.166 96.9664 99.4168C97.3604 99.1488 97.3484 98.6952 97.3258 98.2669C97.0283 92.6306 97.2263 86.9898 97.1796 81.3513C97.154 78.2591 97.1381 75.1659 97.1834 72.0741C97.3173 62.9489 103.013 53.8247 113.315 51.7371C122.116 49.9535 129.662 52.2801 135.421 59.4185C137.563 62.0743 138.629 65.2352 139.285 68.5447C139.612 70.1954 139.746 71.8598 139.74 73.5462C139.718 79.9784 139.723 86.4107 139.737 92.843C139.741 94.5766 139.597 96.2918 139.312 97.9996C139.072 99.4354 139.303 99.9271 140.572 100.695C143.152 102.257 145.824 103.663 148.312 105.378C150.582 106.943 152.512 108.824 153.971 111.345C153.971 106.916 153.971 102.621 153.971 98.2683C153.71 98.4138 153.508 98.546 153.291 98.6433C152.616 98.9456 151.8 98.7818 151.312 98.2603C150.861 97.7783 150.751 96.9469 151.07 96.3174C151.158 96.1427 151.276 95.9793 151.399 95.8263C151.704 95.4485 152.015 95.0459 151.694 94.5622C151.374 94.0809 150.838 93.9911 150.303 94.0657C149.965 94.1128 149.64 94.2554 149.309 94.3518C148.408 94.6141 147.501 94.3073 147.027 93.5818C146.616 92.9534 146.669 91.8929 147.141 91.2725C147.607 90.6597 148.593 90.4158 149.439 90.762C149.783 90.9028 150.064 91.0037 150.399 90.7575C150.895 90.3922 150.882 90.0863 150.332 89.8155C149.499 89.4061 149.129 88.6906 149.296 87.8154C149.426 87.1394 150.139 86.5386 150.832 86.5221C151.618 86.5035 152.288 87.0556 152.594 88.0368C152.758 87.6147 152.962 87.2486 153.298 87.0741C153.96 86.7311 154.03 86.2019 154.03 85.5364C154.013 71.8307 154.014 58.125 154.017 44.4193C154.018 43.6299 153.882 42.8424 154.019 42.0498C154.143 41.3353 154.648 40.8371 155.351 40.7946C156.179 40.7447 156.779 41.153 156.937 41.9229C157.015 42.307 157.045 42.7073 157.046 43.1003C157.048 82.4113 157.046 121.722 157.039 161.033C157.039 161.426 157.014 161.828 156.93 162.211C156.774 162.917 156.097 163.39 155.39 163.342C154.661 163.293 154.095 162.765 154.029 162.014C153.988 161.548 154.017 161.075 154.017 160.606C154.02 148.211 154.073 135.816 153.999 123.422C153.973 119.085 153.019 114.941 150.316 111.377C148.825 109.411 146.896 107.95 144.813 106.692C142.548 105.326 140.235 104.04 137.953 102.703C137.616 102.506 137.407 102.523 137.129 102.813C135.831 104.166 134.297 105.196 132.569 106.042ZM100.098 76.0917C100.141 77.3015 100.212 78.5112 100.22 79.7213C100.24 82.6148 100.199 85.509 100.243 88.4019C100.284 91.1184 100.155 93.8344 100.371 96.5528C100.583 99.2216 101.854 101.14 104.099 102.502C107.622 104.64 111.53 105.499 115.556 105.947C118.345 106.258 121.126 106.122 123.89 105.655C127.255 105.086 130.473 104.097 133.313 102.132C135.501 100.618 136.603 98.4698 136.65 95.8397C136.785 88.3717 136.652 80.9028 136.669 73.4342C136.673 72.072 136.593 70.7219 136.362 69.3811C135.724 65.6892 134.296 62.3526 131.625 59.6831C127.021 55.0828 121.36 53.4223 115.046 54.4873C107.917 55.6898 103.322 60.031 101.065 66.8618C100.09 69.8137 100.04 72.8764 100.098 76.0917ZM62.4888 90.9027C62.72 90.1069 63.2306 89.7298 64.0702 89.576C68.0063 88.8551 71.1652 86.977 73.1663 83.3729C73.8366 82.1656 75.2097 82.312 75.9026 83.6007C77.9294 87.3704 81.1492 89.3192 85.3392 89.7695C86.6304 89.9083 87.1635 90.4506 87.1725 91.7811C87.1833 93.3885 87.2067 94.9966 87.1706 96.6032C87.0781 100.721 85.4459 104.104 82.2376 106.701C80.9722 107.725 81.1531 109.195 82.6685 109.815C83.7425 110.254 84.8373 110.641 85.9206 111.058C86.3298 111.215 86.7801 111.276 87.1556 111.11C88.8734 110.351 90.3703 109.373 90.8036 107.336C91.1482 105.716 90.8025 104.145 90.5701 102.567C90.1792 99.9125 89.7719 97.2612 89.4474 94.597C89.147 92.1305 88.8779 89.6617 88.2744 87.237C85.8229 77.3861 73.6518 73.464 65.726 80.1966C62.1534 83.2314 60.7474 87.2612 60.4773 91.7907C60.4442 92.347 60.2829 92.9628 60.5829 93.4699C61.437 94.9135 62.1284 96.4174 62.4925 98.0647C62.3647 95.7128 62.4623 93.3714 62.4888 90.9027ZM80.099 104.537C82.1693 103.032 83.4476 101.014 84.0146 98.5271C84.3986 96.8426 84.1863 95.1322 84.2751 93.4352C84.3127 92.716 83.9984 92.4901 83.3628 92.3951C81.7337 92.1515 80.2108 91.5912 78.7928 90.7491C77.0971 89.742 75.6597 88.442 74.4471 86.844C73.7095 87.6869 72.9981 88.4729 72.1695 89.1361C70.3484 90.5936 68.3095 91.6093 66.033 92.1472C65.7527 92.2135 65.3592 92.2127 65.3654 92.6898C65.3939 94.882 65.196 97.086 65.8283 99.2397C67.6992 105.612 74.7172 108.27 80.099 104.537ZM48.772 101.16C47.3275 101.644 45.8256 101.972 44.3298 101.723C42.956 101.494 42.3244 101.983 41.8322 103.209C41.3576 104.391 40.586 105.427 39.0792 105.453C38.5997 105.461 38.5598 105.854 38.5142 106.188C38.3778 107.187 39.1565 108.572 40.1141 108.887C40.8839 109.14 41.1929 109.637 41.3374 110.383C41.6888 112.196 42.4866 113.8 43.7974 115.114C45.611 116.932 47.7855 117.908 50.3678 117.441C54.1853 116.75 56.3002 114.23 57.2152 110.603C57.4315 109.745 57.7342 109.13 58.6391 108.821C59.6171 108.486 60.1547 107.493 60.0561 106.452C59.9963 105.821 59.8089 105.322 58.9995 105.294C58.2638 105.268 57.7077 104.819 57.3322 104.196C57.0654 103.753 56.8314 103.286 56.6223 102.813C56.4392 102.399 56.1541 102.2 55.7067 102.203C54.6382 102.211 53.5345 101.991 52.7756 101.326C51.4474 100.161 50.2158 100.49 48.772 101.16ZM60.8212 128.017C60.447 128.098 60.4233 128.437 60.3575 128.709C60.1516 129.558 60.5467 130.834 61.3384 131.169C62.461 131.644 62.8511 132.478 63.0236 133.554C63.0697 133.842 63.2001 134.118 63.3078 134.394C65.0497 138.848 69.9788 140.705 73.9438 138.39C76.0474 137.161 77.3059 135.293 77.8513 132.955C78.0528 132.091 78.3733 131.469 79.2845 131.184C80.0655 130.94 80.4091 130.264 80.5365 129.488C80.5998 129.102 80.4542 128.817 80.0736 128.662C78.4067 127.984 76.9627 126.953 75.6067 125.792C75.3101 125.538 75.0283 125.489 74.657 125.579C72.3783 126.136 70.1582 125.949 68.014 124.988C67.7402 124.866 67.521 124.832 67.2641 125.026C65.3642 126.462 63.2038 127.345 60.8212 128.017ZM39.907 96.5497C39.2209 98.1654 38.9523 99.8421 39.1483 101.731C39.6068 100.856 39.9804 100.088 40.4044 99.3482C41.0304 98.2564 41.4622 98.093 42.6523 98.4416C43.581 98.7137 44.4977 98.8792 45.4913 98.7629C47.1632 98.5672 48.6976 97.9772 50.2205 97.3342C51.2012 96.9202 52.0301 97.0769 52.8028 97.7939C53.7975 98.7169 54.9839 99.2479 56.3448 99.2803C57.677 99.312 58.6006 99.8664 59.0792 101.134C59.1587 101.344 59.2445 101.585 59.5188 101.728C59.5545 101.479 59.6071 101.262 59.6129 101.044C59.6314 100.353 59.5944 99.6694 59.4838 98.9803C58.667 93.8909 54.5375 90.5356 49.6929 90.3557C45.1467 90.1869 41.9351 92.3914 39.907 96.5497ZM62.9607 120.501C62.0769 121.767 61.4921 123.147 61.3002 124.771C63.1288 124.123 64.6918 123.198 66.143 122.074C67.2367 121.226 67.4703 121.245 68.6544 121.916C70.6039 123.02 72.6371 123.302 74.7396 122.33C75.4658 121.994 76.129 122.068 76.7263 122.609C76.964 122.824 77.1797 123.065 77.4229 123.273C78.1162 123.868 78.7534 124.54 79.6496 125.015C79.6496 124.746 79.6737 124.595 79.6461 124.454C78.8183 120.224 75.6249 116.782 70.7154 116.622C67.5279 116.518 64.9124 117.785 62.9607 120.501ZM62.9875 107.094C62.8487 109.102 61.742 110.512 60.1569 111.649C62.2383 111.093 64.2797 110.485 66.2168 109.574C66.5324 109.425 66.7941 109.193 67.0167 108.924C67.6573 108.15 67.6877 106.935 66.9841 106.286C64.7663 104.24 63.2851 101.78 62.5982 98.8144C62.8646 100.026 62.5806 101.21 62.5378 102.399C62.5115 103.127 62.2067 103.855 62.5345 104.583C62.8746 105.339 63.0385 106.127 62.9875 107.094Z" fill="black"/>
<path d="M73.2471 57.8258C68.8285 62.4657 64.4461 67.0669 60.0598 71.6644C58.7402 73.0475 57.5686 73.0316 56.2649 71.6652C52.3218 67.5327 48.3765 63.4022 44.4169 59.2855C42.7357 57.5374 41.296 55.6767 40.7214 53.2356C39.4255 47.73 43.1329 42.2963 48.7495 41.5198C52.2408 41.0371 55.0899 42.2575 57.4889 44.7268C57.7113 44.9557 57.927 45.1913 58.1849 45.4652C58.9042 44.7162 59.5811 43.9753 60.3929 43.3708C66.0723 39.1416 73.9941 41.9578 75.6513 48.8406C76.3843 51.885 75.6488 54.6558 73.7864 57.1452C73.6237 57.3628 73.4503 57.5724 73.2471 57.8258ZM46.6506 45.4091C44.2159 47.0257 43.1551 49.6042 43.6655 52.4592C43.994 54.2969 45.1155 55.6166 46.3439 56.8854C50.1103 60.776 53.8907 64.6532 57.643 68.5573C58.0745 69.0063 58.3433 69.0343 58.7701 68.5864C62.8295 64.3266 66.9127 60.0895 70.9627 55.8209C71.9131 54.8193 72.4875 53.6087 72.7317 52.2176C73.2157 49.46 72.0275 46.7927 69.5777 45.3297C67.3052 43.9727 64.3244 44.1991 62.2052 45.8527C61.1815 46.6514 60.4203 47.6988 59.4948 48.5892C58.6235 49.4275 57.7467 49.4572 56.9024 48.6114C56.2214 47.9292 55.5836 47.2033 54.8953 46.5287C52.553 44.2331 49.6312 43.8188 46.6506 45.4091Z" fill="white"/>
<path d="M131.651 129.501C126.861 130.807 122.064 127.686 121.391 122.875C120.856 119.045 123.161 115.318 126.816 114.103C130.576 112.853 134.687 114.47 136.567 117.965C138.921 122.344 136.903 127.913 131.651 129.501ZM126.738 126.3C127.161 126.535 127.585 126.769 128.187 126.872C128.187 125.692 128.19 124.594 128.184 123.496C128.183 123.257 128.026 123.136 127.801 123.135C126.682 123.129 125.564 123.132 124.366 123.132C124.741 124.568 125.554 125.508 126.738 126.3ZM125.528 120.508C126.217 120.507 126.906 120.508 127.595 120.505C127.872 120.504 128.18 120.508 128.185 120.122C128.197 119.049 128.189 117.976 128.189 116.896C126.461 117.063 124.596 118.863 124.445 120.44C124.752 120.566 125.075 120.485 125.528 120.508ZM130.826 119.834C130.804 120.219 130.863 120.519 131.365 120.509C132.228 120.493 133.091 120.501 133.954 120.506C134.428 120.509 134.488 120.284 134.347 119.887C134.079 119.131 133.696 118.44 133.104 117.901C132.491 117.342 131.8 116.898 130.825 116.719C130.825 117.787 130.825 118.742 130.826 119.834ZM133.991 123.127C133.13 123.126 132.269 123.125 131.408 123.125C131.126 123.124 130.837 123.134 130.834 123.522C130.828 124.592 130.832 125.663 130.832 126.872C132.556 126.205 133.737 125.188 134.398 123.602C134.507 123.34 134.497 123.105 133.991 123.127Z" fill="black"/>
<path d="M144.119 135.25C144.119 143.68 144.12 152.037 144.115 160.393C144.114 160.96 144.085 161.53 144.036 162.095C143.973 162.813 143.335 163.356 142.621 163.337C141.912 163.317 141.311 162.737 141.265 162.023C141.257 161.9 141.261 161.776 141.261 161.653C141.261 148.599 141.26 135.546 141.261 122.492C141.262 121.259 141.767 120.737 142.863 120.799C143.493 120.836 143.876 121.175 144.019 121.761C144.099 122.093 144.114 122.446 144.114 122.79C144.121 126.918 144.119 131.047 144.119 135.25Z" fill="black"/>
<path d="M91.3993 130.12C92.0271 134.172 92.6859 138.154 93.2215 142.152C93.4574 143.914 93.2402 145.703 93.0792 147.474C92.9008 149.436 92.7139 151.397 92.5278 153.359C92.3486 155.246 92.1634 157.134 91.9858 159.022C91.912 159.807 91.8449 160.592 91.7862 161.378C91.7472 161.902 91.6928 162.421 91.3116 162.823C90.8879 163.269 90.3827 163.475 89.7733 163.23C89.1944 162.998 88.8602 162.599 88.8583 161.938C88.854 160.429 89.1019 158.942 89.2215 157.444C89.3685 155.603 89.5812 153.767 89.7514 151.928C89.9466 149.818 90.1413 147.708 90.3083 145.596C90.4471 143.841 90.2777 142.107 89.9891 140.368C89.4656 137.213 89.0345 134.042 88.5652 130.878C88.4389 130.026 88.304 129.175 88.1929 128.321C88.1453 127.956 88.0996 127.579 88.1392 127.216C88.2107 126.562 88.5864 126.123 89.2545 126.009C90.0323 125.877 90.6571 126.177 90.8697 126.856C91.1944 127.893 91.2421 128.984 91.3993 130.12Z" fill="black"/>
<path d="M60.5104 157.071C60.5107 155.71 60.5033 154.424 60.5138 153.138C60.5215 152.193 61.0181 151.603 61.8254 151.541C62.6045 151.482 63.3047 152.096 63.3777 153.005C63.4408 153.792 63.4039 154.587 63.4042 155.378C63.4052 157.456 63.4162 159.534 63.396 161.611C63.3832 162.934 62.3426 163.682 61.2955 163.146C60.7325 162.858 60.5049 162.371 60.5084 161.745C60.517 160.212 60.5107 158.678 60.5104 157.071Z" fill="black"/>
<path d="M80.3567 156.18C80.3563 158.058 80.3562 159.863 80.3552 161.667C80.3549 162.31 80.1059 162.824 79.5341 163.139C79.0628 163.4 78.5889 163.37 78.1332 163.073C77.6521 162.76 77.4546 162.288 77.4525 161.747C77.4412 158.855 77.4337 155.962 77.4525 153.07C77.4583 152.185 78.0833 151.549 78.8531 151.54C79.67 151.531 80.3214 152.167 80.3472 153.065C80.3764 154.078 80.3557 155.092 80.3567 156.18Z" fill="black"/>
<path d="M151.344 79.9667C152.027 81.0974 151.819 82.169 150.849 82.7674C149.973 83.3071 148.814 83.0137 148.283 82.1183C147.822 81.3402 148.01 80.3138 148.721 79.723C149.504 79.072 150.427 79.1433 151.344 79.9667Z" fill="black"/>
<path d="M147.546 98.7947C147.827 99.8154 147.444 100.641 146.601 100.935C145.801 101.214 144.899 100.823 144.57 100.053C144.224 99.2434 144.529 98.3561 145.286 97.9746C146.139 97.5447 146.979 97.8324 147.546 98.7947Z" fill="black"/>
<path d="M146.232 75.4278C145.579 74.8974 145.398 74.2671 145.68 73.5429C145.919 72.9288 146.44 72.5974 147.07 72.6097C147.751 72.623 148.297 72.9617 148.543 73.6544C148.755 74.25 148.633 74.7924 148.188 75.219C147.627 75.7558 146.972 75.8242 146.232 75.4278Z" fill="black"/>
<path d="M150.221 100.476C151.27 100.331 151.881 100.676 152.128 101.508C152.313 102.13 151.969 102.866 151.346 103.179C150.618 103.544 149.756 103.272 149.376 102.556C148.949 101.752 149.235 101.001 150.221 100.476Z" fill="black"/>
<path d="M144.698 84.1406C145.592 84.3948 146.068 85.0611 145.919 85.7655C145.753 86.5576 145.055 87.019 144.191 86.9095C143.571 86.831 143.058 86.214 143.06 85.5506C143.063 84.739 143.666 84.1984 144.698 84.1406Z" fill="black"/>
<path d="M132.246 81.8071C130.936 82.9233 129.491 83.6282 127.658 83.8113C128.132 84.7657 128.543 85.6179 128.983 86.4552C129.077 86.6341 129.32 86.6265 129.515 86.6693C130.381 86.8594 131.247 87.0532 132.107 87.2698C133.767 87.688 134.646 89.1498 134.263 90.8329C133.81 92.8275 133.351 94.821 132.901 96.8163C132.497 98.6058 130.988 99.6961 129.256 99.1335C127.763 98.6485 126.907 99.0802 125.765 100.079C122.493 102.937 118.656 103.535 114.546 102.085C112.82 101.475 111.295 100.525 110.102 99.1067C109.835 98.7886 109.554 98.7562 109.183 98.8514C108.444 99.041 107.712 99.2536 106.931 99.2373C105.774 99.2131 104.826 98.7266 104.472 97.6593C103.659 95.2052 103.022 92.6864 102.698 90.1208C102.513 88.6576 103.322 87.6772 104.745 87.2656C105.619 87.013 106.519 86.8531 107.412 86.6701C107.662 86.6188 107.91 86.5872 108.033 86.3348C108.421 85.543 108.8 84.7469 109.214 83.885C108.56 83.7238 107.984 83.6122 107.426 83.4399C104.443 82.5171 102.246 79.7625 102.112 76.5507C102.034 74.6867 101.913 72.8077 102.347 70.9433C103.014 68.0802 106.01 65.9186 108.647 65.7512C114.771 65.3624 120.906 65.6377 127.036 65.6025C129.602 65.5878 131.728 66.611 133.338 68.65C134.176 69.713 134.617 70.913 134.687 72.2621C134.76 73.6443 134.778 75.021 134.712 76.4083C134.611 78.5435 133.919 80.3564 132.246 81.8071ZM119.667 76.0004C121.504 76.4415 122.855 77.6617 123.911 79.0778C124.994 80.5301 126.293 80.7607 127.905 80.5864C129.721 80.3899 131.262 79.0895 131.619 77.286C131.915 75.7932 131.86 74.2671 131.707 72.7826C131.459 70.3801 129.747 68.8077 127.409 68.7913C121.303 68.7482 115.197 68.7633 109.091 68.7996C107.273 68.8104 105.725 70.1036 105.273 71.8681C104.804 73.6985 104.99 75.5395 105.288 77.3727C105.372 77.8931 105.617 78.3509 105.93 78.7743C107.119 80.3809 109.507 81.1606 111.473 80.5876C111.709 80.5185 111.826 80.3353 111.975 80.1729C112.727 79.3539 113.448 78.5027 114.245 77.7303C115.718 76.303 117.42 75.4782 119.667 76.0004ZM115.656 80.4249C115.296 80.7984 114.928 81.1654 114.576 81.5464C113.092 83.1526 111.787 84.8828 110.962 86.9294C109.749 89.9365 109.512 92.9096 111.334 95.7922C113 98.4282 115.413 99.9412 118.505 99.9659C121.181 99.9873 123.379 98.6944 125.078 96.6084C127.404 93.7515 127.432 90.6052 126.206 87.3259C124.98 84.0489 122.581 81.6441 120.079 79.3504C119.105 78.4574 117.795 78.5473 116.742 79.3746C116.376 79.6627 116.064 80.0215 115.656 80.4249ZM105.518 90.4457C106.002 92.4113 106.486 94.3768 106.967 96.331C107.464 96.3081 107.833 96.2063 108.322 96.0172C107.082 94.0524 107.264 91.8657 107.265 89.736C106.774 89.676 106.421 89.7937 106.06 89.8628C105.77 89.9184 105.432 89.8842 105.518 90.4457ZM130.284 95.379C130.593 94.0352 130.901 92.691 131.213 91.3478C131.547 89.9135 131.483 89.8233 130.009 89.7173C129.92 89.7109 129.83 89.7305 129.73 89.7388C129.882 91.7182 129.843 93.6341 129.018 95.4438C128.805 95.9109 128.973 96.1116 129.415 96.2533C130.15 96.4893 130.157 95.9438 130.284 95.379Z" fill="black"/>
<path d="M114.024 87.6252C117.603 84.273 123.264 85.7868 124.488 90.3755C125.403 93.8041 123.31 97.3023 119.9 98.0441C116.324 98.8219 112.921 96.6211 112.364 93.0591C112.049 91.0482 112.477 89.1697 114.024 87.6252ZM121.53 93.406C121.994 92.3602 121.926 91.3413 121.367 90.3515C120.463 88.7522 118.362 88.2157 116.717 89.1613C115.188 90.0407 114.669 92.0428 115.546 93.6139C116.838 95.9276 120.284 95.8996 121.53 93.406Z" fill="black"/>
</svg>
