<svg width="128" height="128" viewBox="0 0 128 128" fill="none" xmlns="http://www.w3.org/2000/svg">
<path d="M61.5104 1.32823C61.5104 1.32823 6.70057 56.4426 5.48257 57.6606C4.26457 58.8786 5.78707 61.9236 8.22306 61.9236H14.6175V123.432C14.6175 126.599 16.14 128 17.358 128H109.012C112.666 128 113.58 125.564 113.58 124.346V61.9236H119.365C122.532 61.9236 122.515 57.7651 122.106 57.3561C121.697 56.9471 105.967 41.5221 105.967 41.5221C106.069 34.8231 106.211 20.938 105.967 18.9892C105.724 17.0404 104.242 16.5532 103.531 16.5532H94.7008C93.2393 16.5532 92.6709 17.5682 92.5694 18.0757V27.8197L66.0779 1.32823C64.1291 -0.620567 62.2209 0.51623 61.5104 1.32823Z" fill="#00395B"/>
<path d="M28.929 50.657C31.365 47.612 52.9845 26.1956 63.642 15.9441C72.3709 24.5716 87.3929 39.1094 97.7459 50.657C106.209 60.0965 106.881 72.2764 106.881 79.8889C106.881 87.5014 103.836 96.9409 96.5279 105.162C89.2199 113.384 77.6489 119.474 61.815 119.474C45.981 119.474 35.6837 110.868 30.756 105.162C24.9706 98.4634 22.049 92.0689 20.4031 79.8889C18.3456 64.664 25.9214 54.4165 28.929 50.657Z" fill="white"/>
<path d="M32.8763 52.563C35.0462 49.8583 54.3042 30.8355 63.7975 21.7297C71.573 29.393 84.9541 42.306 94.1762 52.563C101.715 60.9474 102.313 71.7661 102.313 78.5278C102.313 85.2895 99.601 93.6739 93.0912 100.977C86.5815 108.279 76.2745 113.688 62.1701 113.688C48.0657 113.688 38.8932 106.045 34.5038 100.977C29.3502 95.0263 26.7478 89.3465 25.2817 78.5278C23.449 65.0044 30.1972 55.9023 32.8763 52.563Z" fill="#0077AC"/>
<path d="M74.9084 104.554C68.2094 109.426 55.8265 112.369 50.244 113.384C48.7215 110.441 46.1637 101.691 48.1125 90.2421C50.5485 75.9307 65.3429 67.9423 69.7319 66.1867C74.2994 64.3597 86.6824 59.8937 92.8739 57.3562C94.3964 88.7196 84.3373 97.6962 74.9084 104.554Z" fill="white"/>
<path d="M73.9063 102.26C68.2094 106.685 56.6862 109.445 51.7664 110.339C50.4247 107.747 48.8421 99.7397 50.5595 89.6595C52.7064 77.0592 65.7446 70.0259 69.6126 68.4802C73.6379 66.8717 85.5903 62.9397 91.0468 60.7056C92.3886 88.319 82.0174 95.9594 73.9063 102.26Z" fill="#618B16"/>
<path d="M60.2925 91.1556C57.552 94.8095 52.477 105.061 50.244 109.73C50.5485 110.035 51.8883 110.765 52.3755 111.252C52.9845 109.426 57.8565 98.159 65.1645 89.3286C68.2095 85.3701 73.386 80.8026 79.7804 75.0171C70.6455 79.8891 63.033 87.5016 60.2925 91.1556Z" fill="white"/>
</svg>
